<svg width="42" height="42" viewBox="0 0 42 42" fill="none" xmlns="http://www.w3.org/2000/svg">
<g clip-path="url(#clip0_573_2009)">
<path d="M14.6311 1.38138C10.4346 2.83717 6.81562 5.60031 4.30562 9.26492C1.79562 12.9295 0.526938 17.3025 0.685917 21.7414C0.844897 26.1804 2.42316 30.4513 5.18889 33.927C7.95462 37.4027 11.762 39.8998 16.0519 41.0517C19.5297 41.9491 23.1735 41.9885 26.67 41.1665C29.8374 40.4551 32.7658 38.9332 35.1684 36.75C37.669 34.4083 39.4841 31.4294 40.4184 28.1334C41.4337 24.5491 41.6144 20.7799 40.9467 17.115H21.4167V25.2164H32.7272C32.5011 26.5085 32.0167 27.7417 31.303 28.8423C30.5892 29.9428 29.6607 30.888 28.5731 31.6214C27.1922 32.5353 25.6352 33.1501 24.0023 33.4261C22.3648 33.7306 20.6852 33.7306 19.0477 33.4261C17.3878 33.0833 15.8177 32.3983 14.4375 31.4147C12.2199 29.8449 10.5547 27.6147 9.67968 25.0425C8.7901 22.422 8.7901 19.5812 9.67968 16.9608C10.3026 15.124 11.3322 13.4516 12.6919 12.0684C14.2478 10.4565 16.2177 9.30428 18.3854 8.7382C20.553 8.17211 22.8347 8.21403 24.9802 8.85935C26.6562 9.3736 28.1889 10.2725 29.4558 11.4844C30.7311 10.2156 32.0042 8.94357 33.2752 7.66826C33.9314 6.98248 34.6467 6.32951 35.2931 5.62732C33.3589 3.82762 31.0887 2.42713 28.6125 1.50607C24.1031 -0.131305 19.169 -0.175308 14.6311 1.38138Z" fill="white"/>
<path d="M14.6311 1.38151C19.1686 -0.176236 24.1027 -0.133391 28.6125 1.50292C31.0892 2.43024 33.3584 3.83746 35.2899 5.64386C34.6336 6.34605 33.9413 7.0023 33.2719 7.6848C31.9988 8.95573 30.7267 10.2223 29.4558 11.4845C28.1889 10.2726 26.6562 9.37373 24.9802 8.85948C22.8355 8.2119 20.5538 8.16756 18.3856 8.73133C16.2173 9.29509 14.2463 10.4452 12.6886 12.0554C11.329 13.4386 10.2993 15.111 9.67642 16.9478L2.87439 11.6814C5.3091 6.8532 9.52466 3.16003 14.6311 1.38151Z" fill="#E33629"/>
<path d="M1.06971 16.8983C1.43504 15.0863 2.04203 13.3316 2.87439 11.6812L9.67643 16.9607C8.78684 19.5812 8.78684 22.4219 9.67643 25.0424C7.41018 26.7924 5.14283 28.5512 2.87439 30.3187C0.791296 26.1722 0.155986 21.4478 1.06971 16.8983Z" fill="#F8BD00"/>
<path d="M21.4167 17.1118H40.9467C41.6144 20.7768 41.4337 24.546 40.4185 28.1303C39.4841 31.4262 37.669 34.4051 35.1685 36.7468C32.9733 35.034 30.7683 33.3343 28.5731 31.6215C29.6615 30.8874 30.5904 29.9412 31.3042 28.8394C32.018 27.7377 32.502 26.5032 32.7272 25.2099H21.4167C21.4135 22.5128 21.4167 19.8123 21.4167 17.1118Z" fill="#587DBD"/>
<path d="M2.87109 30.3187C5.13953 28.5687 7.40687 26.81 9.67312 25.0425C10.5499 27.6156 12.2174 29.8459 14.4375 31.4147C15.822 32.3937 17.3955 33.0732 19.0575 33.4097C20.695 33.7142 22.3747 33.7142 24.0122 33.4097C25.645 33.1337 27.202 32.5189 28.583 31.605C30.7781 33.3178 32.9831 35.0175 35.1783 36.7303C32.776 38.9147 29.8476 40.4377 26.6798 41.1501C23.1834 41.9721 19.5396 41.9327 16.0617 41.0353C13.3111 40.3009 10.7417 39.0061 8.51484 37.2323C6.15801 35.3608 4.23293 33.0025 2.87109 30.3187Z" fill="#319F43"/>
</g>
<defs>
<clipPath id="clip0_573_2009">
<rect width="42" height="42" fill="white"/>
</clipPath>
</defs>
</svg>
