<svg width="24" height="24" viewBox="0 0 24 24" fill="none" xmlns="http://www.w3.org/2000/svg">
<path d="M11.5082 6.11758C8.52695 6.11758 6.12227 8.52227 6.12227 11.5035C6.12227 14.4848 8.52695 16.8895 11.5082 16.8895C14.4895 16.8895 16.8941 14.4848 16.8941 11.5035C16.8941 8.52227 14.4895 6.11758 11.5082 6.11758ZM11.5082 15.0051C9.58164 15.0051 8.00664 13.4348 8.00664 11.5035C8.00664 9.57227 9.57695 8.00195 11.5082 8.00195C13.4395 8.00195 15.0098 9.57227 15.0098 11.5035C15.0098 13.4348 13.4348 15.0051 11.5082 15.0051V15.0051ZM18.3707 5.89727C18.3707 6.5957 17.8082 7.15352 17.1145 7.15352C16.416 7.15352 15.8582 6.59102 15.8582 5.89727C15.8582 5.20352 16.4207 4.64102 17.1145 4.64102C17.8082 4.64102 18.3707 5.20352 18.3707 5.89727ZM21.9379 7.17227C21.8582 5.48945 21.4738 3.99883 20.241 2.7707C19.0129 1.54258 17.5223 1.1582 15.8395 1.07383C14.1051 0.975391 8.90664 0.975391 7.17227 1.07383C5.49414 1.15352 4.00352 1.53789 2.7707 2.76602C1.53789 3.99414 1.1582 5.48477 1.07383 7.16758C0.975391 8.90195 0.975391 14.1004 1.07383 15.8348C1.15352 17.5176 1.53789 19.0082 2.7707 20.2363C4.00352 21.4645 5.48945 21.8488 7.17227 21.9332C8.90664 22.0316 14.1051 22.0316 15.8395 21.9332C17.5223 21.8535 19.0129 21.4691 20.241 20.2363C21.4691 19.0082 21.8535 17.5176 21.9379 15.8348C22.0363 14.1004 22.0363 8.90664 21.9379 7.17227V7.17227ZM19.6973 17.6957C19.3316 18.6145 18.6238 19.3223 17.7004 19.6926C16.3176 20.241 13.0363 20.1145 11.5082 20.1145C9.98008 20.1145 6.69414 20.2363 5.31602 19.6926C4.39727 19.327 3.68945 18.6191 3.31914 17.6957C2.7707 16.3129 2.89727 13.0316 2.89727 11.5035C2.89727 9.97539 2.77539 6.68945 3.31914 5.31133C3.68477 4.39258 4.39258 3.68477 5.31602 3.31445C6.69883 2.76602 9.98008 2.89258 11.5082 2.89258C13.0363 2.89258 16.3223 2.7707 17.7004 3.31445C18.6191 3.68008 19.327 4.38789 19.6973 5.31133C20.2457 6.69414 20.1191 9.97539 20.1191 11.5035C20.1191 13.0316 20.2457 16.3176 19.6973 17.6957Z" fill="#F5FFE6"/>
</svg>
