<svg width="24" height="24" viewBox="0 0 24 24" fill="none" xmlns="http://www.w3.org/2000/svg">
<path d="M21.533 6.85784C21.5482 7.07103 21.5482 7.28427 21.5482 7.49745C21.5482 14 16.599 21.4924 7.5533 21.4924C4.76648 21.4924 2.17767 20.6852 0 19.2843C0.395953 19.3299 0.776625 19.3452 1.18781 19.3452C3.48727 19.3452 5.60405 18.5685 7.29441 17.2437C5.13197 17.198 3.31978 15.7817 2.69541 13.8325C3 13.8781 3.30455 13.9086 3.62437 13.9086C4.06598 13.9086 4.50764 13.8477 4.91878 13.7411C2.66498 13.2842 0.974578 11.3045 0.974578 8.91369V8.8528C1.62937 9.21828 2.39086 9.4467 3.19791 9.47712C1.87303 8.59386 1.00505 7.08627 1.00505 5.38067C1.00505 4.46698 1.24866 3.62942 1.67508 2.89845C4.09641 5.88322 7.73602 7.83242 11.8172 8.04566C11.7411 7.68017 11.6954 7.2995 11.6954 6.91878C11.6954 4.20809 13.8883 2 16.6141 2C18.0304 2 19.3095 2.59391 20.208 3.5533C21.3197 3.34011 22.3857 2.92892 23.3299 2.36548C22.9643 3.50764 22.1877 4.46703 21.1674 5.07613C22.1573 4.96958 23.1167 4.69541 23.9999 4.31473C23.33 5.28931 22.4924 6.1573 21.533 6.85784V6.85784Z" fill="#F5FFE6"/>
</svg>
