<svg width="24" height="24" viewBox="0 0 24 24" fill="none" xmlns="http://www.w3.org/2000/svg">
<path d="M21.8876 7.34699C21.6422 6.42316 20.9193 5.69559 20.0015 5.44867C18.3378 5 11.6667 5 11.6667 5C11.6667 5 4.99559 5 3.33187 5.44867C2.41402 5.69563 1.69113 6.42316 1.44578 7.34699C1 9.02148 1 12.5152 1 12.5152C1 12.5152 1 16.0088 1.44578 17.6833C1.69113 18.6071 2.41402 19.3044 3.33187 19.5513C4.99559 20 11.6667 20 11.6667 20C11.6667 20 18.3378 20 20.0015 19.5513C20.9193 19.3044 21.6422 18.6071 21.8876 17.6833C22.3334 16.0088 22.3334 12.5152 22.3334 12.5152C22.3334 12.5152 22.3334 9.02148 21.8876 7.34699V7.34699ZM9.48484 15.6871V9.34316L15.0606 12.5152L9.48484 15.6871V15.6871Z" fill="#F5FFE6"/>
</svg>
