<svg xmlns="http://www.w3.org/2000/svg" width="18" height="19" viewBox="0 0 18 19" fill="none">
<path d="M16.0312 12.8048C15.967 12.8414 15.8961 12.865 15.8227 12.8742C15.7494 12.8835 15.6749 12.8781 15.6036 12.8585C15.5322 12.8389 15.4655 12.8055 15.4071 12.76C15.3488 12.7146 15.2999 12.6581 15.2634 12.5938L13.9275 10.2594C13.1508 10.7846 12.294 11.1802 11.3906 11.4309L11.8033 13.9073C11.8155 13.9802 11.8132 14.0548 11.7965 14.1268C11.7799 14.1988 11.7492 14.2668 11.7062 14.3269C11.6632 14.3871 11.6088 14.4382 11.5461 14.4773C11.4834 14.5164 11.4136 14.5427 11.3407 14.5548C11.3107 14.5597 11.2804 14.5623 11.25 14.5626C11.1169 14.5624 10.9882 14.515 10.8868 14.4289C10.7853 14.3428 10.7177 14.2235 10.6959 14.0922L10.2902 11.6608C9.43463 11.7798 8.5667 11.7798 7.71114 11.6608L7.30543 14.0922C7.2836 14.2237 7.21577 14.3432 7.11404 14.4293C7.0123 14.5155 6.88328 14.5627 6.74996 14.5626C6.71887 14.5624 6.68784 14.5599 6.65715 14.5548C6.58424 14.5427 6.51442 14.5164 6.4517 14.4773C6.38898 14.4382 6.33458 14.3871 6.29162 14.3269C6.24865 14.2668 6.21796 14.1988 6.20129 14.1268C6.18463 14.0548 6.18232 13.9802 6.1945 13.9073L6.60934 11.4309C5.70627 11.1794 4.84998 10.7831 4.07387 10.2573L2.74215 12.5938C2.70522 12.6582 2.65597 12.7146 2.59722 12.76C2.53847 12.8053 2.47136 12.8386 2.39974 12.858C2.32811 12.8774 2.25337 12.8825 2.17978 12.873C2.10618 12.8635 2.03518 12.8396 1.97082 12.8027C1.90647 12.7657 1.85001 12.7165 1.80469 12.6577C1.75936 12.599 1.72605 12.5319 1.70666 12.4602C1.68727 12.3886 1.68218 12.3139 1.69167 12.2403C1.70116 12.1667 1.72506 12.0957 1.762 12.0313L3.16825 9.57039C2.6743 9.14365 2.22009 8.67297 1.81121 8.16414C1.76022 8.1072 1.72137 8.04048 1.69702 7.96803C1.67268 7.89558 1.66335 7.81893 1.66962 7.74275C1.67588 7.66658 1.6976 7.59249 1.73345 7.52499C1.76931 7.45749 1.81854 7.398 1.87815 7.35017C1.93775 7.30233 2.00648 7.26714 2.08014 7.24675C2.1538 7.22635 2.23084 7.22119 2.30657 7.23156C2.38229 7.24193 2.4551 7.26763 2.52057 7.30708C2.58603 7.34653 2.64276 7.3989 2.68731 7.46101C3.8545 8.90523 5.89637 10.6251 8.99996 10.6251C12.1036 10.6251 14.1454 8.90312 15.3126 7.46101C15.3567 7.39763 15.4133 7.344 15.4789 7.30343C15.5446 7.26287 15.6179 7.23626 15.6943 7.22524C15.7707 7.21423 15.8485 7.21905 15.9229 7.2394C15.9974 7.25976 16.0668 7.29522 16.127 7.34357C16.1871 7.39192 16.2367 7.45214 16.2726 7.52046C16.3084 7.58879 16.3299 7.66377 16.3355 7.74074C16.3412 7.8177 16.331 7.89501 16.3055 7.96785C16.28 8.04069 16.2397 8.10751 16.1873 8.16414C15.7784 8.67297 15.3242 9.14365 14.8303 9.57039L16.2365 12.0313C16.2743 12.0955 16.2989 12.1665 16.309 12.2402C16.3191 12.314 16.3145 12.389 16.2954 12.4609C16.2763 12.5329 16.2431 12.6003 16.1978 12.6593C16.1524 12.7183 16.0958 12.7678 16.0312 12.8048Z" fill="white"/>
</svg>