<?xml version="1.0" encoding="utf-8"?>
<!-- Generator: Adobe Illustrator 25.2.1, SVG Export Plug-In . SVG Version: 6.00 Build 0)  -->
<svg version="1.1" id="Layer_1" xmlns="http://www.w3.org/2000/svg" xmlns:xlink="http://www.w3.org/1999/xlink" x="0px" y="0px"
	 viewBox="0 0 309 309" style="enable-background:new 0 0 309 309;" xml:space="preserve">
<style type="text/css">
	.st0{opacity:0.15;}
	.st1{fill:#010101;}
	.st2{fill:#2F141B;}
	.st3{fill:#E29227;}
	.st4{fill:#F7E3CF;}
	.st5{opacity:0.25;}
	.st6{fill:#FFFFFF;}
	.st7{fill:#371824;}
	.st8{fill:#F9AF8A;}
	.st9{fill:#5F2332;}
	.st10{opacity:0.3;}
</style>
<g>
	<g class="st0">
		<ellipse class="st1" cx="151.5" cy="260.3" rx="85" ry="19.1"/>
	</g>
	<g>
		<g>
			<path class="st2" d="M154.5,244.9c-25,0-44.9-1.2-56.2-3.5c-4.4-0.9-7.2-1.9-9-3c-8.8-5.4-6.5-21.5-1.9-33.9
				c5.3-14.5,11.8-22.2,12-22.6c0.5-0.7,1.4-1.2,2.5-1.2h105.3c0.9,0,1.9,0.5,2.5,1.2c0.2,0.2,6.5,8.2,12,22.6
				c4.6,12.1,6.9,28.3-1.9,33.9l0,0c-1.9,1.2-4.9,2.1-9,3C199.4,243.7,179.5,244.9,154.5,244.9z M103.3,186.1
				c-1.9,2.6-6.2,9.6-10.4,20.1c-5.6,14.9-4.4,25.7-0.2,28c0.7,0.5,2.3,1.2,6.9,2.1c10.6,2.3,30.8,3.5,54.9,3.5s44.2-1.2,54.9-3.3
				c4.4-0.9,6.2-1.6,6.9-2.1c3.9-2.6,5.3-13.3-0.2-28c-3.9-10.7-8.6-17.5-10.4-20.1L103.3,186.1L103.3,186.1z M218.2,236.3
				L218.2,236.3L218.2,236.3z"/>
		</g>
		<g>
			<path class="st2" d="M154.5,244.9c-25,0-44.9-1.2-56.2-3.5c-4.4-0.9-7.2-1.9-9-3c-8.8-5.4-6.5-21.5-1.9-33.9
				c5.3-14.5,11.8-22.2,12-22.6c0.5-0.7,1.4-1.2,2.5-1.2h105.3c0.9,0,1.9,0.5,2.5,1.2c0.2,0.2,6.5,8.2,12,22.6
				c4.6,12.1,6.9,28.3-1.9,33.9l0,0c-1.9,1.2-4.9,2.1-9,3C199.4,243.7,179.5,244.9,154.5,244.9z M103.3,186.1
				c-1.9,2.6-6.2,9.6-10.4,20.1c-5.6,14.9-4.4,25.7-0.2,28c0.7,0.5,2.3,1.2,6.9,2.1c10.6,2.3,30.8,3.5,54.9,3.5s44.2-1.2,54.9-3.3
				c4.4-0.9,6.2-1.6,6.9-2.1c3.9-2.6,5.3-13.3-0.2-28c-3.9-10.7-8.6-17.5-10.4-20.1L103.3,186.1L103.3,186.1z M218.2,236.3
				L218.2,236.3L218.2,236.3z"/>
		</g>
		<g>
			<path class="st3" d="M218.2,236.3c-1.6,0.9-4.2,1.9-8.1,2.6c-11.1,2.1-31.2,3.5-55.6,3.5s-44.4-1.2-55.6-3.5
				c-0.2,0-0.5,0-0.7-0.2l0,0c-3.5-0.7-5.8-1.4-7.4-2.3c-6-3.7-6-16.8-0.7-31.1c3-8.2,6.5-14.2,8.8-17.7l0,0c1.6-2.6,2.8-4,2.8-4
				H207c0,0,6.2,7.7,11.6,21.9C224.2,219.7,224.2,232.5,218.2,236.3z"/>
		</g>
		<g>
			<path class="st4" d="M210.1,238.8c-11.1,2.1-31.2,3.5-55.6,3.5s-44.4-1.2-55.6-3.5c11.1-24.3,29.4-30.8,55.6-30.8
				S198.9,214.6,210.1,238.8z"/>
		</g>
		<g>
			<path class="st4" d="M222.8,223.9c-16-3.5-13-17.7-6.5-24.5c0.9,1.9,1.6,4,2.5,6.1C221.4,212,222.6,218.5,222.8,223.9z"/>
		</g>
		<g class="st5">
			<path class="st1" d="M218.2,236.3c-1.6,0.9-4.2,1.9-8.1,2.6c-11.1,2.1-31.2,3.5-55.6,3.5c-25,0-45.4-1.2-56.2-3.5l0,0
				c19,1.4,42.1,1.4,60.9-0.7c29.2-3,47.2-6.1,46.8-18.7c-0.2-8.6-3.2-15.4-5.3-19.1c-0.9-1.6-2.8-2.3-4.6-2.1
				c-7.6,0.9-27.8,3-44.9,2.6c-21.5-0.7-41.9-5.4-52.1-13.3l0,0c0.2,0,5.6-1.9,13.2-4h95.1c0,0,6.2,7.7,11.6,21.9
				C224.2,219.7,224.2,232.5,218.2,236.3z"/>
		</g>
		<g>
			<path class="st2" d="M243.6,92c-0.7,0-1.2-0.2-1.6-0.5l-43.3-24.7c-1.4-0.7-1.6-2.3-0.9-3.5c16.2-22.2,29.6-36.4,42.4-33.4
				c13,3,14.6,22.9,12,39c-2.3,14.5-5.8,21.2-6,21.5c-0.5,0.7-1.2,1.2-1.9,1.4C244.3,92,243.9,92,243.6,92z M204.5,64l37.7,21.5
				c1.2-3,3-8.9,4.4-17.3c2.3-14.9,0.5-31.3-7.9-33.4C228.3,32.4,212.1,53.7,204.5,64z"/>
		</g>
		<g>
			<path class="st2" d="M65.4,92c-0.2,0-0.5,0-0.9,0c-0.9-0.2-1.6-0.7-1.9-1.4c-0.2-0.2-3.7-7-6-21.5c-2.5-16.1-0.9-36,12-39
				c12.7-3,26.2,11.2,42.4,33.4c0.9,1.2,0.5,2.8-0.9,3.5L67,91.5C66.5,92,65.8,92,65.4,92z M72.1,34.8c-0.7,0-1.2,0-1.6,0.2
				c-8.3,2.1-10.2,18.2-7.9,33.4c1.4,8.4,3,14.2,4.4,17.3l37.7-21.5C97.3,54.2,82.3,34.8,72.1,34.8z"/>
		</g>
		<g>
			<path class="st2" d="M154.5,195.9c-37.5,0-67.4-8.9-86.1-25.7c-14.4-12.8-22-30.6-21.1-48.6c1.4-22.4,9-38.3,23.8-48.3
				c4.2-3,9.3-5.4,14.6-7.5c1.9-0.7,3.5-1.2,5.3-1.9c17.6-5.6,37.7-8.2,63.4-8.2s45.8,2.6,63.4,8.2c1.6,0.5,3.5,1.2,5.1,1.9
				c5.6,2.1,10.4,4.4,14.6,7.5c14.6,10,22.5,25.9,23.8,48.3c0.9,18-6.7,35.7-21.1,48.6C221.9,187,192,195.9,154.5,195.9z
				 M154.5,60.9c-25,0-44.4,2.6-61.3,7.9c-1.6,0.5-3.2,1.2-4.9,1.6c-5.1,1.9-9.5,4-13.2,6.8c-13.2,9.1-20.4,23.8-21.5,44.6
				c-0.9,16.6,6,32.9,19.4,44.8c17.4,15.6,45.6,24,81.5,24s64.1-8.4,81.7-24.3c13.2-11.9,20.4-28.3,19.4-44.8
				c-1.2-21-8.3-35.5-21.5-44.6c-3.9-2.6-8.1-4.9-13.2-6.8c-1.6-0.7-3.2-1.2-4.9-1.6C198.9,63.3,179.5,60.9,154.5,60.9z"/>
		</g>
		<g>
			<path class="st3" d="M249.4,68.6c-1.2,7-2.5,11.9-3.7,15.4c-1.2,3.7-2.1,5.4-2.1,5.4l-4.6-2.8l-38.7-21.9
				c0.5-0.7,1.2-1.6,1.6-2.3c13.7-18.2,26.9-32.5,37.5-29.9c3.5,0.9,5.8,3.3,7.6,6.5l0,0C251,46.4,251,58.8,249.4,68.6z"/>
		</g>
		<g>
			<path class="st3" d="M108.7,64.7c-14.4-19.4-28-34.8-39.1-32.2s-12.3,21.9-10,36.2c2.3,14.2,5.8,20.8,5.8,20.8L108.7,64.7z"/>
		</g>
		<g>
			<path class="st3" d="M154.5,193.3c-0.9,0-2.1,0-3,0c-0.5,0-0.9,0-1.4,0s-0.9,0-1.6,0c-0.9,0-1.9,0-2.8,0c-0.7,0-1.2,0-1.6,0
				s-1.2,0-1.6,0c-0.5,0-1.2,0-1.6,0s-1.2,0-1.6,0c-0.7,0-1.4,0-2.1-0.2c-0.9,0-1.6-0.2-2.5-0.2h-0.2c-0.5,0-1.2,0-1.6-0.2
				c-1.2,0-2.1-0.2-3.2-0.5c-0.5,0-0.9-0.2-1.4-0.2c-1.2-0.2-2.1-0.2-3.2-0.5c-0.5,0-0.9-0.2-1.4-0.2s-0.9-0.2-1.4-0.2
				s-0.9-0.2-1.4-0.2s-0.9-0.2-1.4-0.2s-0.9-0.2-1.4-0.2s-0.9-0.2-1.4-0.2c-1.9-0.5-3.7-0.7-5.3-1.2c-0.5,0-0.9-0.2-1.4-0.2
				c-0.5-0.2-1.2-0.2-1.6-0.5c-0.2,0-0.7-0.2-0.9-0.2c-1.4-0.5-3-0.9-4.4-1.4c-0.2,0-0.5-0.2-0.9-0.2c-3.2-1.2-6.2-2.3-9.3-3.5
				c-0.2-0.2-0.5-0.2-0.9-0.5c-0.2-0.2-0.7-0.2-0.9-0.5c-1.6-0.7-3-1.4-4.4-2.1c-0.2-0.2-0.5-0.2-0.7-0.5c-0.2-0.2-0.7-0.5-0.9-0.5
				c-0.2-0.2-0.7-0.5-0.9-0.5c-0.5-0.2-0.7-0.5-1.2-0.7s-1.2-0.7-1.6-0.9l0,0c-23.1-14.7-31.5-36-30.6-54.4
				c1.4-23.6,10-37.8,22.7-46.5c4.2-2.8,9-5.1,13.9-7c1.6-0.7,3.5-1.2,5.1-1.6c19-6.1,39.8-7.9,62.5-7.9c16.9,0,32.9,1.2,47.7,4.2
				c5.1,0.9,10,2.3,14.8,3.7c1.6,0.5,3.5,1.2,5.1,1.6c5.1,1.9,9.7,4.2,13.9,7c1.4,0.9,2.5,1.9,3.7,2.8c1.2,0.9,2.5,2.1,3.7,3.3
				c0.2,0.2,0.2,0.2,0.5,0.5l0,0c0.7,0.7,1.4,1.4,2.1,2.3c0.5,0.7,0.9,1.2,1.6,1.9c0.2,0.2,0.5,0.5,0.7,0.9c0.2,0.5,0.5,0.9,0.9,1.2
				c0.5,0.7,0.9,1.4,1.2,1.9c0.2,0.2,0.2,0.5,0.5,0.7c0.2,0.2,0.2,0.5,0.5,0.9c0,0.2,0.2,0.5,0.2,0.5c0.2,0.5,0.5,0.9,0.7,1.4
				c0.2,0.2,0.2,0.5,0.5,0.7c0.5,0.9,0.9,2.1,1.4,3c0.2,0.5,0.5,0.9,0.5,1.4c0,0,0,0.2,0.2,0.2c0.2,0.2,0.2,0.7,0.5,0.9
				c0.2,0.7,0.5,1.4,0.7,2.3c0,0.2,0.2,0.7,0.2,0.9c0.2,0.9,0.7,2.1,0.9,3.3c0,0.2,0.2,0.7,0.2,0.9c0.2,0.7,0.2,1.2,0.5,1.9
				c0,0.2,0.2,0.7,0.2,0.9c0.2,0.9,0.2,1.9,0.5,3c0,0.2,0,0.2,0,0.5c0,0.2,0,0.5,0.2,0.9c0.2,1.2,0.2,2.6,0.5,3.7c0,0.2,0,0.7,0,0.9
				c0,0.7,0,1.6,0.2,2.3C260.5,152.9,234.8,193.3,154.5,193.3z"/>
		</g>
		<g>
			<ellipse class="st6" cx="116.3" cy="101.8" rx="25.2" ry="24.5"/>
		</g>
		<g>
			<ellipse class="st7" cx="118.4" cy="101.8" rx="15.7" ry="13.5"/>
		</g>
		<g>
			<ellipse class="st6" cx="192.7" cy="101.8" rx="25.2" ry="24.5"/>
		</g>
		<g>
			<ellipse class="st7" cx="190.6" cy="101.8" rx="15.7" ry="13.5"/>
		</g>
		<g>
			<ellipse class="st4" cx="154.5" cy="134.7" rx="22.2" ry="19.1"/>
		</g>
		<g>
			<path class="st2" d="M154.5,143.8c-0.9,0-1.4-0.5-1.4-1.2v-7c0-0.7,0.7-1.2,1.4-1.2s1.4,0.5,1.4,1.2v7
				C155.9,143.1,155.4,143.8,154.5,143.8z"/>
		</g>
		<g>
			<ellipse class="st8" cx="100.3" cy="135.6" rx="10.4" ry="3.3"/>
		</g>
		<g>
			<ellipse class="st8" cx="208.7" cy="135.6" rx="10.4" ry="3.3"/>
		</g>
		<g>
			<path class="st2" d="M37.1,157.8c-0.5,0-1.2-0.2-1.4-0.7c-0.5-0.7,0-1.4,0.7-1.6L73,139.1c0.7-0.2,1.6,0,2.1,0.5
				c0.5,0.7,0,1.4-0.7,1.6l-36.6,16.3C37.6,157.8,37.4,157.8,37.1,157.8z"/>
		</g>
		<g>
			<path class="st2" d="M30.9,135.9c-0.7,0-1.4-0.5-1.4-1.2c0-0.7,0.5-1.4,1.4-1.4l42.6-4.7c0.9,0,1.6,0.5,1.6,1.2
				c0,0.7-0.5,1.4-1.4,1.4L30.9,135.9C31.1,135.9,31.1,135.9,30.9,135.9z"/>
		</g>
		<g>
			<path class="st2" d="M73.7,122.3c-0.2,0-0.2,0-0.5,0l-39.4-9.1c-0.7-0.2-1.2-0.9-1.2-1.6c0.2-0.7,0.9-1.2,1.9-0.9l39.6,8.9
				c0.7,0.2,1.2,0.9,1.2,1.6C74.9,121.9,74.4,122.3,73.7,122.3z"/>
		</g>
		<g>
			<path class="st2" d="M271.9,157.8c-0.2,0-0.5,0-0.7-0.2l-36.6-16.3c-0.7-0.2-0.9-1.2-0.7-1.6c0.5-0.7,1.4-0.9,2.1-0.5l36.6,16.3
				c0.7,0.2,0.9,1.2,0.7,1.6S272.6,157.8,271.9,157.8z"/>
		</g>
		<g>
			<path class="st2" d="M278.1,135.9C277.9,135.9,277.9,135.9,278.1,135.9l-42.8-4.7c-0.9,0-1.4-0.7-1.4-1.4c0-0.7,0.9-1.2,1.6-1.2
				l42.6,4.7c0.9,0,1.4,0.7,1.4,1.4C279.5,135.4,278.8,135.9,278.1,135.9z"/>
		</g>
		<g>
			<path class="st2" d="M235.3,122.3c-0.7,0-1.2-0.5-1.4-0.9c-0.2-0.7,0.2-1.4,1.2-1.6l39.6-8.9c0.7-0.2,1.6,0.2,1.9,0.9
				c0.2,0.7-0.2,1.4-1.2,1.6l-39.6,8.9C235.5,122.3,235.5,122.3,235.3,122.3z"/>
		</g>
		<g>
			<path class="st2" d="M236,77.7c-0.7,0-1.4-0.2-1.9-0.5c-3.9-2.6-8.3-4.9-13.2-6.8c-1.6-0.7-3.2-1.2-4.9-1.6
				c-0.7-0.2-1.4-0.7-1.9-1.4c-0.2-0.7-0.2-1.4,0-2.1c2.8-4.7,6.5-9.3,10.2-12.6c4.6-4,8.1-5.6,10.9-4.7c2.8,0.9,3.9,4,4.4,10.3
				c0.5,4.9,0,11-0.7,17.3c-0.2,0.9-0.9,1.6-1.9,2.1C236.7,77.5,236.4,77.7,236,77.7z M221.2,64.9c0.7,0.2,1.4,0.5,2.1,0.7
				c3.7,1.4,7.2,3,10.4,4.7c0.9-9.1,0.2-15.2-0.7-17.3C230.7,54.2,225.6,58.4,221.2,64.9z M232.5,52.5L232.5,52.5L232.5,52.5z"/>
		</g>
		<g>
			<path class="st2" d="M73,77.7c-0.5,0-0.7,0-1.2-0.2c-0.9-0.2-1.6-1.2-1.9-2.1c-0.9-6.3-1.2-12.4-0.7-17.3
				c0.5-6.3,1.9-9.3,4.4-10.3c2.8-0.9,6.2,0.5,10.9,4.7c3.7,3.3,7.4,7.9,10.2,12.6c0.5,0.7,0.5,1.4,0,2.1c-0.2,0.7-0.9,1.2-1.9,1.4
				c-1.6,0.5-3.2,1.2-4.9,1.6c-5.1,1.9-9.5,4-13.2,6.8C74.4,77.5,73.7,77.7,73,77.7z M76.3,53.2c-0.9,2.1-1.6,8.2-0.7,17.3
				c3.2-1.9,6.7-3.3,10.4-4.7c0.7-0.2,1.4-0.5,2.1-0.7C83.4,58.4,78.3,54.2,76.3,53.2z"/>
		</g>
		<g>
			<path class="st9" d="M236,75.2c-4.2-2.8-9-5.1-13.9-7c-1.6-0.7-3.5-1.2-5.1-1.6c5.8-9.6,14.4-17,17.1-15.9
				C236.9,51.3,237.8,62.6,236,75.2z"/>
		</g>
		<g class="st10">
			<path class="st1" d="M236.2,53.9c-3.7,1.6-9.5,7.2-13.9,14.2c0,0,0,0-0.2,0c-1.6-0.7-3.5-1.2-5.1-1.6c5.8-9.6,14.4-17,17.1-15.9
				C235.1,50.6,235.8,51.8,236.2,53.9z"/>
		</g>
		<g>
			<path class="st9" d="M92,66.3c-1.6,0.5-3.5,1.2-5.1,1.6c-5.1,1.9-9.7,4.2-13.9,7c-1.9-12.6-0.9-23.8,1.9-24.7
				C77.6,49.2,86.4,56.7,92,66.3z"/>
		</g>
		<g class="st10">
			<path class="st1" d="M77.2,72.6c-1.4,0.7-2.8,1.6-4.2,2.6c-1.9-12.6-0.9-23.8,1.9-24.7c0.9-0.2,2.3,0.2,4.2,1.4
				C76.7,53.5,76,62.1,77.2,72.6z"/>
		</g>
		<g>
			<path class="st2" d="M154.5,122.8c8.8,0,8.1,3,7.4,6.1c-0.9,3-3,7.2-7.4,7.2s-6.5-4.2-7.4-7.2
				C146.4,125.8,145.7,122.8,154.5,122.8z"/>
		</g>
		<g class="st5">
			<path class="st1" d="M258.7,121.6c0-0.7,0-1.6-0.2-2.3c0-0.2,0-0.7,0-0.9c0-1.4-0.2-2.6-0.5-3.7c0-0.2,0-0.7-0.2-0.9
				c0-0.2,0-0.2,0-0.5c-0.2-0.9-0.2-1.9-0.5-3c0-0.2-0.2-0.7-0.2-0.9c-0.2-0.7-0.2-1.2-0.5-1.9c0-0.2-0.2-0.7-0.2-0.9
				c-0.2-1.2-0.5-2.1-0.9-3.3c0-0.5-0.2-0.7-0.2-0.9c-0.2-0.7-0.5-1.4-0.7-2.3c-0.2-0.2-0.2-0.7-0.5-0.9c0,0,0-0.2-0.2-0.2
				c-0.2-0.5-0.5-0.9-0.5-1.4c-0.5-0.9-0.9-2.1-1.4-3c-0.2-0.2-0.2-0.5-0.5-0.7c-0.2-0.5-0.5-0.9-0.7-1.4c0-0.2-0.2-0.5-0.2-0.5
				c-0.2-0.2-0.2-0.5-0.5-0.9c-0.2-0.2-0.2-0.5-0.5-0.7c-0.5-0.7-0.7-1.4-1.2-1.9c-0.2-0.5-0.5-0.9-0.9-1.2
				c-0.2-0.2-0.5-0.5-0.7-0.9c-0.5-0.7-0.9-1.4-1.6-1.9c1.2-3.5,2.5-8.4,3.7-15.4c1.6-9.8,1.6-22.2-2.3-29.7l0,0
				c3,9.1-0.5,27.8-7.4,38.8c-0.5,0.7-0.9,1.4-1.4,2.1c-0.7,1.2-1.4,1.9-1.9,2.3c0.2,0.2,0.2,0.5,0.5,0.7c0.7,1.2,1.4,2.3,1.9,3.5
				c3.7,7.5,6,16.6,6.7,28c1.9,31.3-23.8,71.7-104.2,71.7c-25.5,0-45.4-4-60.6-10.5c0.5,0.2,0.9,0.7,1.6,0.9
				c0.5,0.2,0.7,0.5,1.2,0.7c0.2,0.2,0.7,0.5,0.9,0.5c0.2,0.2,0.7,0.5,0.9,0.5c0.2,0.2,0.5,0.2,0.7,0.5c1.4,0.7,2.8,1.4,4.4,2.1
				c0.2,0.2,0.7,0.2,0.9,0.5c0.2,0.2,0.5,0.2,0.9,0.5c3,1.4,6,2.6,9.3,3.5c0.2,0,0.5,0.2,0.9,0.2c1.4,0.5,2.8,0.9,4.4,1.4
				c0.2,0,0.7,0.2,0.9,0.2c0.5,0.2,1.2,0.2,1.6,0.5c0.5,0.2,0.9,0.2,1.4,0.2c1.9,0.5,3.5,0.9,5.3,1.2c0.5,0,0.9,0.2,1.4,0.2
				c0.5,0,0.9,0.2,1.4,0.2c0.5,0,0.9,0.2,1.4,0.2c0.5,0,0.9,0.2,1.4,0.2c0.5,0,0.9,0.2,1.4,0.2c0.5,0,0.9,0.2,1.4,0.2
				c1.2,0.2,2.1,0.2,3.2,0.5c0.5,0,0.9,0.2,1.4,0.2c0.9,0.2,2.1,0.2,3.2,0.5c0.5,0,1.2,0,1.6,0.2h0.2c0.9,0,1.6,0.2,2.5,0.2
				c0.7,0,1.4,0,2.1,0.2c0.5,0,1.2,0,1.6,0s1.2,0,1.6,0c0.5,0,1.2,0,1.6,0s1.2,0,1.6,0c0.9,0,1.9,0,2.8,0c0.5,0,0.9,0,1.6,0
				c0.5,0,0.9,0,1.4,0c0.9,0,2.1,0,3,0C234.8,193.3,260.5,152.9,258.7,121.6z M243.9,81.7c-0.2-0.2-0.2-0.2-0.5-0.5
				C243.6,81.5,243.6,81.5,243.9,81.7z"/>
		</g>
		<g class="st5">
			<path class="st1" d="M243.9,81.7c-0.2-0.2-0.2-0.2-0.5-0.5C243.6,81.5,243.6,81.5,243.9,81.7z"/>
		</g>
		<g class="st5">
			<path class="st1" d="M243.9,81.7c-0.2-0.2-0.2-0.2-0.5-0.5C243.6,81.5,243.6,81.5,243.9,81.7z"/>
		</g>
		<g>
			<ellipse class="st6" cx="112.6" cy="96.6" rx="4.2" ry="3.5"/>
		</g>
		<g>
			<ellipse class="st6" cx="185.1" cy="96.4" rx="4.2" ry="3.5"/>
		</g>
		<g>
			<path class="st4" d="M86.2,223.9c16-3.5,13-17.7,6.5-24.5c-0.9,1.9-1.6,4-2.5,6.1C87.6,212,86.4,218.5,86.2,223.9z"/>
		</g>
		<g>
			<path class="st3" d="M103.6,188.2v19.6l-7.4,1.6c0,0-9.3-3.3-12.5-4.9c0,0-7.2-2.8-20.8-13.1c-6-4.4-8.6-8.4-9.3-11.4
				c-0.9-4.2,1.4-7.5,4.6-10.3c3.7-3.3,7.4-3.5,11.1-1.9c2.1,0.7,4.2,1.9,6.5,3.5C82,175.3,91.5,182.8,103.6,188.2z"/>
		</g>
		<g>
			<path class="st4" d="M69.3,167.6c-0.9,6.8-9.7,12.8-16,12.1c-0.9-4.2,1.4-7.5,4.6-10.3C61.7,166.5,65.4,166.2,69.3,167.6z"/>
		</g>
		<g>
			<path class="st2" d="M95.9,210.8c-0.2,0-0.5,0-0.5,0c-0.5-0.2-9.3-3.3-12.7-4.9c-0.9-0.5-8.1-3.5-21.1-13.3
				c-6.5-4.9-10-9.6-10-14c-0.2-4.4,3-7.7,5.3-9.8c6.7-5.8,13.4-2.8,19.7,1.4c1.6,0.9,3.5,2.3,5.3,3.5c6,4.2,13.4,9.3,22.5,13.5
				c0.7,0.2,0.9,1.2,0.7,1.6c-0.5,0.7-1.4,0.9-2.1,0.5c-9.3-4.2-16.9-9.6-22.9-13.8c-2.1-1.2-3.9-2.6-5.6-3.5
				c-7.4-4.9-11.3-5.1-15.7-1.6c-3,2.8-4.6,5.1-4.4,7.7c0.2,3.5,3.2,7.7,9,12.1c13.2,10,20.4,12.8,20.4,13.1c0,0,0,0,0.2,0
				c3,1.6,12.3,4.9,12.3,4.9c0.7,0.2,1.2,0.9,0.9,1.6C97.1,210.6,96.6,210.8,95.9,210.8z"/>
		</g>
		<g>
			<path class="st3" d="M255.7,179.8c-0.7,3.3-3.5,7-9.3,11.4c-13.7,10.3-20.8,13.1-20.8,13.1c-0.2,0-0.2,0.2-0.5,0.2
				c-0.5,0.2-0.9,0.5-1.4,0.7c-0.2,0-0.5,0.2-0.7,0.2c-0.5,0.2-0.9,0.2-1.2,0.5c-0.2,0-0.2,0.2-0.5,0.2c-2.8,1.2-5.8,2.1-7.2,2.8
				c-0.5,0.2-0.9,0.2-0.9,0.2c-1.9,0.7-2.8,0.9-2.8,0.9s-0.2,0.2,0-0.9c0-1.2,0-1.2,0.7-2.3c0.5-1.2,0-1.2,0.9-1.6l0,0l-0.2-0.7
				l-5.6-15.4l-0.9-0.9c12-5.6,21.3-12.8,27.8-17.3c2.3-1.4,4.4-2.6,6.5-3.5c3.9-1.4,7.6-1.2,11.1,1.9c0.9,0.9,1.9,1.6,2.5,2.6
				C255.2,174.4,256.4,177,255.7,179.8z"/>
		</g>
		<g>
			<path class="st4" d="M239.7,167.6c0.9,6.8,9.7,12.8,16,12.1c0.9-4.2-1.4-7.5-4.6-10.3C247.3,166.5,243.6,166.2,239.7,167.6z"/>
		</g>
		<g class="st5">
			<path class="st1" d="M255.7,179.8c-0.7,3.3-3.5,7-9.3,11.4c-13.7,10.3-20.8,13.1-20.8,13.1c-0.2,0-0.2,0.2-0.5,0.2
				c-0.5,0.2-0.9,0.5-1.4,0.7c-0.2,0-0.5,0.2-0.7,0.2c-0.5,0.2-0.9,0.2-1.2,0.5c-0.2,0-0.2,0.2-0.5,0.2c-2.8,1.2-5.8,2.1-7.2,2.8
				c-0.5,0.2-0.9,0.2-0.9,0.2c-1.9,0.7-2.8,0.9-2.8,0.9s-0.2,0.2,0-0.9c0-1.2,0-1.2,0.7-2.3c0.5-1.2,0-1.2,0.9-1.6l0,0l-0.2-0.7
				l-5.6-15.4c2.3,3.5,5.6,6.8,7.6,8.6c1.4,1.4,3.7,1.6,5.6,0.9c4.9-1.9,14.6-5.8,22.5-11.7c7.2-5.1,10.9-10.3,12-14.7
				C255.2,174.4,256.4,177,255.7,179.8z"/>
		</g>
		<g>
			<path class="st2" d="M213.1,210.8c-0.7,0-1.2-0.2-1.4-0.7c-0.2-0.7,0-1.4,0.9-1.6c0,0,9.3-3.3,12.3-4.9c0,0,0,0,0.2,0
				c0,0,7.2-3,20.4-13.1c5.8-4.4,8.8-8.6,9-12.1c0-2.6-1.4-5.1-4.4-7.7c-4.2-3.7-8.3-3.3-15.7,1.6c-1.6,0.9-3.2,2.3-5.1,3.5
				c-6,4.2-13.7,9.6-22.9,13.8c-0.7,0.2-1.6,0-2.1-0.5c-0.5-0.7,0-1.4,0.7-1.6c9-4.2,16.4-9.3,22.5-13.5c1.9-1.4,3.7-2.6,5.3-3.5
				c6.2-4.2,13-7,19.7-1.4c2.3,2.1,5.6,5.4,5.3,9.8s-3.5,8.9-10,14c-13,9.8-20.1,13.1-21.1,13.3c-3.5,1.9-12.3,4.9-12.7,4.9
				C213.3,210.8,213.3,210.8,213.1,210.8z"/>
		</g>
		<g>
			<path class="st9" d="M161.9,145.2c-0.2,2.1-0.7,3.5-1.6,4.9c-1.2,1.6-3,2.3-5.8,2.3s-4.6-0.9-5.8-2.3c-0.9-1.2-1.4-2.8-1.6-4.9
				c2.5,0.5,5.6-0.2,7.4-2.8C156.4,145,159.4,145.7,161.9,145.2z"/>
		</g>
		<g>
			<path class="st8" d="M160.3,149.9c-1.2,1.6-3,2.3-5.8,2.3s-4.6-0.9-5.8-2.3c1.4-1.4,3.2-2.1,5.8-2.1S158.9,148.5,160.3,149.9z"/>
		</g>
		<g>
			<path class="st4" d="M151.5,58.4c0,8.9-0.9,15.6-6,15.6s-6-6.5-6-15.4C143.4,58.4,147.3,58.4,151.5,58.4z"/>
		</g>
		<g>
			<path class="st4" d="M171.2,58.6c-0.2,7.9-1.2,13.5-6,13.5c-4.9,0-5.8-5.8-6-14C163.1,58.4,167.2,58.6,171.2,58.6z"/>
		</g>
		<g>
			<path class="st2" d="M194.1,266.2c-15.5,0-29.4-5.1-36.1-8.2c-12-5.1-31.7-4.4-51.2,2.1c-6.9,2.3-12.7,3.5-18.1,3.3
				c-9.3-0.2-16.2-4.4-20.1-12.8c-2.5-5.4-3-10.3-0.9-14.2c2.3-4.2,7.2-7.5,14.6-9.8h0.2c1.9-0.5,3.7-0.9,6-1.4l0,0l0,0h0.2H89
				c1.4-0.2,2.8-0.5,4.6-0.7c19.4-2.3,49.1,2.6,63,6.8c2.3,0.7,4.9,1.6,7.2,2.3c3.9,1.2,7.9,2.6,11.6,3.5c1.2,0.2,2.1,0.7,3.2,0.9
				c7.2,1.9,12.5,2.8,16.7,2.8c0.2,0,0.2,0,0.5,0l0,0c3.2,0,6.2-0.5,9.3-1.2h0.2c1.6-0.2,3-0.5,4.4-0.7c1.9-0.5,3.7-0.7,5.1-1.2
				c1.2-0.5,2.3-0.9,3-1.2c2.3-1.6,3.9-4.4,4.4-8.4c0.2-0.9,0.9-1.6,1.9-2.1c0.9-0.2,2.1-0.2,3,0.2l0,0c5.8,3.5,8.6,8.6,7.6,14.7
				c-1.2,8.9-9.7,17.7-21.1,21.9l0,0C207.5,265.2,200.6,266.2,194.1,266.2z M138.5,249.6c8.6,0,16.2,1.4,22.2,4
				c8.8,3.7,31,11.9,50.9,4.7l0,0c9.3-3.3,16.7-11,17.6-17.7c0.2-2.6-0.2-5.1-1.9-7c-1.2,3-3,5.6-5.6,7.2c-1.2,0.7-2.5,1.4-4.4,1.9
				c-1.6,0.5-3.7,0.9-5.8,1.4c-1.4,0.2-3,0.5-4.6,0.7c-3.5,0.7-6.9,1.2-10.6,1.2c-0.2,0-0.5,0-0.5,0c-4.9,0-10.6-0.9-18.5-3
				c-1.2-0.2-2.1-0.7-3.2-0.9c-3.9-1.2-7.9-2.3-11.8-3.7c-2.3-0.7-4.9-1.6-7.2-2.3c-13-4-41.9-8.6-60.2-6.5
				c-1.4,0.2-2.8,0.5-3.9,0.7h-0.5c0,0,0,0-0.2,0l0,0c-2.1,0.5-3.7,0.9-5.3,1.4c0,0,0,0-0.2,0l0,0c-5.8,1.9-9.7,4.2-11.1,7
				c-1.4,2.8-1.2,6.1,0.9,10.3c3,6.5,7.9,9.6,14.8,9.6c4.2,0,9.5-0.9,15.7-3C116.5,251.4,128.1,249.6,138.5,249.6z M212.8,260.6
				L212.8,260.6L212.8,260.6z M84.4,231.6L84.4,231.6L84.4,231.6z M84.4,231.6L84.4,231.6L84.4,231.6z M84.4,231.6L84.4,231.6
				L84.4,231.6z M227.4,226.2L227.4,226.2L227.4,226.2z"/>
		</g>
		<g>
			<path class="st3" d="M212.8,260.6c-18.3,6.8-39.4,1.4-53.5-4.7c-14.1-6.1-35-4.2-53.7,2.1c-6.5,2.1-12,3.3-16.9,3
				c-2.1,0-3.9-0.2-5.8-0.7c-5.3-1.4-9.3-5.1-11.8-10.5c-4.6-9.6-1.4-16.6,12-20.8c0,0,0,0,0.2,0c1.6-0.5,3.7-0.9,5.8-1.4l0,0
				c0.2,0,0.5,0,0.7-0.2c1.4-0.2,2.8-0.5,4.2-0.7c19.2-2.1,48.6,2.6,61.6,6.8c6.2,1.9,12.7,4.2,19,5.8c1.2,0.2,2.1,0.7,3.2,0.9
				c6.5,1.9,12.5,3,17.6,3c0.2,0,0.2,0,0.5,0c3.5,0,6.9-0.5,10-1.2l0,0c1.6-0.2,3.2-0.5,4.6-0.7c2.1-0.5,3.9-0.9,5.6-1.4
				c1.6-0.5,2.8-0.9,3.7-1.6c1.6-0.9,2.8-2.3,3.7-4c0.9-1.9,1.6-3.7,1.9-6.1l0,0C239.7,237,229.3,254.5,212.8,260.6z"/>
		</g>
		<g>
			<path class="st4" d="M89,261c-8.6-0.2-14.1-4-17.6-11.2c-5.3-11-0.2-18.7,18.5-22.2c1.4-0.2,2.8-0.5,4.2-0.7
				C97.1,235.6,94.3,250.5,89,261z"/>
		</g>
		<g>
			<path class="st2" d="M160.3,146.6c-1.9,0-4.2-0.5-5.8-2.1c-2.3,2.1-5.3,2.3-7.6,1.9c-2.5-0.5-4.4-1.9-5.1-3.7
				c-0.2-0.7,0.2-1.4,0.9-1.6c0.7-0.2,1.6,0.2,1.9,0.7c0.5,1.2,1.6,1.9,3,2.1c2.3,0.5,4.4-0.5,5.8-2.1c0.2-0.5,0.7-0.7,1.2-0.7
				s0.9,0.2,1.2,0.7c1.4,1.9,3.5,2.6,5.8,2.1c1.4-0.2,2.5-1.2,3-2.1c0.2-0.7,1.2-0.9,1.9-0.7c0.7,0.2,1.2,0.9,0.9,1.6
				c-0.7,1.9-2.8,3.3-5.3,3.7C161.7,146.6,161,146.6,160.3,146.6z"/>
		</g>
		<g class="st5">
			<path class="st1" d="M212.8,260.6c-18.3,6.8-39.4,1.4-53.5-4.7c-14.1-6.1-35-4.2-53.7,2.1c-6.5,2.1-12,3.3-16.9,3
				c-2.1,0-3.9-0.2-5.8-0.7c6.5-1.4,12.7-3.7,19.2-6.5c12.5-5.1,28.7-11,48.4-8.6c19.7,2.3,31.7,12.4,51.4,9.1
				c18.5-3,25.2-14.5,21.3-19.8c0.9-1.9,1.6-3.7,1.9-6.1l0,0C239.7,237,229.3,254.5,212.8,260.6z"/>
		</g>
	</g>
</g>
</svg>
