<?xml version="1.0" encoding="utf-8"?>
<!-- Generator: Adobe Illustrator 25.2.1, SVG Export Plug-In . SVG Version: 6.00 Build 0)  -->
<svg version="1.1" id="Layer_1" xmlns="http://www.w3.org/2000/svg" xmlns:xlink="http://www.w3.org/1999/xlink" x="0px" y="0px"
	 viewBox="0 0 309 309" style="enable-background:new 0 0 309 309;" xml:space="preserve">
<style type="text/css">
	.st0{fill:#F68C31;}
	.st1{fill:#FED9BA;}
	.st2{fill:#F4B782;}
	.st3{fill:#B34A26;}
	.st4{fill:#853A1C;}
	.st5{fill:#60270D;}
	.st6{fill:#F99F51;}
	.st7{opacity:0.5;fill:#F06B24;enable-background:new    ;}
	.st8{fill:#FFFFFF;}
	.st9{fill:#010101;}
	.st10{fill:#D65527;}
	.st11{fill:#A34223;}
</style>
<g>
	<g>
		<path class="st0" d="M138.6,235.8c-9.7,2.5-72.6,8.3-82.4-11.1c-5.2-10.4,1.4-20.9,6.4-31.2l0,0c1.8-3.7,2.9-6.6,3-8.1
			c0.7-8.2-6.3-16.3-12.2-19.5c-0.2-0.1-0.3-0.2-0.6-0.3c-1.5-0.8-0.5-2.3,1.4-2.2c19,1.2,42.4,6.5,50.6,19.5
			c0.9,1.5,1.6,3.7,1.9,6.4c0.9,11.4-3.4,25.2-2.2,29.8c1.5,5.7,8.1,11.1,22.2,10.6C141,229.3,148.4,233.3,138.6,235.8z"/>
		<g>
			<path class="st1" d="M107,189.4c-1.8-2.7-4.8-5-8.5-6.6c-1.6-0.7-3.5-1.2-5.2-0.7c-1.1,0.3-1.8,1.2-2,1.9c-0.2,0.8-0.3,1.4,0,2.2
				c-1.6-2.8-5.1-5-9.2-6.2c-1.2-0.3-2.5-0.6-3.8-0.6c-1.3,0.1-2.7,0.3-3.5,1c-0.8,0.7-1,1.5-1.1,2.4c-0.3,2.8,0.2,5.5,1.6,8.1
				c-0.8-1.2-2.9-1.9-5-1.8c-2.2,0.1-4.3,1.1-5.6,2.3c-0.7,0.6-1.2,1.4-1.7,2.2c1.8-3.7,2.9-6.6,3-8.1c0.1-0.6,0.1-1.2,0-1.8
				c0-0.2,0-0.4-0.1-0.7V183c-0.8-7.3-6.9-14-12.1-16.9c-0.2-0.1-0.3-0.2-0.6-0.3c-1.5-0.8-0.5-2.3,1.4-2.2
				c19,1.2,45.3,7.6,50.6,19.5C105.9,184.6,106.8,186.8,107,189.4z"/>
			<g>
				<path class="st2" d="M62.8,194.6c-0.2,0-0.3,0-0.5-0.1c-0.8-0.2-1.1-0.7-0.9-1.2c1.7-3.5,2.8-6.4,2.9-7.8c0.1-0.6,0.1-1.2,0-1.8
					c0-0.2,0-0.4,0-0.6c0-0.1,0-0.1,0-0.1c-0.7-6.8-6.4-13.3-11.6-16.3l-0.2-0.1c-0.1-0.1-0.3-0.1-0.3-0.2c-1.2-0.6-1.6-1.7-1-2.5
					c0.6-0.9,2-1.4,3.5-1.4c17.7,1.1,46.1,7.3,52,20.2c0.7,1.6,1.7,3.8,1.9,6.6c0,0.5-0.4,0.9-1.2,1c-0.7,0.1-1.5-0.1-1.7-0.6
					c-1.6-2.5-4.5-4.7-8-6.2c-0.9-0.4-2.6-1-3.7-0.6c-0.6,0.2-1,0.7-1.2,1.2c-0.2,0.7-0.2,1.2,0,1.9c0.1,0.5-0.3,0.9-1.1,1.1
					c-0.8,0.1-1.6-0.1-1.8-0.6c-1.6-2.5-4.6-4.6-8.5-5.7c-1.2-0.3-2.2-0.5-3.2-0.5c-0.9,0-1.9,0.3-2.3,0.7c-0.6,0.4-0.7,1.2-0.8,1.8
					c-0.3,2.7,0.2,5.3,1.5,7.7c0.3,0.5-0.2,1.1-0.9,1.2s-1.6-0.1-1.9-0.5c-0.5-0.7-2.1-1.3-3.5-1.2c-1.6,0.1-3.3,0.8-4.5,1.9
					c-0.6,0.6-1.1,1.4-1.6,2C63.9,194.3,63.3,194.6,62.8,194.6z M67.3,183c0,0.2,0.1,0.5,0.1,0.7c0,0.6,0,1.2,0,1.9
					c-0.1,0.8-0.3,1.9-0.9,3.4c1.1-0.4,2.3-0.7,3.5-0.8c0.9-0.1,1.7,0.1,2.5,0.2c-0.5-1.8-0.7-3.8-0.5-5.6c0.1-0.9,0.3-2,1.5-2.9
					c1-0.8,2.8-1.3,4.7-1.4c1.4,0,2.8,0.2,4.5,0.7c3,0.8,5.6,2.2,7.6,3.9c0.5-0.8,1.4-1.4,2.4-1.8c1.3-0.4,3.5-0.6,6.7,0.8
					c1.9,0.8,3.6,1.8,5.1,2.9c-0.3-0.6-0.4-1.1-0.7-1.6c-5.4-11.9-32.4-17.8-49.3-18.8c-0.3,0-0.3,0.1-0.4,0.2
					c-0.1,0.2,0.1,0.3,0.1,0.3c0.2,0.1,0.3,0.2,0.5,0.3l0.2,0.1c5.7,3.2,11.9,10.3,12.6,17.6C67.3,182.9,67.3,183,67.3,183z"/>
			</g>
		</g>
		<g>
			<path class="st3" d="M104.6,239.6c-11.6,0-23.8-0.9-33.6-3.8c-8.3-2.4-13.7-6.1-16.1-10.7c-5.2-9.9,2.2-23.8,5.7-30.5l0.7-1.3
				l0,0c1.7-3.5,2.8-6.4,2.9-7.8c0.1-0.6,0.1-1.2,0-1.8c0-0.2,0-0.4,0-0.6c0-0.1,0-0.1,0-0.1c-0.7-7.1-6.5-13.4-11.6-16.3l-0.2-0.1
				c-0.1-0.1-0.3-0.1-0.3-0.2c-1.2-0.6-1.6-1.7-1-2.5c0.6-0.9,2-1.4,3.5-1.4c17.7,1.1,46.1,7.3,52,20.2c0.7,1.6,1.7,3.8,1.9,6.6
				c0.5,6.2-0.6,13.3-1.4,18.9c-0.7,4.8-1.3,8.8-0.8,10.8c0.6,2.4,4,10.4,20.5,9.8c9.3-0.3,16.7,1.3,17.7,3.8c0.3,0.9,0.1,2.7-5.3,4
				l0,0C135.1,237.8,120.5,239.6,104.6,239.6z M64.2,194l-0.7,1.3c-3.2,6-10.5,19.9-5.7,29.2c2.2,4.1,7,7.4,14.5,9.6
				c21.9,6.5,59.2,2.6,65.8,0.9l0,0c2.6-0.7,3.5-1.4,3.5-1.8c-0.3-0.9-5.1-2.7-14.5-2.3c-15.2,0.6-22.3-5.5-23.7-11.4
				c-0.6-2.3,0-6.2,0.8-11.3c0.9-5.6,1.9-12.5,1.4-18.6c-0.2-2.5-1.1-4.6-1.8-6.1c-5.4-11.9-32.4-17.8-49.3-18.8
				c-0.3,0-0.3,0.1-0.4,0.2c-0.1,0.2,0.1,0.3,0.1,0.3c0.2,0.1,0.3,0.2,0.5,0.3l0.2,0.1c5.8,3.2,11.9,9.9,12.6,17.6v0.1
				c0,0.2,0.1,0.5,0.1,0.7c0,0.6,0,1.2,0,1.9C67.2,187.2,66.1,190.1,64.2,194L64.2,194C64.2,193.9,64.2,194,64.2,194z"/>
		</g>
	</g>
	<g>
		<path class="st0" d="M63,180.3c6.3-3.3,18.3-7.6,26-9.8c17.6-5.1,42.2-6.2,46.7-0.3c7.9,10.4-40,18-52.1,19.9
			c4,4.1,17.4,18.5,18.6,19.9c2.5,0.6-11,6.1-10.9,4.8c0,0-1.3,0.7-9-4.3C75.9,206.3,48.6,187.7,63,180.3z"/>
		<g>
			<path class="st3" d="M91.6,216c-0.1,0-0.2,0-0.2,0c-0.3,0-0.4-0.1-0.7-0.1c-1.6-0.2-4.3-1.2-9.5-4.6
				c-5.8-3.8-24.7-16.8-23.9-25.8c0.2-2.4,1.8-4.4,4.7-5.9l0,0c6.3-3.3,18.4-7.6,26.3-10c18.4-5.4,43.6-6.5,48.6,0.2
				c1.4,1.8,1.4,3.6,0.1,5.4c-5.5,7.4-33.5,12.8-51.2,15.5c4.6,4.9,15.4,16.4,17.3,18.6c0.6,0.3,0.9,0.8,0.6,1.3
				C103.4,212.3,94.2,216,91.6,216z M90.4,214.1L90.4,214.1L90.4,214.1z M90.4,214L90.4,214L90.4,214z M90.4,214L90.4,214L90.4,214z
				 M90.4,214L90.4,214L90.4,214z M91.4,213.8c0.3,0,0.4,0.1,0.7,0.1c0,0,0.1,0,0.1,0.1c2-0.4,7.2-2.7,8.6-3.6
				c-1.8-2-14.4-15.5-18.5-19.7c-0.3-0.3-0.3-0.6-0.1-0.9s0.6-0.5,1-0.6c28.3-4.2,47.4-9.7,51.1-14.7c0.9-1.3,0.9-2.5,0-3.7
				c-3.7-4.9-26.7-4.5-44.7,0.7c-7.8,2.3-19.6,6.5-25.7,9.7l0,0c-2.2,1.2-3.4,2.6-3.5,4.5c-0.6,6.5,11.6,16.8,23.1,24.2
				c5.1,3.4,7.1,4,7.6,4.1C91.2,213.8,91.3,213.8,91.4,213.8z M91.2,213.9L91.2,213.9L91.2,213.9z"/>
		</g>
	</g>
	<g>
		<path class="st0" d="M245.2,180.3c-6.3-3.3-18.3-7.6-26-9.8c-17.6-5.1-42.2-6.2-46.7-0.3c-7.9,10.4,40,18,52.1,19.9
			c-4,4.1-17.4,18.5-18.6,19.9c-2.5,0.6,11,6.1,10.9,4.8c0,0,1.3,0.7,9-4.3C232.2,206.3,259.6,187.7,245.2,180.3z"/>
		<g>
			<path class="st3" d="M216.5,216c-2.6,0-11.7-3.7-12.4-5.4c-0.2-0.5,0.1-0.9,0.6-1.3c1.9-2.2,12.8-13.7,17.3-18.6
				c-17.6-2.7-45.6-8.1-51.2-15.5c-1.3-1.8-1.3-3.6,0.1-5.4c5.1-6.6,30.4-5.5,48.6-0.2c8,2.3,20,6.7,26.3,10l0,0
				c2.9,1.5,4.5,3.5,4.7,5.9c0.8,9-18.1,22-24,25.7c-5.2,3.4-7.8,4.5-9.4,4.6C217,215.9,216.8,216,216.5,216
				C216.6,216,216.6,216,216.5,216z M217.7,214.1L217.7,214.1L217.7,214.1z M217.7,214L217.7,214L217.7,214z M217.7,214L217.7,214
				L217.7,214z M217.7,214L217.7,214L217.7,214z M217.7,214L217.7,214L217.7,214z M207.4,210.3c1.4,1,6.7,3.3,8.6,3.6
				c0,0,0.1,0,0.1-0.1c0.3-0.1,0.7-0.1,0.9-0.1c0.4-0.1,2.4-0.7,7.6-4c11.6-7.5,23.6-17.8,23.1-24.2c-0.2-1.9-1.3-3.3-3.5-4.5l0,0
				c-6.1-3.2-17.9-7.4-25.7-9.7c-17.9-5.3-41-5.6-44.7-0.7c-0.9,1.3-0.9,2.5,0,3.7c3.7,5,22.8,10.5,51.1,14.7c0.5,0.1,0.9,0.3,1,0.6
				c0.2,0.3,0.2,0.6-0.1,0.9C221.8,194.8,209.2,208.2,207.4,210.3z"/>
		</g>
	</g>
	<g>
		<g>
			<path class="st0" d="M204.9,231.7c-0.8,4-10.4,45-10.4,45l-14.5,1.2l-12.4-38.5L204.9,231.7z"/>
			<path class="st3" d="M180,278.9c-0.7,0-1.4-0.3-1.5-0.8l-12.5-38.5c-0.2-0.5,0.3-1,1-1.1l37.3-7.6c0.5-0.1,1-0.1,1.5,0.2
				s0.6,0.6,0.5,0.9c-0.8,3.9-10,43.4-10.4,45c-0.1,0.4-0.6,0.8-1.3,0.8l-14.5,1.2C180.1,278.9,180,278.9,180,278.9z M169.3,240
				l11.9,36.8l12-0.9c1.2-5.1,8.2-35,9.8-42.7L169.3,240z"/>
		</g>
		<g>
			<path class="st4" d="M180,277.9c-1.8-5.5,29.5-9.9,37-7.1c7.5,2.8,3.6,6.1,2.8,7.1C219.1,278.9,180,277.9,180,277.9z"/>
			<path class="st5" d="M207.9,279.3c-6,0-14.9-0.1-27.9-0.4c-0.7,0-1.3-0.3-1.5-0.8c-0.3-1.1,0-2.8,3.8-4.5
				c8.5-3.9,29.2-6.1,35.5-3.7c8.1,3,4.7,6.9,3.7,8.1c-0.1,0.1-0.2,0.2-0.3,0.3C220.8,278.8,220.4,279.3,207.9,279.3z M181.6,277
				c16.3,0.4,34,0.6,37.2,0.2c0,0,0,0,0-0.1c1.1-1.3,3-3.4-2.6-5.5c-4.8-1.8-24.2-0.1-32.2,3.6C183.1,275.7,182,276.3,181.6,277z
				 M219.1,277.1L219.1,277.1L219.1,277.1z"/>
		</g>
	</g>
	<g>
		<g>
			<path class="st0" d="M108.7,231.7c0.8,4,10.4,45.1,10.4,45.1l14.5,1.2l12.4-38.7L108.7,231.7z"/>
			<path class="st3" d="M133.6,279c-0.1,0-0.1,0-0.2,0l-14.5-1.2c-0.7-0.1-1.2-0.4-1.3-0.8c-0.4-1.7-9.6-41.2-10.4-45.2
				c-0.1-0.3,0.2-0.7,0.5-0.9c0.4-0.2,0.9-0.3,1.5-0.2l37.3,7.6c0.8,0.2,1.2,0.7,1,1.1l-12.4,38.7C134.9,278.7,134.3,279,133.6,279z
				 M120.4,276l12,0.9l11.9-36.9l-33.6-6.9C112.2,240.9,119.2,270.9,120.4,276z"/>
		</g>
		<g>
			<path class="st4" d="M133.6,278.1c1.8-5.5-29.5-10-37-7.1s-3.6,6.1-2.8,7.1C94.5,279.1,133.6,278.1,133.6,278.1z"/>
			<path class="st5" d="M105.7,279.5c-12.6,0-13-0.6-13.4-1c-0.1-0.1-0.2-0.2-0.3-0.3c-1.1-1.3-4.5-5.1,3.7-8.1
				c6.4-2.4,26.9-0.3,35.5,3.7c3.8,1.7,4.1,3.4,3.8,4.5c-0.2,0.4-0.7,0.8-1.5,0.8C120.6,279.3,111.7,279.5,105.7,279.5z
				 M133.6,278.1L133.6,278.1L133.6,278.1z M94.8,277.3c3.2,0.4,20.9,0.2,37.2-0.2c-0.4-0.7-1.5-1.3-2.5-1.8
				c-7.9-3.6-27.3-5.4-32.2-3.6C91.8,273.9,93.7,276,94.8,277.3C94.8,277.2,94.8,277.3,94.8,277.3z"/>
		</g>
	</g>
	<g>
		<path class="st0" d="M181.8,160h-55C116.6,173.4,95,210.3,95,222.7c0,17.2,27.4,26.7,59.3,26.7s59.3-9.4,59.3-26.7
			C213.7,210.3,191.9,173.4,181.8,160z"/>
		<path class="st6" d="M213.7,222.7c0,17.2-27.4,26.7-59.3,26.7c-1.6,0-3.2,0-4.8-0.1c29.8-0.9,54.5-10.2,54.5-26.6
			c0-12.4-21.7-49.3-31.8-62.7h9.6C191.9,173.4,213.7,210.3,213.7,222.7z"/>
		<g>
			<path class="st1" d="M181.6,179.3c-3.2-7.9-10.4-21.5-14.7-27.1h-25.3c-3.1,4.1-7.7,11.8-11.8,20.1c-2.2,4.4-6.2,8.5-6.6,13.1
				c-0.2,1.4,0.2,3.2,2.2,3.9c2.2,0.7,4.7-0.3,6.6-1.4c-1.2,3.6-1.1,7.5,0.3,11.1c0.7,1.7,1.9,3.6,4.5,4.3c2,0.5,4.3,0.1,6-0.7
				s3.1-1.9,4.4-2.9c-0.8,3.2,0.1,6.4,2.4,9.2c1.3,1.5,3.5,3,6,2.8c2-0.2,3.4-1.2,4.5-2.3c3.7-3.6,4.4-7.5,5.5-11.6
				c0.5,1.2,1,2.5,2.2,3.4c1.3,0.9,3.5,1.5,5.3,1c1.3-0.4,2-1.3,2.5-2.1c1.4-2.3,1.6-4.9,0.8-7.2c0.1,0.9,1.7,1.6,3.2,1.5
				c1.5-0.1,2.7-0.8,3.4-1.7c0.7-0.8,0.9-1.8,0.9-2.7C184,186.6,182.9,182.5,181.6,179.3z"/>
			<g>
				<path class="st2" d="M155.1,212.6c-2.6,0-5.2-1.2-6.9-3.3s-2.8-4.4-2.8-6.8c-0.5,0.3-1.1,0.6-1.7,0.9c-2.4,1.1-5.2,1.3-7.4,0.7
					c-2.6-0.7-4.4-2.3-5.4-4.9c-1.1-3-1.5-6.1-0.9-9.2c-1.6,0.5-3.5,0.7-5.3,0.2c-1.6-0.5-3.3-1.8-3-4.8c0.3-3.2,2.2-6.1,4.1-9
					c0.9-1.4,1.9-2.9,2.6-4.3c4-8,8.7-16,11.9-20.2c0.3-0.3,0.8-0.6,1.4-0.6h25.4c0.6,0,1.1,0.2,1.4,0.6
					c4.4,5.9,11.6,19.7,14.8,27.3l0,0c0.9,2.4,2.6,7.1,2.2,10.9c-0.1,1-0.3,2.1-1.1,3.1c-0.9,1.2-2.7,2-4.6,2.2
					c-0.4,0.1-0.9,0-1.3-0.1c0.1,1.8-0.3,3.5-1.4,5.1c-0.5,0.8-1.4,2-3.2,2.7c-2.6,0.8-5.5,0-7.1-1.2c-0.2-0.1-0.3-0.3-0.5-0.4
					c-0.9,2.9-2,5.8-4.8,8.5c-1.1,1.1-2.8,2.5-5.5,2.7C155.6,212.6,155.4,212.6,155.1,212.6z M147.2,198.6c0.2,0,0.4,0,0.6,0.1
					c0.6,0.2,1,0.6,0.9,1.1c-0.8,2.9,0.1,6,2.2,8.6c1,1.2,2.8,2.4,4.6,2.3c1.1-0.1,2.2-0.7,3.4-1.8c3.2-3.1,4.1-6.5,5-10.1l0.3-1.1
					c0.1-0.4,0.7-0.8,1.5-0.8c0.7-0.1,1.4,0.3,1.6,0.7c0.4,1.1,0.9,2.3,2,3c0.8,0.6,2.3,1.1,3.4,0.7c0.7-0.2,1.2-0.7,1.7-1.5
					c1.2-2,1.5-4.2,0.9-6.3c-0.1-0.2-0.2-0.3-0.2-0.5c-0.1-0.5,0.5-0.9,1.3-1.1c0.8-0.1,1.6,0.2,1.7,0.7c0,0.1,0.1,0.2,0.1,0.3
					c0.1,0.1,0.2,0.2,0.3,0.2c0.3,0.2,0.8,0.3,1.1,0.2c0.8-0.1,1.6-0.5,2.2-1.1c0.5-0.7,0.7-1.5,0.8-2.3c0.3-3.6-1.2-8-2.2-10.3l0,0
					c-2.9-7.2-9.7-20.3-14.1-26.3h-23.4c-3.2,4.3-7.6,11.8-11.4,19.5c-0.8,1.5-1.7,3-2.7,4.5c-1.8,2.8-3.5,5.5-3.9,8.3
					c-0.1,0.9,0,2.5,1.4,2.9c1.1,0.4,2.7-0.1,4.9-1.2c0.5-0.3,1.2-0.3,1.7-0.1c0.5,0.2,0.9,0.6,0.7,1.1c-1.2,3.5-1.1,7.1,0.3,10.6
					c0.8,2,2,3.2,3.5,3.6c1.6,0.4,3.5,0,4.7-0.6c1.6-0.7,2.8-1.7,4.1-2.7C146.2,198.8,146.7,198.6,147.2,198.6z"/>
			</g>
		</g>
		<path class="st7" d="M189.1,170.6c-14.9,3.4-28.9,5.8-34.8,5.8c-5.6,0-19.7-2.4-34.8-5.8c2.7-4.2,5.2-7.8,7.2-10.5h55
			C183.8,162.7,186.3,166.4,189.1,170.6z"/>
		<g>
			<path class="st3" d="M154.3,250.3c-35.8,0-60.9-11.3-60.9-27.6c0-12.9,22.3-50.2,32-63.1c0.3-0.3,0.8-0.6,1.4-0.6h55
				c0.6,0,1.1,0.2,1.4,0.6c9.7,12.9,32,50.2,32,63.1C215.1,239,190.1,250.3,154.3,250.3z M127.8,160.9c-11,14.7-31.3,50.2-31.3,61.7
				c0,17.8,29.1,25.7,57.8,25.7c28.8,0,57.8-8,57.8-25.7c0-11.6-20.4-47-31.3-61.7H127.8z"/>
		</g>
	</g>
	<g>
		<g>
			<g>
				<path class="st0" d="M227.9,91c6-2.9,14.1-9.5,15.3-15.4c1.1-6-2.2-44-6.1-45.1c-3.9-1.2-42,13.7-57.4,33.8
					C171.4,75.3,227.9,91,227.9,91z"/>
				<g>
					<path class="st3" d="M227.9,92c-0.2,0-0.4,0-0.6-0.1c-1.7-0.5-43-12.1-49.2-22.6c-1.1-1.9-1-3.7,0.2-5.4
						c15-19.7,53.9-35.9,59.3-34.3c1.1,0.3,3.5,1.1,5.8,21.6c1.2,10.7,1.7,21.5,1.2,24.6c-1.2,6.7-10.4,13.4-15.9,16.1
						C228.5,91.9,228.2,92,227.9,92z M236.3,31.4c-4.8,0-40.5,14-55.2,33.4c-0.9,1.2-0.9,2.4-0.1,3.8c5.2,9,40.8,19.6,46.7,21.2
						c5.4-2.8,12.9-8.8,14-14.4C242.8,68.7,239.2,34.5,236.3,31.4L236.3,31.4z"/>
				</g>
			</g>
			<g>
				<path class="st1" d="M237.2,66.8c0.6,8.5-4.9,17.3-13.8,22.1c-6-2.3-11.6-5.1-17.1-8.3c-6-3.5-11.5-7.7-16.2-12.2
					c9.6-12.4,23.5-22.5,39.8-28.5c0.4-0.2,0.8-0.3,1.2-0.4c0.1,5.3-1.9,10.5-6.1,14.7c2.7-1.6,6.6-2.3,9.7-2
					c0.5,5.4-1.3,11.3-5.2,15.8C231.8,66.9,234.8,66.8,237.2,66.8z"/>
				<g>
					<path class="st2" d="M223.5,89.8c-0.3,0-0.5-0.1-0.8-0.1c-6-2.3-11.8-5.1-17.3-8.4c-6.2-3.7-11.7-7.9-16.4-12.4
						c-0.3-0.3-0.3-0.7-0.1-0.9c9.5-12.6,23.8-22.8,40.2-28.9c0.5-0.2,0.9-0.3,1.3-0.4c0.4-0.2,1-0.2,1.5,0c0.4,0.2,0.8,0.5,0.8,0.8
						c0.1,4.4-1.2,8.5-3.7,12.2c2-0.4,4.1-0.6,6.1-0.4c0.7,0.1,1.2,0.4,1.3,0.9c0.5,4.8-0.9,9.9-3.6,14c1.6-0.2,3.2-0.3,4.6-0.3
						c0.9,0,1.6,0.4,1.6,0.9c0.6,8.7-5.1,17.9-14.3,22.8C224.2,89.7,223.9,89.8,223.5,89.8z M192,68.3c4.5,4.2,9.7,8.1,15.4,11.6
						c5,3,10.4,5.6,15.9,7.8c7.7-4.5,12.6-12.3,12.4-19.9c-1.9,0.1-3.9,0.3-5.4,0.9c-0.6,0.3-1.4,0.2-1.9-0.1
						c-0.5-0.3-0.6-0.8-0.3-1.2c3.5-3.9,5.3-9.3,5.1-14.4c-2.5,0-5.3,0.7-7.3,1.8c-0.5,0.3-1.4,0.3-2,0.1c-0.6-0.3-0.7-0.8-0.3-1.3
						c3.5-3.6,5.5-7.9,5.9-12.5C214.3,47,201.1,56.5,192,68.3z"/>
				</g>
			</g>
		</g>
		<g>
			<g>
				<path class="st0" d="M80.9,91c-6-2.9-14.1-9.5-15.3-15.4c-1.1-6,2.2-44,6.1-45.1s42,13.7,57.4,33.8C137.4,75.3,80.9,91,80.9,91z
					"/>
				<g>
					<path class="st3" d="M80.9,92c-0.3,0-0.6-0.1-0.9-0.2c-5.4-2.6-14.7-9.3-15.9-16.1c-0.5-3,0-13.8,1.2-24.6
						c2.3-20.5,4.7-21.2,5.8-21.6c5.4-1.6,44.3,14.5,59.3,34.3c1.2,1.7,1.3,3.4,0.2,5.4c-6,10.6-47.4,22.1-49.2,22.6
						C81.4,92,81.2,92,80.9,92z M72.6,31.4c-2.9,3.2-6.6,37.3-5.3,44.1c1,5.6,8.5,11.6,14,14.4c5.9-1.7,41.5-12.3,46.7-21.2
						c0.8-1.4,0.8-2.7-0.1-3.8C113.1,45.5,77.7,31.5,72.6,31.4z"/>
				</g>
			</g>
			<g>
				<path class="st1" d="M71.5,66.8c-0.6,8.5,4.9,17.3,13.8,22.1c6-2.3,11.6-5.1,17.1-8.3c6-3.5,11.5-7.7,16.2-12.2
					c-9.5-12.4-23.5-22.5-39.7-28.5c-0.4-0.2-0.8-0.3-1.2-0.4c-0.1,5.3,1.9,10.5,6.1,14.7c-2.7-1.6-6.6-2.3-9.7-2
					c-0.5,5.4,1.3,11.3,5.2,15.8C77,66.9,74,66.8,71.5,66.8z"/>
				<g>
					<path class="st2" d="M85.3,89.8c-0.3,0-0.7-0.1-0.9-0.2c-9.2-5-14.9-14.2-14.3-22.8c0-0.6,0.8-0.9,1.6-0.9c1.4,0,3,0.1,4.6,0.3
						c-2.8-4.1-4.1-9.2-3.6-14c0.1-0.4,0.6-0.8,1.3-0.9c2-0.2,4.1-0.1,6.1,0.4c-2.6-3.6-3.9-7.8-3.7-12.2c0-0.3,0.3-0.7,0.8-0.8
						c0.4-0.2,1-0.2,1.5,0c0.4,0.1,0.8,0.3,1.2,0.4c16.5,6.1,30.8,16.4,40.3,29c0.3,0.3,0.2,0.7-0.1,0.9
						c-4.7,4.5-10.2,8.7-16.4,12.4c-5.4,3.3-11.3,6.1-17.3,8.4C85.8,89.7,85.6,89.8,85.3,89.8z M73.1,67.8
						c-0.1,7.6,4.7,15.4,12.4,19.9c5.5-2.2,10.8-4.8,15.9-7.8c5.9-3.5,11-7.4,15.4-11.6c-9.1-11.7-22.3-21.3-37.5-27.2
						c0.3,4.6,2.3,8.9,5.9,12.5c0.4,0.4,0.3,0.9-0.3,1.3c-0.6,0.3-1.5,0.3-2-0.1c-1.9-1.1-4.7-1.8-7.3-1.8
						c-0.3,5.1,1.6,10.5,5.1,14.4c0.3,0.4,0.3,0.9-0.3,1.2C79.8,69,79,69,78.4,68.8C77,68,74.9,67.8,73.1,67.8z"/>
				</g>
			</g>
		</g>
		<g>
			<path class="st0" d="M277.8,133c-0.6-1.8-7.2-2.5-21.8-5.5c6.6-0.2,16.4-5,10.7-6.8c-5.4-1.8-16.5-8.1-20.8-14.4
				c-11.2-18.4-27.5-36.7-34.9-40.5c-18.2-9.5-93.9-11.2-113.3,0c-7,4-22.9,21.6-34.1,39.6c-3.8,6.5-15.6,13.4-21.3,15.2
				c-5.7,1.8,4.1,6.6,10.7,6.8l0,0c-14.6,3-21.2,3.6-21.8,5.5c-1.3,4,14.8,9.7,27,13.6c5,2.3,13.3,4.8,23,7.1
				c26.1,6.5,62.4,12.4,73.1,12.4c11.2,0,47.3-5.9,73.1-12.4c9.4-2.3,17.4-4.7,22.5-6.9C262.3,142.9,279.1,137.1,277.8,133z"/>
			<g>
				<path class="st1" d="M227.6,153.8c-25.9,6.5-61.9,12.4-73.1,12.4c-10.8,0-47.1-6-73.1-12.4c16.1-17.6,52.2-30,73.1-30
					C175.4,123.7,211.4,136.2,227.6,153.8L227.6,153.8z"/>
				<g>
					<path class="st2" d="M154.4,167.1c-11.6,0-48.7-6.3-73.8-12.5c-0.4-0.1-0.8-0.3-0.9-0.6c-0.2-0.3-0.1-0.6,0.1-0.8
						c16-17.5,52.5-30.5,74.4-30.5s58.5,13.1,74.4,30.5c0.1,0.1,0.1,0.2,0.2,0.3c0.2,0.5-0.2,1-0.9,1.2
						C202.9,161,166.4,167.1,154.4,167.1z M83.5,153.3c26.7,6.5,60.9,11.9,70.9,11.9c10.2,0,44.5-5.4,71-11.9
						c-16-16.4-50.3-28.6-71-28.6C133.7,124.7,99.5,136.8,83.5,153.3z"/>
				</g>
			</g>
			<path class="st6" d="M255.7,126c-5.4-1.8-16.5-8.1-20.8-14.4C223.8,93.1,207.5,75,200,71.1c-16.3-8.5-78.7-10.7-105.5-3.1
				c1.1-0.9,2.2-1.7,3-2.2c19.4-11.2,95.1-9.5,113.3,0c7.4,3.8,23.7,22.1,34.8,40.5c4.3,6.2,15.4,12.7,20.8,14.4
				c5.3,1.7-2.8,6-9.2,6.7C257.4,126.9,256.9,126.4,255.7,126z"/>
			<path class="st6" d="M264.4,141.9c1.8-1.3,2.8-2.5,2.4-3.6c-0.6-1.8-7.2-2.5-21.8-5.5c5-0.1,11.6-2.8,12.3-5
				c13.5,2.7,19.8,3.4,20.4,5.2C278.5,135.6,272.2,138.8,264.4,141.9z"/>
			<g>
				<path class="st3" d="M154.3,167.1c-11.6,0-48.7-6.3-73.8-12.5c-10.6-2.6-18.4-5-23.3-7.2c-20.5-6.6-28.8-11-27.7-14.7
					c0.6-1.9,4.2-2.6,13.1-4.3c1.5-0.3,2.9-0.6,4.6-0.9c-3.9-1.1-7.6-2.9-8.2-4.9c-0.4-1.2,0.5-2.3,2.5-2.9
					c5-1.6,16.8-8.2,20.6-14.7c11.6-18.5,27.4-35.9,34.5-40c19.8-11.4,96.5-9.8,115.3-0.1c8.2,4.3,24.8,23.4,35.3,40.9
					c4.1,5.8,14.6,12.1,20.1,13.9c2,0.6,2.8,1.7,2.5,2.9c-0.6,1.9-4.3,3.8-8.2,4.9c1.6,0.3,3.2,0.6,4.6,0.9
					c8.9,1.7,12.5,2.4,13.1,4.3l0,0c1.1,3.7-7.3,8.1-28.5,14.9c-4.9,2.1-12.5,4.5-22.7,7C202.8,161,166.2,167.1,154.3,167.1z
					 M151.7,59.1c-22.3,0-44.2,2.3-53,7.5C91.8,70.5,76,88.2,65,105.9c-3.9,6.5-15.7,13.7-22.1,15.8c-1,0.3-0.9,0.6-0.9,0.8
					c0.5,1.5,6.5,4.1,11,4.2c0.8,0,1.4,0.4,1.5,0.8s-0.3,0.9-1,1.1c-3.8,0.8-7,1.4-9.8,1.9c-6,1.2-10.8,2-11,2.8
					c-0.5,1.7,3.5,5.3,26.2,12.6c0.1,0,0.1,0.1,0.2,0.1c4.6,2,12.4,4.5,22.7,7c26.9,6.6,62.4,12.3,72.6,12.3
					c10.4,0,46-5.7,72.6-12.3c9.9-2.4,17.5-4.8,22.2-6.8c0.1,0,0.1-0.1,0.2-0.1c18.6-6,27.8-10.3,27-12.8c-0.3-0.8-5-1.7-11-2.8
					c-2.8-0.6-6-1.2-9.8-1.9c-0.7-0.2-1.1-0.6-1-1.1c0.1-0.4,0.7-0.8,1.5-0.8c4.4-0.1,10.4-2.6,11-4.2c0.1-0.2,0.2-0.4-0.9-0.8
					c-6-1.9-17.2-8.5-21.6-14.9c-11.2-18.6-27.4-36.5-34.4-40.1C200.8,61.9,176,59.1,151.7,59.1z"/>
			</g>
		</g>
		<g>
			<g>
				<ellipse class="st8" cx="102.7" cy="120" rx="26.7" ry="17.1"/>
				<path class="st9" d="M102.7,138c-15.5,0-28.2-8.1-28.2-18.1s12.7-18.1,28.2-18.1S131,110,131,120S118.3,138,102.7,138z
					 M102.7,103.8c-13.9,0-25.2,7.2-25.2,16.1c0,8.9,11.3,16.1,25.2,16.1s25.2-7.2,25.2-16.1C127.9,111.1,116.6,103.8,102.7,103.8z"
					/>
			</g>
			<path class="st9" d="M125.4,120c0,5.6-7.2,10.2-16,10.2s-16-4.5-16-10.2c0-5.6,7.2-10.2,16-10.2c4.5,0,8.5,1.2,11.4,3.1
				c-3.6,2.7-5.4,5.3-4.1,6.1c1.2,0.8,4.4,0,8-1.8C125.2,118.1,125.4,119,125.4,120z"/>
		</g>
		<g>
			<g>
				<ellipse class="st8" cx="206.1" cy="120" rx="26.7" ry="17.1"/>
				<path class="st9" d="M206.1,138c-15.5,0-28.2-8.1-28.2-18.1s12.7-18.1,28.2-18.1s28.2,8.1,28.2,18.1S221.7,138,206.1,138z
					 M206.1,103.8c-13.9,0-25.2,7.2-25.2,16.1c0,8.9,11.3,16.1,25.2,16.1c13.9,0,25.2-7.2,25.2-16.1
					C231.3,111.1,220,103.8,206.1,103.8z"/>
			</g>
			<path class="st9" d="M215.2,120c0,5.6-7.2,10.2-16,10.2c-8.8,0-16-4.5-16-10.2c0-5.6,7.2-10.2,16-10.2c4.5,0,8.5,1.2,11.4,3.1
				c-3.6,2.7-5.4,5.3-4.1,6.1c1.2,0.8,4.4,0,8-1.8C215.1,118.1,215.2,119,215.2,120z"/>
		</g>
		<g>
			<path class="st10" d="M139.1,97.1c-0.3,1.7-4.9,2.7-10.3,2.3c-5.3-0.4-9.5-2-9.1-3.7c0.3-1.7,4.9-2.7,10.3-2.3
				C135.4,93.8,139.4,95.4,139.1,97.1z"/>
			<g>
				<path class="st11" d="M131.1,100.4c-0.8,0-1.6-0.1-2.4-0.1c-2.8-0.2-5.4-0.7-7.3-1.5c-2.2-0.9-3.4-2.1-3.2-3.3
					c0.4-2.3,5.5-3.6,11.9-3.2c2.8,0.2,5.4,0.7,7.3,1.5c2.2,0.9,3.4,2.1,3.2,3.3l0,0c-0.2,1.2-1.7,2.2-4.2,2.7
					C134.9,100.3,133,100.4,131.1,100.4z M127.7,94.3c-3.8,0-6.3,0.8-6.5,1.5c-0.1,0.4,0.6,0.9,1.7,1.4c1.6,0.6,3.7,1.1,6,1.2
					c2.3,0.2,4.7,0.1,6.4-0.3c1.3-0.3,2.2-0.7,2.2-1.1c0.1-0.4-0.6-0.9-1.7-1.4c-1.6-0.6-3.7-1.1-6-1.2
					C129.1,94.3,128.4,94.3,127.7,94.3z M139.1,97.1L139.1,97.1L139.1,97.1z"/>
			</g>
		</g>
		<g>
			<path class="st10" d="M186.8,97.1c-0.3,1.7-4.9,2.7-10.3,2.3c-5.3-0.4-9.5-2-9.1-3.7c0.3-1.7,4.9-2.7,10.3-2.3
				C183,93.8,187,95.4,186.8,97.1z"/>
			<g>
				<path class="st11" d="M178.7,100.4c-0.8,0-1.6-0.1-2.4-0.1c-2.8-0.2-5.4-0.7-7.3-1.5c-2.2-0.9-3.4-2.1-3.2-3.3
					c0.4-2.3,5.5-3.6,11.9-3.2c2.8,0.2,5.4,0.7,7.3,1.5c2.2,0.9,3.4,2.1,3.2,3.3l0,0c-0.2,1.2-1.7,2.2-4.2,2.7
					C182.5,100.3,180.7,100.4,178.7,100.4z M175.3,94.3c-3.8,0-6.3,0.8-6.5,1.5c-0.1,0.4,0.6,0.9,1.7,1.4c1.6,0.6,3.7,1.1,6,1.2
					c2.3,0.2,4.7,0.1,6.4-0.3c1.3-0.3,2.2-0.7,2.2-1.1l0,0c0.1-0.4-0.6-0.9-1.7-1.4c-1.6-0.6-3.7-1.1-6-1.2
					C176.7,94.3,176,94.3,175.3,94.3z"/>
			</g>
		</g>
		<g>
			<g>
				<path class="st9" d="M166.7,130.7c0,2.5-8.8,6.1-11.6,7.2c-0.3,0.1-0.5,0.1-0.8,0.1c-0.3,0-0.5-0.1-0.8-0.1
					c-2.7-1.1-11.6-4.6-11.6-7.2c0-0.7,0.3-1.4,1.1-1.8c1.9-1.2,5.6-1.2,10.3-1.2h1.9c4.7,0,8.4,0,10.3,1.2
					C166.3,129.4,166.7,130,166.7,130.7z"/>
			</g>
		</g>
		<g>
			<path class="st0" d="M128.7,115.8h-52c2.9-7.5,13.5-13,26-13C115.3,102.8,125.8,108.4,128.7,115.8z"/>
			<g>
				<path class="st9" d="M128.7,116.8h-52c-0.4,0-0.9-0.2-1.2-0.4c-0.3-0.2-0.4-0.6-0.3-0.8c3.2-8.1,14.5-13.7,27.4-13.7
					s24.3,5.6,27.4,13.7c0.1,0.3,0,0.6-0.3,0.8C129.7,116.6,129.1,116.8,128.7,116.8z M78.8,114.8h48c-3.5-6.5-13-11-24-11
					S82.2,108.3,78.8,114.8z"/>
			</g>
		</g>
		<g>
			<path class="st0" d="M128.7,124.1h-52c2.9,7.5,13.5,13,26,13C115.3,137.1,125.8,131.5,128.7,124.1z"/>
			<g>
				<path class="st9" d="M102.7,138c-13,0-24.3-5.6-27.4-13.7c-0.1-0.3,0-0.6,0.3-0.8c0.3-0.2,0.7-0.4,1.2-0.4h52
					c0.4,0,0.9,0.2,1.2,0.4c0.3,0.2,0.4,0.6,0.3,0.8C127,132.4,115.7,138,102.7,138z M78.8,125.1c3.5,6.5,13,11,24,11
					s20.5-4.5,24-11H78.8z"/>
			</g>
		</g>
		<g>
			<path class="st0" d="M232,115.8h-52c2.9-7.5,13.5-13,26-13C218.7,102.8,229.2,108.4,232,115.8z"/>
			<g>
				<path class="st9" d="M232,116.8h-52c-0.4,0-0.9-0.2-1.2-0.4c-0.3-0.2-0.4-0.6-0.3-0.8c3.2-8.1,14.5-13.7,27.4-13.7
					c13,0,24.3,5.6,27.4,13.7c0.1,0.3,0,0.6-0.3,0.8C233,116.6,232.6,116.8,232,116.8z M182.1,114.8h48c-3.5-6.5-13-11-24-11
					C195.1,103.8,185.6,108.3,182.1,114.8z"/>
			</g>
		</g>
		<g>
			<path class="st0" d="M232,124.1h-52c2.9,7.5,13.5,13,26,13C218.7,137.1,229.2,131.5,232,124.1z"/>
			<g>
				<path class="st9" d="M206.1,138c-13,0-24.3-5.6-27.4-13.7c-0.1-0.3,0-0.6,0.3-0.8c0.3-0.2,0.7-0.4,1.2-0.4h52
					c0.4,0,0.9,0.2,1.2,0.4c0.3,0.2,0.4,0.6,0.3,0.8C230.4,132.4,219.1,138,206.1,138z M182.1,125.1c3.5,6.5,13,11,24,11
					c11,0,20.5-4.5,24-11H182.1z"/>
			</g>
		</g>
		<g>
			<g>
				<path class="st9" d="M160.9,149.8c-0.6,0-1.2-0.2-1.5-0.7c-0.3-0.5,0.1-1.1,0.9-1.3c8-1.9,15.4-4.9,21.6-8.7
					c0.6-0.4,1.6-0.4,2.2,0c0.6,0.4,0.6,1,0,1.4c-6.4,4-14.2,7.1-22.6,9.1C161.2,149.7,161.1,149.8,160.9,149.8z"/>
			</g>
			<g>
				<path class="st9" d="M187.1,142c-0.3,0-0.6-0.1-0.9-0.2c-2.6-1.1-6-1.4-9-1c-0.8,0.1-1.6-0.2-1.8-0.7c-0.2-0.6,0.3-1.1,1.1-1.2
					c3.9-0.6,7.9-0.1,11.3,1.3c0.7,0.3,0.9,0.9,0.4,1.3C188.1,141.8,187.6,142,187.1,142z"/>
			</g>
		</g>
	</g>
	<g>
		<g>
			<path class="st4" d="M84.4,218.6c0.3,1.4,1.1,2.8,2.6,3.8c1.5,1,3.8,1.7,5.9,1.4c2.2-0.3,4-1.5,3.9-3c1.3,1.3,3.6,2.2,6,2
				c2.4-0.1,4.7-1.2,5.3-2.6s-0.3-3.2-2.2-4c1.8,0.3,3.9-0.3,4.9-1.3c1-1,1.1-2.4,0.3-3.5c-2.7-3.3-7-4.2-9.9-4.3
				C94.7,206.9,83,211,84.4,218.6z"/>
			<path class="st5" d="M91.8,224.8c-2.2,0-4.3-0.6-6-1.7c-1.6-1.1-2.7-2.7-3-4.3c-0.8-4,2-6.9,4.4-8.5c4.2-2.9,10.2-4.1,13.9-4
				c1.7,0.1,7.8,0.6,11.2,4.8c1.1,1.4,1,3.2-0.3,4.4c-0.7,0.7-1.8,1.3-3,1.5c0.9,1.1,1.1,2.3,0.5,3.5c-0.9,1.8-3.7,3.2-6.7,3.3
				c-1.9,0.1-3.8-0.3-5.3-1.1c-0.9,1-2.4,1.8-4.3,2C92.7,224.7,92.2,224.8,91.8,224.8z M100.6,208.1c-3.1,0-7.8,1.2-11.1,3.4
				c-2,1.4-4.2,3.6-3.5,6.9l0,0c0.3,1.3,1,2.4,2.2,3.3c1.2,0.8,3,1.3,4.5,1.1c1.5-0.2,2.7-1.1,2.6-1.9c0-0.4,0.4-0.8,1-1
				c0.7-0.1,1.4,0.1,1.7,0.4c1,1,2.8,1.7,4.7,1.6c1.8-0.1,3.5-0.9,4.1-1.9c0.5-1.1-0.2-2.3-1.6-2.9c-0.7-0.2-0.9-0.8-0.6-1.2
				c0.3-0.4,1-0.7,1.8-0.6c1.1,0.2,2.5-0.2,3.3-0.9c0.7-0.7,0.8-1.7,0.2-2.5c-2.8-3.4-7.3-3.8-8.6-3.8
				C100.8,208.1,100.8,208.1,100.6,208.1z"/>
		</g>
	</g>
	<g>
		<g>
			<path class="st4" d="M223.8,218.6c-0.3,1.4-1.1,2.8-2.6,3.8c-1.5,1-3.8,1.7-5.9,1.4c-2.2-0.3-4-1.5-3.9-3c-1.3,1.3-3.6,2.2-6,2
				c-2.4-0.1-4.7-1.2-5.3-2.6s0.3-3.2,2.2-4c-1.8,0.3-3.9-0.3-4.9-1.3c-1-1-1.1-2.4-0.3-3.5c2.7-3.3,7-4.2,9.9-4.3
				C213.4,206.9,225.1,211,223.8,218.6z"/>
			<path class="st5" d="M216.3,224.8c-0.4,0-0.9-0.1-1.4-0.1c-1.8-0.2-3.5-1-4.3-2c-1.6,0.8-3.5,1.2-5.3,1.1c-3-0.1-5.9-1.4-6.7-3.3
				c-0.6-1.2-0.3-2.5,0.5-3.5c-1.2-0.3-2.2-0.8-3-1.5c-1.3-1.3-1.5-3-0.3-4.4c3.5-4.3,9.5-4.8,11.2-4.8c3.7-0.1,9.6,1.1,13.9,4
				c2.4,1.7,5.1,4.5,4.4,8.5l0,0c-0.3,1.7-1.4,3.2-3,4.3C220.7,224.1,218.5,224.8,216.3,224.8z M211.4,219.8c0.2,0,0.3,0,0.4,0.1
				c0.7,0.1,1.1,0.6,1,1c-0.1,0.9,1.1,1.8,2.6,1.9c1.5,0.2,3.3-0.2,4.5-1.1c1.2-0.8,2-1.9,2.2-3.3c0.6-3.3-1.6-5.6-3.5-6.9
				c-3.5-2.4-8.4-3.5-11.5-3.4c-1.4,0.1-6,0.4-8.6,3.8c-0.6,0.8-0.6,1.8,0.2,2.5c0.7,0.7,2.1,1.1,3.3,0.9c0.7-0.1,1.5,0.1,1.8,0.6
				c0.3,0.4,0,0.9-0.6,1.2c-1.4,0.6-2.2,1.8-1.6,2.9c0.5,1.1,2.2,1.9,4.1,1.9c1.8,0.1,3.6-0.6,4.7-1.6
				C210.4,219.9,210.9,219.8,211.4,219.8z M223.8,218.6L223.8,218.6L223.8,218.6z"/>
		</g>
	</g>
</g>
</svg>
