<?xml version="1.0" encoding="utf-8"?>
<!-- Generator: Adobe Illustrator 25.2.1, SVG Export Plug-In . SVG Version: 6.00 Build 0)  -->
<svg version="1.1" id="Layer_1" xmlns="http://www.w3.org/2000/svg" xmlns:xlink="http://www.w3.org/1999/xlink" x="0px" y="0px"
	 viewBox="0 0 118 123" style="enable-background:new 0 0 118 123;" xml:space="preserve">
<style type="text/css">
	.st0{opacity:0.15;}
	.st1{fill:#010101;}
	.st2{fill:#2F141B;}
	.st3{fill:#E29227;}
	.st4{opacity:0.25;}
	.st5{fill:#F7E3CF;}
	.st6{fill:#F9AF8A;}
	.st7{fill:#5F2332;}
	.st8{opacity:0.3;}
</style>
<g class="st0">
	<ellipse class="st1" cx="58.5" cy="109.1" rx="36.1" ry="8.9"/>
</g>
<g>
	<g>
		<path class="st2" d="M93.8,111.5c-3.4,0-6.8-0.7-9.3-2c-0.2-0.1-0.4-0.3-0.5-0.5c-3-5.5-1.9-6.6-1.5-7c0.7-0.7,1.7-0.6,3.1,0.1
			c3.7,2.1,9.8,2.4,13.3-1c3.4-3.3,2.5-9.7,0.2-12.4c-0.5-0.6-1-1.2-1.4-1.7c-1.8-2.5-2.1-4.6-1.1-6.8c1.3-3,6.4-5.5,10.1-4.1
			c0.5,0.2,1.1,0.5,1.6,0.8c2.2,1.4,4.8,4.6,4.8,11.5c0,6.7-2.8,15.8-8.2,19.9C102,110.5,97.8,111.5,93.8,111.5z M85.9,107.5
			c4.8,2.2,13.1,2.2,17.4-1.2c4.7-3.6,7.2-12,7.2-18c0-4.5-1.3-7.9-3.6-9.4c-0.3-0.2-0.7-0.4-1.1-0.5c-2.5-1-6.2,1-6.9,2.7
			c-0.5,1.2-0.6,2.3,0.9,4.4c0.3,0.5,0.7,1,1.2,1.5c2.9,3.4,4.2,11.4-0.4,15.8c-4.3,4.1-11.3,4.1-15.9,1.6
			C84.9,105.3,85.4,106.4,85.9,107.5z"/>
	</g>
	<g>
		<path class="st3" d="M111.7,88.3c0,6.3-2.6,15-7.7,19c-5,3.9-14.1,3.6-19,1.2c0,0-0.5-0.8-0.9-1.9c-0.9-2.1-1.9-4.9,0.8-3.3
			c4,2.3,10.8,2.7,14.8-1.2c4-3.9,2.9-11.1,0.3-14.1c-0.5-0.6-0.9-1.1-1.3-1.6c-1.5-2.2-1.8-3.8-1-5.6c1-2.3,5.3-4.6,8.5-3.4
			c0.5,0.2,0.9,0.4,1.3,0.7c1,0.7,1.9,1.6,2.6,2.9C111.1,82.6,111.7,85.1,111.7,88.3z"/>
	</g>
	<g class="st4">
		<path class="st1" d="M111.7,88.3c0,6.3-2.6,15-7.7,19c-5,3.9-14.1,3.6-19,1.2c0,0-0.5-0.8-0.9-1.9l3.7-2.1c0,0,0.5,0.9,0.7,2.4
			c0.1,0.5,0.5,1,1.1,1c2,0.2,6.7,0.3,11-2.2c5.6-3.2,8.5-10.8,9.3-18c0.3-2.8,0.4-5.1,0.4-6.9C111.1,82.6,111.7,85.1,111.7,88.3z"
			/>
	</g>
	<g>
		<path class="st2" d="M57.8,114.5c-10.5,0-19-0.6-23.7-1.7c-1.8-0.4-3.1-0.9-3.8-1.5c0,0,0,0,0,0c-3.7-2.7-2.7-10.7-0.8-16.7
			c2.3-7.1,4.9-11,5.1-11.2c0.2-0.3,0.6-0.5,1-0.5H80c0.4,0,0.8,0.2,1,0.5c0.1,0.2,2.8,4,5.1,11.2c1.9,6,2.9,14-0.8,16.7
			c-0.8,0.6-2,1.1-3.9,1.5C76.8,113.9,68.3,114.5,57.8,114.5z M31.7,109.3c0.3,0.2,1,0.6,2.9,1c4.5,1,13,1.6,23.2,1.6
			c10.2,0,18.6-0.6,23.2-1.6c1.9-0.4,2.6-0.8,2.9-1c1.7-1.3,2.2-6.6-0.1-13.9c-1.7-5.3-3.6-8.7-4.4-10H36.2c-0.8,1.3-2.7,4.7-4.4,10
			C29.5,102.7,30,108,31.7,109.3L31.7,109.3z"/>
	</g>
	<g>
		<path class="st3" d="M31,110.3c0.6,0.5,1.8,0.9,3.4,1.3c4.7,1.1,13.2,1.7,23.5,1.7c10.3,0,18.8-0.6,23.5-1.7c0.1,0,0.2,0,0.3-0.1
			h0c1.4-0.3,2.5-0.7,3.1-1.2c2.5-1.9,2.6-8.3,0.3-15.3c-1.3-4.1-2.7-7-3.7-8.8c0,0,0,0,0,0c-0.7-1.3-1.2-2-1.2-2H35.5
			c0,0-2.6,3.8-4.9,10.8C28.4,102,28.4,108.4,31,110.3z"/>
	</g>
	<g>
		<path class="st5" d="M29,104.1c6.7-1.8,5.5-8.8,2.7-12.1c-0.4,0.9-0.7,1.9-1.1,3C29.6,98.3,29,101.5,29,104.1z"/>
	</g>
	<g>
		<path class="st5" d="M34.3,111.6c4.7,1.1,13.2,1.7,23.5,1.7c10.3,0,18.8-0.6,23.5-1.7c-4.7-12-12.4-15.3-23.5-15.3
			C46.7,96.3,39,99.6,34.3,111.6z"/>
	</g>
	<g class="st4">
		<path class="st1" d="M31,110.3c0.6,0.5,1.8,0.9,3.4,1.3c4.7,1.1,13.2,1.7,23.5,1.7c10.5,0,19.1-0.6,23.7-1.8c0,0,0,0,0,0
			c-8,0.7-17.8,0.6-25.7-0.3c-12.3-1.4-19.9-3-19.8-9.2c0.1-4.2,1.4-7.7,2.2-9.4c0.3-0.8,1.2-1.2,2-1.1c3.2,0.5,11.8,1.6,19,1.2
			c9.1-0.4,17.7-2.7,22-6.6c0,0,0,0,0,0c-0.1,0-2.4-0.9-5.6-2H35.5c0,0-2.6,3.8-4.9,10.8C28.4,102,28.4,108.4,31,110.3z"/>
	</g>
	<g>
		<path class="st3" d="M53.3,94c-0.1,0.3-0.2,0.7-0.3,1c-1.2,5.2-1.3,10.2-1.6,13.4c-0.1,1.2-0.3,2.2-0.6,3.1h0
			c-0.6,1.7-1.7,2.7-3.9,2.8c-1.8,0-3.6-0.3-4.9-1.8c0-0.1-0.1-0.1-0.1-0.2c0,0,0,0,0,0c-1-1.3-1.6-3.4-1.5-6.8
			c0.2-7.7,1.2-10.9,1.2-10.9l11-0.6l0.2,0L53.3,94z"/>
	</g>
	<g>
		<path class="st5" d="M50.8,111.6c-0.6,1.7-1.7,2.7-3.9,2.8c-1.9,0-3.8-0.3-5-2c0,0,0,0,0,0C43.3,110.2,48.1,109.5,50.8,111.6z"/>
	</g>
	<g class="st4">
		<path class="st1" d="M53,95c-1.2,5.2-1.3,10.2-1.6,13.4c-0.1,1.2-0.3,2.2-0.6,3.1h0c-0.6,1.7-1.7,2.7-3.9,2.8
			c-1.8,0-3.6-0.3-4.9-1.8c1.7,0.4,3.5,0.3,4.5-0.4c1.9-1.5,2-3.1,2.7-6.6c0.6-3.4,1.6-7.9,3.4-11.5c0-0.1,0.1-0.2,0.1-0.2
			c0,0,0,0.1,0.1,0.2C52.8,94.2,52.9,94.6,53,95z"/>
	</g>
	<g>
		<path class="st2" d="M46.5,115c-1.4,0-3.2-0.2-4.7-1.6c-1.5-1.5-2.2-4.1-2.1-7.8c0.2-7.7,1.2-10.9,1.3-11.1
			c0.1-0.3,0.5-0.5,0.8-0.4c0.3,0.1,0.5,0.5,0.4,0.8c0,0-1,3.2-1.2,10.7c-0.1,3.3,0.5,5.6,1.8,6.9c0.9,0.9,2.2,1.3,4.1,1.3
			c2.5-0.1,3.6-1.5,3.9-5.4c0.1-0.8,0.1-1.8,0.2-2.8c0.2-3.3,0.5-7.4,1.6-11.7c0.1-0.3,0.4-0.5,0.8-0.4c0.3,0.1,0.5,0.4,0.4,0.8
			c-1.1,4.2-1.4,8.2-1.6,11.5c-0.1,1-0.1,2-0.2,2.8c-0.3,3.3-1.2,6.4-5.2,6.5C46.8,115,46.7,115,46.5,115z"/>
	</g>
	<g>
		<path class="st2" d="M20.1,38.9c-0.1,0-0.2,0-0.3,0c-0.4-0.1-0.6-0.4-0.8-0.7c-0.1-0.1-1.6-3.5-2.5-10.7
			c-1.1-7.9-0.4-17.7,5.1-19.3c5.4-1.5,11,5.5,17.9,16.5c0.4,0.6,0.2,1.3-0.4,1.7L20.8,38.7C20.6,38.8,20.4,38.9,20.1,38.9z
			 M23,10.5c-0.2,0-0.5,0-0.7,0.1c-3.5,1-4.3,9-3.3,16.5c0.6,4.2,1.3,7,1.8,8.5L36.7,25C33.6,20.2,27.3,10.5,23,10.5z"/>
	</g>
	<g>
		<path class="st2" d="M95.4,38.9c-0.2,0-0.5-0.1-0.7-0.2L76.5,26.4c-0.6-0.4-0.7-1.1-0.4-1.7C83,13.7,88.7,6.7,94,8.2
			c5.5,1.5,6.2,11.3,5.1,19.3c-1,7.2-2.5,10.5-2.5,10.7c-0.2,0.3-0.4,0.6-0.8,0.7C95.7,38.9,95.6,38.9,95.4,38.9z M78.9,25
			l15.9,10.7c0.5-1.5,1.2-4.3,1.8-8.5c1-7.5,0.2-15.5-3.3-16.5C89,9.4,82.1,19.9,78.9,25z"/>
	</g>
	<g>
		<path class="st2" d="M57.8,90.3c-15.8,0-28.4-4.4-36.3-12.8c-6.1-6.4-9.3-15.2-8.9-24.1c0.5-11.1,3.8-18.9,10-23.9
			c1.8-1.4,3.9-2.7,6.2-3.7c0.7-0.3,1.5-0.6,2.2-0.9c7.4-2.8,15.9-4,26.8-4c10.9,0,19.4,1.3,26.8,4.1c0.7,0.3,1.5,0.6,2.2,0.9
			c2.3,1,4.4,2.2,6.2,3.7c6.2,5,9.5,12.8,10,23.9c0.4,8.9-2.8,17.7-8.9,24.1C86.2,85.9,73.6,90.3,57.8,90.3z M57.8,23.4
			c-10.6,0-18.8,1.2-25.9,3.9c-0.7,0.3-1.4,0.5-2.1,0.8c-2.1,0.9-4,2-5.6,3.3c-5.6,4.5-8.6,11.7-9.1,22.1
			c-0.4,8.2,2.6,16.3,8.2,22.2c7.4,7.8,19.4,12,34.5,12c15.1,0,27.1-4.1,34.5-12c5.6-5.9,8.6-14,8.2-22.2C100,43.2,97,36,91.4,31.5
			c-1.6-1.3-3.5-2.4-5.6-3.3c-0.7-0.3-1.4-0.6-2.1-0.8C76.6,24.7,68.3,23.4,57.8,23.4z"/>
	</g>
	<g>
		<path class="st3" d="M17.7,27.3c0.5,3.4,1,5.9,1.5,7.6c0.5,1.8,0.9,2.7,0.9,2.7l2-1.3l16.3-10.9c-0.2-0.4-0.5-0.8-0.7-1.1
			C31.9,15.2,26.4,8.2,21.9,9.4c-1.4,0.4-2.5,1.6-3.2,3.2c0,0,0,0,0,0C17.1,16.4,17,22.4,17.7,27.3z"/>
	</g>
	<g>
		<path class="st3" d="M77.2,25.4c6-9.6,11.8-17.3,16.5-16c4.7,1.3,5.2,10.8,4.2,17.9c-1,7.1-2.4,10.3-2.4,10.3L77.2,25.4z"/>
	</g>
	<g>
		<path class="st3" d="M57.8,89c0.4,0,0.9,0,1.3,0c0.2,0,0.4,0,0.6,0c0.2,0,0.4,0,0.7,0c0.4,0,0.8,0,1.2,0c0.2,0,0.5,0,0.7,0
			c0.2,0,0.5,0,0.7,0c0.2,0,0.5,0,0.7-0.1c0.2,0,0.5,0,0.7-0.1c0.3,0,0.6-0.1,0.9-0.1c0.4,0,0.7-0.1,1.1-0.1c0,0,0.1,0,0.1,0
			c0.2,0,0.4-0.1,0.7-0.1c0.4-0.1,0.9-0.1,1.3-0.2c0.2,0,0.4-0.1,0.6-0.1c0.5-0.1,0.9-0.1,1.4-0.2c0.2,0,0.4-0.1,0.6-0.1
			c0.2,0,0.4-0.1,0.6-0.1c0.2,0,0.4-0.1,0.6-0.1c0.2,0,0.4-0.1,0.6-0.1c0.2,0,0.4-0.1,0.6-0.1c0.2,0,0.4-0.1,0.6-0.1
			c0.8-0.2,1.5-0.4,2.3-0.6c0.2-0.1,0.4-0.1,0.6-0.2c0.2-0.1,0.5-0.1,0.7-0.2c0.1,0,0.3-0.1,0.4-0.1c0.6-0.2,1.2-0.4,1.8-0.7
			c0.1,0,0.2-0.1,0.3-0.1c1.4-0.5,2.7-1.1,3.9-1.8c0.1-0.1,0.2-0.1,0.3-0.2c0.1-0.1,0.3-0.1,0.4-0.2c0.6-0.4,1.3-0.7,1.9-1.1
			c0.1-0.1,0.2-0.1,0.3-0.2c0.1-0.1,0.3-0.2,0.4-0.3c0.1-0.1,0.3-0.2,0.4-0.3c0.2-0.1,0.3-0.2,0.5-0.3c0.2-0.2,0.4-0.3,0.7-0.5l0,0
			c9.8-7.2,13.3-17.9,12.9-26.9c-0.6-11.7-4.2-18.7-9.6-23c-1.8-1.4-3.8-2.6-5.9-3.5c-0.7-0.3-1.4-0.6-2.1-0.9c-8-3-16.8-4-26.4-4
			c-7.1,0-13.8,0.6-20.1,2.1c-2.1,0.5-4.2,1.1-6.3,1.9c-0.7,0.3-1.4,0.6-2.1,0.9c-2.1,0.9-4.1,2-5.9,3.5c-0.5,0.4-1.1,0.9-1.6,1.4
			c-0.5,0.5-1,1.1-1.5,1.7c-0.1,0.1-0.1,0.1-0.2,0.2v0c-0.3,0.4-0.6,0.7-0.9,1.1c-0.2,0.3-0.4,0.6-0.6,1c-0.1,0.1-0.2,0.3-0.3,0.4
			c-0.1,0.2-0.2,0.4-0.4,0.6c-0.2,0.3-0.4,0.6-0.5,1c-0.1,0.1-0.1,0.2-0.2,0.3c-0.1,0.1-0.1,0.3-0.2,0.4c0,0.1-0.1,0.2-0.1,0.3
			c-0.1,0.2-0.2,0.5-0.3,0.7c-0.1,0.1-0.1,0.2-0.1,0.4c-0.2,0.5-0.4,1-0.6,1.5c-0.1,0.2-0.2,0.5-0.2,0.7c0,0.1,0,0.1-0.1,0.2
			c-0.1,0.2-0.1,0.3-0.2,0.5c-0.1,0.4-0.2,0.7-0.3,1.1c0,0.2-0.1,0.3-0.1,0.5c-0.1,0.5-0.2,1.1-0.4,1.6c0,0.2-0.1,0.3-0.1,0.5
			c-0.1,0.3-0.1,0.6-0.2,0.9c0,0.2-0.1,0.3-0.1,0.5c-0.1,0.5-0.1,1-0.2,1.5c0,0.1,0,0.2,0,0.2c0,0.1,0,0.3-0.1,0.4
			c-0.1,0.6-0.1,1.2-0.2,1.9c0,0.1,0,0.3,0,0.4c0,0.4,0,0.8-0.1,1.2C13,69,23.9,89,57.8,89z"/>
	</g>
	<g>
		<ellipse class="st5" cx="57.8" cy="60" rx="9.3" ry="9.5"/>
	</g>
	<g>
		<path class="st2" d="M57.8,64.5c-0.3,0-0.6-0.3-0.6-0.6v-3.5c0-0.3,0.3-0.6,0.6-0.6s0.6,0.3,0.6,0.6v3.5
			C58.4,64.2,58.1,64.5,57.8,64.5z"/>
	</g>
	<g>
		<ellipse class="st6" cx="80.6" cy="60.4" rx="4.4" ry="1.7"/>
	</g>
	<g>
		<ellipse class="st6" cx="35" cy="60.4" rx="4.4" ry="1.7"/>
	</g>
	<g>
		<path class="st2" d="M107.4,71.5c-0.1,0-0.2,0-0.3-0.1l-15.5-8.1c-0.3-0.2-0.4-0.5-0.3-0.9c0.2-0.3,0.5-0.4,0.9-0.3l15.5,8.1
			c0.3,0.2,0.4,0.5,0.3,0.9C107.8,71.3,107.6,71.5,107.4,71.5z"/>
	</g>
	<g>
		<path class="st2" d="M109.9,60.6C109.9,60.6,109.9,60.6,109.9,60.6l-18.1-2.3c-0.3,0-0.6-0.4-0.5-0.7c0-0.3,0.4-0.6,0.7-0.5
			l18,2.3c0.3,0,0.6,0.4,0.5,0.7C110.5,60.4,110.3,60.6,109.9,60.6z"/>
	</g>
	<g>
		<path class="st2" d="M91.9,53.9c-0.3,0-0.5-0.2-0.6-0.5c-0.1-0.3,0.1-0.7,0.4-0.8l16.7-4.4c0.3-0.1,0.7,0.1,0.8,0.4
			c0.1,0.3-0.1,0.7-0.4,0.8l-16.7,4.4C92,53.9,92,53.9,91.9,53.9z"/>
	</g>
	<g>
		<path class="st2" d="M8.2,71.5c-0.2,0-0.4-0.1-0.6-0.3c-0.2-0.3,0-0.7,0.3-0.9l15.5-8.1c0.3-0.2,0.7,0,0.9,0.3
			c0.2,0.3,0,0.7-0.3,0.9L8.5,71.4C8.4,71.4,8.3,71.5,8.2,71.5z"/>
	</g>
	<g>
		<path class="st2" d="M5.6,60.6c-0.3,0-0.6-0.2-0.6-0.6c0-0.3,0.2-0.7,0.5-0.7l18-2.3c0.3,0,0.7,0.2,0.7,0.5c0,0.3-0.2,0.7-0.5,0.7
			L5.6,60.6C5.7,60.6,5.7,60.6,5.6,60.6z"/>
	</g>
	<g>
		<path class="st5" d="M101,46.4c-10,10.7-26,11-32.8,5.4c-6.8-5.7-8.4-20.3-5.6-29.6c8.6,0.3,16.5,1.7,23.7,4.7
			C93.4,30,98.9,35.6,101,46.4z"/>
	</g>
	<g>
		<path class="st2" d="M23.6,53.9c-0.1,0-0.1,0-0.2,0L6.8,49.4c-0.3-0.1-0.5-0.4-0.4-0.8c0.1-0.3,0.4-0.5,0.8-0.4l16.7,4.4
			c0.3,0.1,0.5,0.4,0.4,0.8C24.2,53.7,23.9,53.9,23.6,53.9z"/>
	</g>
	<g>
		<path class="st2" d="M23.4,31.8c-0.2,0-0.3,0-0.5-0.1c-0.4-0.2-0.7-0.6-0.8-1c-0.4-3.1-0.5-6.1-0.3-8.5c0.2-3.1,0.8-4.6,1.9-5
			c1.2-0.5,2.7,0.3,4.6,2.3c1.6,1.7,3.1,3.9,4.3,6.2c0.2,0.3,0.2,0.7,0,1c-0.1,0.3-0.4,0.6-0.7,0.7c-0.7,0.3-1.4,0.5-2.1,0.8
			c-2.1,0.9-4,2-5.6,3.3C23.9,31.7,23.7,31.8,23.4,31.8z M24.7,19.6c-0.4,1.1-0.7,4-0.3,8.6c1.3-0.9,2.8-1.7,4.4-2.3
			c0.3-0.1,0.6-0.2,0.8-0.4C27.8,22.2,25.7,20.2,24.7,19.6z"/>
	</g>
	<g>
		<path class="st2" d="M92.2,31.8c-0.3,0-0.6-0.1-0.8-0.3c-1.6-1.3-3.5-2.4-5.6-3.3c-0.7-0.3-1.4-0.6-2.1-0.8
			c-0.3-0.1-0.6-0.4-0.7-0.7c-0.1-0.3-0.1-0.7,0-1c1.2-2.3,2.7-4.6,4.3-6.2c1.9-2,3.4-2.7,4.6-2.3c1.1,0.5,1.7,2,1.9,5
			c0.2,2.4,0,5.4-0.3,8.5c-0.1,0.5-0.4,0.8-0.8,1C92.5,31.7,92.4,31.8,92.2,31.8z M86,25.5c0.3,0.1,0.6,0.2,0.8,0.4
			c1.6,0.7,3,1.5,4.4,2.3c0.4-4.5,0.1-7.5-0.3-8.6C89.9,20.2,87.8,22.2,86,25.5z"/>
	</g>
	<g>
		<path class="st7" d="M23.4,30.5c1.8-1.4,3.8-2.6,5.9-3.5c0.7-0.3,1.4-0.6,2.1-0.9c-2.4-4.8-6.1-8.4-7.3-7.9
			C23,18.7,22.6,24.2,23.4,30.5z"/>
	</g>
	<g class="st8">
		<path class="st1" d="M23.3,20c1.5,0.8,4,3.6,5.9,7c0,0,0,0,0.1,0c0.7-0.3,1.4-0.6,2.1-0.9c-2.4-4.8-6.1-8.4-7.3-7.9
			C23.8,18.4,23.5,19,23.3,20z"/>
	</g>
	<g>
		<path class="st7" d="M84.2,26.2c0.7,0.3,1.4,0.6,2.1,0.9c2.1,0.9,4.1,2,5.9,3.5c0.8-6.2,0.4-11.7-0.8-12.2
			C90.2,17.8,86.6,21.4,84.2,26.2z"/>
	</g>
	<g class="st8">
		<path class="st1" d="M90.5,29.2c0.6,0.4,1.2,0.8,1.7,1.3c0.8-6.2,0.4-11.7-0.8-12.2c-0.4-0.2-1,0.1-1.7,0.6
			C90.6,19.8,90.9,24.1,90.5,29.2z"/>
	</g>
	<g>
		<path class="st2" d="M57.8,54.1c-3.7,0-3.5,1.5-3.1,3.1c0.4,1.5,1.3,3.6,3.1,3.6s2.7-2,3.1-3.6C61.2,55.6,61.5,54.1,57.8,54.1z"/>
	</g>
	<g class="st4">
		<path class="st1" d="M57.8,89c0.4,0,0.9,0,1.3,0c0.2,0,0.4,0,0.6,0c0.2,0,0.4,0,0.7,0c0.4,0,0.8,0,1.2,0c0.2,0,0.5,0,0.7,0
			c0.2,0,0.5,0,0.7,0c0.2,0,0.5,0,0.7-0.1c0.2,0,0.5,0,0.7-0.1c0.3,0,0.6-0.1,0.9-0.1c0.4,0,0.7-0.1,1.1-0.1c0,0,0.1,0,0.1,0
			c0.2,0,0.4-0.1,0.7-0.1c0.4-0.1,0.9-0.1,1.3-0.2c0.2,0,0.4-0.1,0.6-0.1c0.5-0.1,0.9-0.1,1.4-0.2c0.2,0,0.4-0.1,0.6-0.1
			c0.2,0,0.4-0.1,0.6-0.1c0.2,0,0.4-0.1,0.6-0.1c0.2,0,0.4-0.1,0.6-0.1c0.2,0,0.4-0.1,0.6-0.1c0.2,0,0.4-0.1,0.6-0.1
			c0.8-0.2,1.5-0.4,2.3-0.6c0.2-0.1,0.4-0.1,0.6-0.2c0.2-0.1,0.5-0.1,0.7-0.2c0.1,0,0.3-0.1,0.4-0.1c0.6-0.2,1.2-0.4,1.8-0.7
			c0.1,0,0.2-0.1,0.3-0.1c1.4-0.5,2.7-1.1,3.9-1.8c0.1-0.1,0.2-0.1,0.3-0.2c0.1-0.1,0.3-0.1,0.4-0.2c0.6-0.4,1.3-0.7,1.9-1.1
			c0.1-0.1,0.2-0.1,0.3-0.2c0.1-0.1,0.3-0.2,0.4-0.3c0.1-0.1,0.3-0.2,0.4-0.3c0.2-0.1,0.3-0.2,0.5-0.3c0.2-0.2,0.4-0.3,0.7-0.5
			c-6.5,3.2-14.9,5.2-25.6,5.2c-33.9,0-44.7-20-44-35.5c0.3-5.6,1.3-10.2,2.8-13.9c0.3-0.6,0.5-1.2,0.8-1.8c0.1-0.1,0.1-0.3,0.2-0.4
			c-0.2-0.3-0.5-0.6-0.7-1.2c-0.2-0.3-0.4-0.7-0.6-1.1c-2.9-5.5-4.4-14.7-3.1-19.2c0,0,0,0,0,0c-1.6,3.7-1.6,9.7-1,14.6
			c0.5,3.4,1,5.9,1.5,7.6c-0.2,0.3-0.4,0.6-0.6,1c-0.1,0.1-0.2,0.3-0.3,0.4c-0.1,0.2-0.2,0.4-0.4,0.6c-0.2,0.3-0.4,0.6-0.5,1
			c-0.1,0.1-0.1,0.2-0.2,0.3c-0.1,0.1-0.1,0.3-0.2,0.4c0,0.1-0.1,0.2-0.1,0.3c-0.1,0.2-0.2,0.5-0.3,0.7c-0.1,0.1-0.1,0.2-0.1,0.4
			c-0.2,0.5-0.4,1-0.6,1.5c-0.1,0.2-0.2,0.5-0.2,0.7c0,0.1,0,0.1-0.1,0.2c-0.1,0.2-0.1,0.3-0.2,0.5c-0.1,0.4-0.2,0.7-0.3,1.1
			c0,0.2-0.1,0.3-0.1,0.5c-0.1,0.5-0.2,1.1-0.4,1.6c0,0.2-0.1,0.3-0.1,0.5c-0.1,0.3-0.1,0.6-0.2,0.9c0,0.2-0.1,0.3-0.1,0.5
			c-0.1,0.5-0.1,1-0.2,1.5c0,0.1,0,0.2,0,0.2c0,0.1,0,0.3-0.1,0.4c-0.1,0.6-0.1,1.2-0.2,1.9c0,0.1,0,0.3,0,0.4c0,0.4,0,0.8-0.1,1.2
			C13,69,23.9,89,57.8,89z M20.3,33.6c-0.1,0.1-0.1,0.1-0.2,0.2C20.1,33.7,20.2,33.6,20.3,33.6z"/>
	</g>
	<g class="st4">
		<path class="st1" d="M20.1,33.8c0.1-0.1,0.1-0.1,0.2-0.2C20.2,33.6,20.1,33.7,20.1,33.8z"/>
	</g>
	<g class="st4">
		<path class="st1" d="M20.1,33.8c0.1-0.1,0.1-0.1,0.2-0.2C20.2,33.6,20.1,33.7,20.1,33.8z"/>
	</g>
	<g>
		<path class="st2" d="M48.2,47.1c-0.3,0-0.6-0.3-0.6-0.6c0-2.9-2.3-5.2-5.2-5.2s-5.2,2.3-5.2,5.2c0,0.3-0.3,0.6-0.6,0.6
			s-0.6-0.3-0.6-0.6c0-3.6,2.8-6.5,6.4-6.5c3.6,0,6.4,2.8,6.4,6.5C48.8,46.8,48.5,47.1,48.2,47.1z"/>
	</g>
	<g>
		<path class="st2" d="M79,47.1c-0.3,0-0.6-0.3-0.6-0.6c0-2.9-2.3-5.2-5.2-5.2c-2.9,0-5.2,2.3-5.2,5.2c0,0.3-0.3,0.6-0.6,0.6
			c-0.3,0-0.6-0.3-0.6-0.6c0-3.6,2.8-6.5,6.4-6.5c3.6,0,6.4,2.8,6.4,6.5C79.6,46.8,79.4,47.1,79,47.1z"/>
	</g>
	<g>
		<path class="st3" d="M72.9,91.6l-4,3.9L62.2,94c-1.8-5.5-4.8-10-6.4-13c-0.6-1.1-1-2-1.2-2.9c0,0,0,0,0,0
			c-0.4-1.7-0.1-3.2,1.7-4.5c1.6-1.1,3.3-1.8,5.3-1.1v0c1.5,0.6,3.2,2,5,4.8c4.1,6.5,5,9.8,5,9.8C72.2,89,72.9,91.6,72.9,91.6z"/>
	</g>
	<g class="st4">
		<path class="st1" d="M65.9,77.2c1.9,2.8,3.6,9,4.3,13.1c0.8,4.1,0.9,6.6,0.9,6.6s1.9-2.1,1-6.5c-0.9-4.4-3-8.2-3-8.2
			s-2.3-4.1-2.4-4.2C66.7,77.9,65.9,77.2,65.9,77.2z"/>
	</g>
	<g>
		<path class="st5" d="M61.6,72.4L61.6,72.4c-0.1,2.6-3.6,5.8-7,5.6c0,0,0,0,0,0c-0.4-1.7-0.1-3.2,1.7-4.5
			C57.8,72.4,59.6,71.7,61.6,72.4z"/>
	</g>
	<g>
		<path class="st2" d="M62.2,94.6c-0.3,0-0.5-0.2-0.6-0.4c-1.4-4.1-3.4-7.6-5-10.5c-0.5-0.9-1-1.7-1.4-2.5c-1.6-2.9-2.5-6,0.7-8.3
			c1.2-0.8,2.9-1.8,5.1-1.4c2.1,0.4,4.1,2.2,6.1,5.3c4,6.3,5,9.6,5,9.9c0.7,2,1.3,4.5,1.4,4.6c0.1,0.3-0.1,0.7-0.4,0.8
			c-0.3,0.1-0.7-0.1-0.8-0.5c0,0-0.7-2.6-1.4-4.5c0,0,0,0,0,0c0,0-0.9-3.3-4.9-9.6c-1.8-2.8-3.5-4.4-5.3-4.7
			c-1.3-0.3-2.6,0.1-4.1,1.2c-2.1,1.5-2.2,3.2-0.3,6.7c0.4,0.7,0.9,1.6,1.4,2.4c1.6,2.9,3.7,6.5,5.1,10.7c0.1,0.3-0.1,0.7-0.4,0.8
			C62.3,94.6,62.2,94.6,62.2,94.6z"/>
	</g>
	<g>
		<path class="st7" d="M54.7,65.2c0.2,2.3,1.1,3.6,3.1,3.6c2,0,2.9-1.2,3.1-3.6c-1,0.3-2.3-0.1-3.1-1.4C57,65.1,55.7,65.4,54.7,65.2
			z"/>
	</g>
	<g>
		<path class="st5" d="M107.6,77.9c-1.4,3.2-4.6,6.6-8.8,8.4c-1.5-2.2-1.8-3.8-1-5.6c1-2.3,5.3-4.6,8.5-3.4
			C106.7,77.4,107.1,77.6,107.6,77.9z"/>
	</g>
	<g>
		<path class="st5" d="M86.6,104.1c-6.7-1.8-5.5-8.8-2.7-12.1c0.4,0.9,0.7,1.9,1.1,3C86,98.3,86.6,101.5,86.6,104.1z"/>
	</g>
	<g>
		<path class="st2" d="M60.2,65.9c-0.8,0-1.7-0.3-2.5-1c-1,1-2.3,1.2-3.2,1c-1.1-0.3-1.9-1-2.2-1.9c-0.1-0.3,0.1-0.7,0.4-0.8
			c0.3-0.1,0.7,0.1,0.8,0.4c0.2,0.5,0.7,0.9,1.3,1.1c0.9,0.2,1.8-0.2,2.4-1.1c0.1-0.2,0.3-0.3,0.5-0.3c0.2,0,0.4,0.1,0.5,0.3
			c0.6,0.9,1.5,1.3,2.4,1.1c0.6-0.1,1.1-0.6,1.3-1.1c0.1-0.3,0.5-0.5,0.8-0.4c0.3,0.1,0.5,0.5,0.4,0.8c-0.3,0.9-1.2,1.7-2.2,1.9
			C60.8,65.9,60.5,65.9,60.2,65.9z"/>
	</g>
</g>
</svg>
