<?xml version="1.0" encoding="utf-8"?>
<!-- Generator: Adobe Illustrator 25.2.1, SVG Export Plug-In . SVG Version: 6.00 Build 0)  -->
<svg version="1.1" id="Layer_1" xmlns="http://www.w3.org/2000/svg" xmlns:xlink="http://www.w3.org/1999/xlink" x="0px" y="0px"
	 viewBox="0 0 309 309" style="enable-background:new 0 0 309 309;" xml:space="preserve">
<style type="text/css">
	.st0{fill:#A36026;}
	.st1{fill:#5C2C0F;}
	.st2{fill:#F8B231;}
	.st3{fill:#F9C973;}
	.st4{fill:#DF7426;}
	.st5{fill:#53B953;}
	.st6{fill:#74C26A;}
	.st7{fill:#248140;}
	.st8{fill:#FFFFFF;}
	.st9{fill:#010101;}
	.st10{fill:#196734;}
</style>
<g>
	<g>
		<path class="st0" d="M218.4,185.7c0,38.5-38.4,66.6-65.5,66.6c-22.9,0-65.5-28.1-65.5-66.6c0-14.8,29.3-72.7,65.5-72.7
			C189.1,113,218.4,168.6,218.4,185.7z"/>
		<path class="st1" d="M152.9,253.4c-12.3,0-28.9-7.5-42.1-19.2c-15.8-13.8-24.6-31.1-24.6-48.5c0-14.9,29.1-73.8,66.7-73.8
			c36.7,0,66.7,55.7,66.7,73.8c0,17.8-8.2,35-22.9,48.5C183.6,246.1,166.8,253.4,152.9,253.4z M152.9,114.1
			c-35.5,0-64.4,57.6-64.4,71.6c0,37.9,42.3,65.6,64.4,65.6c25.9,0,64.4-27.5,64.4-65.6c0-8.1-7.1-26.1-19-42.2
			C190.1,132.6,173.4,114.1,152.9,114.1z"/>
	</g>
	<g>
		<path class="st2" d="M204.9,185.3c0,32.9-30.6,57-52,57c-18.2,0-52-24.1-52-57c0-12.7,23.3-62.2,52-62.2
			C181.6,123,204.9,170.6,204.9,185.3z"/>
		<path class="st3" d="M204.9,185.3c0,18.6-9.8,34.5-22.2,44.7c9.1-9.9,15.6-23.2,15.6-38.4c0-14.6-23.3-62.2-52-62.2
			c-7.6,0-14.7,3.4-21.2,8.7c8-8.7,17.6-15,27.9-15C181.6,123.1,204.9,170.6,204.9,185.3z"/>
		<g>
			<path class="st4" d="M152.9,243.4c-0.7,0-1.1-0.5-1.1-1.1V123.1c0-0.6,0.5-1.1,1.1-1.1c0.7,0,1.1,0.5,1.1,1.1v119.2
				C154,242.9,153.5,243.4,152.9,243.4z"/>
		</g>
		<g>
			<path class="st4" d="M153,154.7c-14.4,0-28.8-2.5-35.3-7.7c-0.5-0.4-0.5-1.1-0.2-1.5c0.4-0.5,1.1-0.5,1.6-0.2
				c12.2,9.6,55.4,9.6,68.1,0c0.5-0.4,1.3-0.3,1.6,0.2c0.4,0.5,0.3,1.2-0.2,1.5C181.9,152.1,167.4,154.7,153,154.7z"/>
		</g>
		<g>
			<path class="st4" d="M153,185.4c-20.3,0-40.5-3.6-49.7-10.8c-0.5-0.4-0.5-1.1-0.2-1.5c0.4-0.5,1.1-0.5,1.6-0.2
				c17.4,13.6,79,13.6,96.9,0c0.5-0.4,1.3-0.3,1.6,0.2c0.4,0.5,0.3,1.2-0.2,1.5C193.5,181.8,173.2,185.4,153,185.4z"/>
		</g>
		<g>
			<path class="st4" d="M153,216.5c-19.7,0-39.3-3.5-48.3-10.5c-0.5-0.4-0.5-1.1-0.2-1.5c0.4-0.5,1.1-0.5,1.6-0.2
				c16.9,13.2,76.6,13.2,94,0c0.5-0.4,1.3-0.3,1.6,0.2c0.4,0.5,0.3,1.2-0.2,1.5C192.4,213,172.6,216.5,153,216.5z"/>
		</g>
		<g>
			<path class="st4" d="M152.9,243.4c-9.8,0-23.1-6.4-33.7-16.5c-12.6-11.9-19.6-26.7-19.6-41.6c0-12.8,23.2-63.3,53.2-63.3
				c29.3,0,53.2,47.8,53.2,63.3c0,15.3-6.5,30.1-18.3,41.6C177.4,237.1,164,243.4,152.9,243.4z M152.9,124.2
				c-28,0-50.9,49.2-50.9,61.1c0,32.3,33.4,55.9,50.9,55.9c20.5,0,50.9-23.5,50.9-55.9C203.7,170.7,180.3,124.2,152.9,124.2z"/>
		</g>
	</g>
	<g>
		<g>
			<path class="st5" d="M215.2,89.9c7.7,31.6-25.7,44-64.3,44s-67.1-12.1-60.7-44c5.1-25.7,22.1-59.3,60.7-59.3
				C189.6,30.6,207.8,59.3,215.2,89.9z"/>
			<path class="st6" d="M203.4,121.8c4.7-6.4,6.4-14.5,3.9-24.5C199.9,66.7,181.7,38,143.1,38c-14.1,0-25.2,4.4-34,11.3
				c9.7-11,23.2-18.8,41.8-18.8c38.6,0,56.8,28.7,64.3,59.3C218.8,104.3,213.7,114.8,203.4,121.8z"/>
			<g>
				<path class="st7" d="M151,134.9c-26.8,0-46-5.8-55.6-16.8c-6.4-7.3-8.5-17-6.3-28.5c2.8-14.1,15.6-60.1,61.9-60.1
					c41.9,0,58.7,32.7,65.4,60.1l0,0c2.6,10.6,0.8,19.6-5.2,26.8C201.1,128.4,179.8,134.9,151,134.9z M151,31.7
					c-44.5,0-56.9,44.6-59.6,58.4c-2.1,10.9-0.2,19.9,5.7,26.7c9.1,10.5,27.8,16,53.8,16c27.7,0,48.9-6.4,58.4-17.7
					c5.6-6.7,7.2-15.1,4.8-25C207.6,63.5,191.4,31.7,151,31.7z"/>
			</g>
		</g>
		<g>
			<g>
				<ellipse class="st8" cx="102.4" cy="81.4" rx="21" ry="19.9"/>
				<path class="st9" d="M102.4,102.5c-12.2,0-22.2-9.4-22.2-21s10-21,22.2-21s22.2,9.4,22.2,21C124.6,93.1,114.6,102.5,102.4,102.5
					z M102.4,62.6c-11,0-19.8,8.5-19.8,18.8c0,10.4,8.9,18.8,19.8,18.8c11,0,19.8-8.5,19.8-18.8C122.3,71.1,113.4,62.6,102.4,62.6z"
					/>
			</g>
			<path class="st9" d="M120.3,81.4c0,6.6-5.6,11.9-12.5,11.9S95.2,88,95.2,81.4s5.6-11.9,12.5-11.9c3.5,0,6.7,1.4,9,3.6
				c-2.9,3.1-4.3,6.2-3.2,7.2c1,0.9,3.5,0,6.3-2C120.1,79.3,120.3,80.4,120.3,81.4z"/>
		</g>
		<g>
			<g>
				<ellipse class="st8" cx="200.9" cy="81.4" rx="21" ry="19.9"/>
				<path class="st9" d="M200.9,102.5c-12.2,0-22.2-9.4-22.2-21s10-21,22.2-21c12.2,0,22.2,9.4,22.2,21
					C223.1,93.1,213.1,102.5,200.9,102.5z M200.9,62.6c-11,0-19.8,8.5-19.8,18.8c0,10.4,8.9,18.8,19.8,18.8c11,0,19.8-8.5,19.8-18.8
					S211.8,62.6,200.9,62.6z"/>
			</g>
			<path class="st9" d="M208.1,81.4c0,6.6-5.6,11.9-12.5,11.9c-6.9,0-12.5-5.3-12.5-11.9s5.6-11.9,12.5-11.9c3.5,0,6.7,1.4,9,3.6
				c-2.9,3.1-4.3,6.2-3.2,7.2c1,0.9,3.5,0,6.3-2C207.9,79.3,208.1,80.4,208.1,81.4z"/>
		</g>
		<g>
			<path class="st7" d="M138.9,50.7c1,1.8-1.4,4.6-5.1,6.5c-3.8,1.9-7.6,1.9-8.5,0.2c-1-1.8,1.4-4.6,5.1-6.5
				C134.1,49.1,137.9,48.9,138.9,50.7z"/>
			<path class="st10" d="M128.3,59.7c-1.9,0-3.4-0.6-4.1-1.9c-0.7-1.2-0.4-2.8,0.9-4.4c1.1-1.4,2.7-2.7,4.7-3.6
				c4.5-2.2,8.8-2.1,10.1,0.3l0,0c1.3,2.4-1.1,5.8-5.6,8C132.1,59.2,130,59.7,128.3,59.7z M135.8,50.5c-1.3,0-3,0.4-5,1.3
				c-1.7,0.8-3.1,1.9-3.9,2.9c-0.7,0.8-1,1.6-0.7,2c0.5,0.9,3.5,1.1,7-0.7c3.6-1.8,5.1-4.1,4.6-5C137.6,50.8,136.9,50.5,135.8,50.5z
				"/>
		</g>
		<g>
			<path class="st7" d="M167.5,50.7c-1,1.8,1.4,4.6,5.1,6.5c3.8,1.9,7.6,1.9,8.5,0.2c1-1.8-1.4-4.6-5.1-6.5
				C172.3,49.1,168.4,48.9,167.5,50.7z"/>
			<path class="st10" d="M178.2,59.7c-1.8,0-3.9-0.5-6-1.6c-4.5-2.2-6.9-5.6-5.6-8l0,0c1.3-2.4,5.6-2.5,10.1-0.3
				c2,1,3.6,2.3,4.7,3.6c1.3,1.6,1.5,3.1,0.9,4.4C181.6,59.1,180.1,59.7,178.2,59.7z M168.6,51.2L168.6,51.2c-0.5,0.9,1.1,3.3,4.6,5
				c3.6,1.8,6.5,1.5,7,0.7c0.2-0.5-0.1-1.2-0.7-2c-0.8-1.1-2.3-2.1-3.9-2.9C172,50.1,169,50.3,168.6,51.2z"/>
		</g>
	</g>
	<g>
		<path class="st5" d="M132,250.5c0.5-6.3,1.4-12.5,2.9-18.6c1.2-4.8,1.2-9.8-4.2-12.5c-3.4-1.7-8.3-1.5-10.1,1.8
			c-2.2,4-3.8,8.4-5.1,12.6c-1.4,4.3-2.4,8.7-3.2,13.2c-0.2,1.1-1.8,12.4-1,12.7c-13.2-3.2-22.2,7.1-19.6,12.6
			c4.7,9.6,38.2,5.7,40.2,3.6C136,271.2,130.7,265.8,132,250.5z"/>
		<path class="st7" d="M112.1,279.5c-3.1,0-6.2-0.2-8.9-0.6c-6.9-1-11.1-3.1-12.6-6.3c-1.3-2.6-0.4-6,2.1-9
			c3.2-3.6,9.2-6.8,17.1-5.5c0-1.9,0.3-5.3,1.3-11.4c0.7-4.5,1.8-9,3.2-13.3c1.3-4,2.9-8.6,5.2-12.8c2.2-3.9,7.8-4.2,11.7-2.3
			c7.3,3.6,5.4,11.2,4.8,13.7c-1.3,5.4-2.3,11.5-2.8,18.4c-0.5,7,0.3,12,0.9,15.6c0.7,4.4,1.3,7.5-1.4,10.3
			C131.3,278,121.5,279.5,112.1,279.5z M106.2,260.1c-5.4,0-9.5,2.4-11.7,5c-2,2.3-2.7,4.9-1.8,6.7c1,2,3.6,3.5,7.7,4.4
			c11.4,2.6,29.1-0.1,30.6-1.2c1.9-2,1.5-4.4,0.8-8.5c-0.7-3.7-1.5-8.9-0.9-16.1l0,0c0.6-7.1,1.5-13.2,2.9-18.8
			c1.4-5.8,0.3-9.3-3.6-11.3c-3-1.5-7.1-1.3-8.6,1.4c-2.3,4-3.8,8.5-5.1,12.4c-1.4,4.2-2.4,8.6-3.1,13.1c-0.5,3.4-1.4,10.5-1.2,11.9
			c0.2,0.2,0.2,0.6,0.2,0.9c-0.2,0.6-0.8,1-1.4,0.8l0,0l0,0C109.2,260.3,107.6,260.1,106.2,260.1z"/>
	</g>
	<g>
		<path class="st5" d="M173.6,250.5c-0.5-6.3-1.4-12.5-2.9-18.6c-1.2-4.8-1.2-9.8,4.2-12.5c3.4-1.7,8.3-1.5,10.1,1.8
			c2.2,4,3.8,8.4,5.1,12.6c1.4,4.3,2.4,8.7,3.2,13.2c0.2,1.1,1.8,12.4,1,12.7c13.2-3.2,22.2,7.1,19.6,12.6
			c-4.7,9.6-38.2,5.7-40.2,3.6C169.5,271.2,174.8,265.8,173.6,250.5z"/>
		<path class="st7" d="M193.4,279.5c-9.4,0-19.1-1.5-20.5-3c-2.7-2.8-2.1-6-1.4-10.4c0.6-3.6,1.4-8.6,0.9-15.6l0,0
			c-0.5-7-1.5-13-2.8-18.4c-0.6-2.5-2.4-10.1,4.8-13.7c3.9-2,9.5-1.6,11.7,2.3c2.3,4.2,3.9,8.8,5.2,12.8c1.4,4.4,2.4,8.9,3.2,13.3
			c1,6.2,1.3,9.6,1.3,11.4c7.9-1.3,13.9,1.9,17.1,5.5c2.6,2.9,3.5,6.4,2.1,9c-1.5,3.2-5.8,5.3-12.6,6.3
			C199.6,279.3,196.5,279.5,193.4,279.5z M179.4,219.4c-1.3,0-2.7,0.3-3.9,0.9c-3.9,2-5,5.4-3.6,11.3c1.4,5.5,2.3,11.7,2.9,18.8l0,0
			c0.6,7.2-0.3,12.4-0.9,16.1c-0.7,4.2-1.1,6.5,0.8,8.6c1.4,1.1,19.1,3.7,30.5,1.1c4.2-1,6.8-2.4,7.7-4.4c0.9-1.8,0.2-4.4-1.8-6.7
			c-2.9-3.3-8.8-6.2-16.4-4.4l0,0c-0.6,0.2-1.3-0.2-1.4-0.8c-0.1-0.3,0-0.6,0.2-0.9c0.2-1.4-0.7-8.5-1.2-11.9
			c-0.7-4.4-1.7-8.8-3.1-13.1c-1.3-3.9-2.8-8.4-5.1-12.4C183.2,220.1,181.3,219.4,179.4,219.4z"/>
	</g>
	<g>
		<g>
			<path class="st5" d="M275.8,144c-0.7-2.9-3-5.3-5.7-6.7c-4.5-2.4-8.6-2.3-13.2-0.9c-0.1,0.1-0.2,0.1-0.3,0.1
				c0.5-1.7,0.5-3.6-0.1-5.6c-1.4-5-6.2-8.2-9.4-7.3c-3.2,0.8-2.2,5.1-0.8,10.1v0.1c1,3.5-1.3,6.7-4.8,8.1
				c-16.5,6.6-42.6,4-46.6,3.8c-3.4-0.2-8.5-1.7-10.5,2.1c-0.8,1.5-0.8,3.3-0.1,4.9c0.7,1.5,1.6,3.1,3.2,3.8
				c17.1,7.8,46.8,9.3,54.9,9.2c11.4-0.1,23.5-3.3,30.6-12.4C275.4,150.7,276.6,147.3,275.8,144z"/>
			<path class="st7" d="M242.1,166.8c-8.2,0-37.5-1.5-54.8-9.3c-2-0.9-3-2.7-3.8-4.4c-0.9-2-0.9-4.1,0.1-5.9c2-3.7,6.4-3.2,9.6-2.9
				c0.7,0.1,1.4,0.2,2,0.2c0.4,0,0.8,0.1,1.5,0.1c19.7,1.4,34.8,0.1,44.6-3.8c3.2-1.2,4.9-4.1,4.1-6.8c-0.8-3-1.4-5.1-1.4-7
				c-0.1-3.2,1.5-4.2,3-4.6c1.9-0.5,4.2,0.1,6.4,1.7c2.1,1.6,3.7,3.9,4.4,6.4c0.4,1.4,0.5,2.9,0.4,4.4c4.8-1.1,8.7-0.7,12.6,1.4
				c3.2,1.7,5.5,4.4,6.3,7.3l0,0c0.8,3.2-0.2,7-2.7,10.2c-6.4,8.1-17.6,12.7-31.5,12.8C242.5,166.8,242.3,166.8,242.1,166.8z
				 M189.8,146.4c-1.9,0-3.3,0.5-4.2,1.9c-0.7,1.1-0.7,2.7,0,4c0.7,1.4,1.4,2.7,2.6,3.3c17.3,7.9,47.3,9.2,54.4,9.1
				c7.7-0.1,21.8-1.8,29.7-12c2.1-2.7,3-5.8,2.3-8.4l0,0c-0.6-2.4-2.4-4.6-5.1-5.9c-3.8-2-7.4-2.2-12.3-0.8l-0.3,0.1
				c-0.4,0.1-0.8,0-1.1-0.2c-0.3-0.3-0.4-0.7-0.3-1.1c0.5-1.6,0.4-3.4-0.1-5c-0.6-2.1-1.9-4-3.6-5.3c-1.5-1.1-3.2-1.6-4.4-1.3
				c-0.4,0.1-1.3,0.3-1.3,2.4c0,1.8,0.7,4.2,1.3,6.3c1.1,3.9-1.1,7.8-5.4,9.5c-10.2,4-25.6,5.4-45.7,4c-0.7-0.1-1.1-0.1-1.5-0.1
				c-0.7-0.1-1.4-0.1-2.1-0.2C191.8,146.5,190.7,146.4,189.8,146.4z"/>
		</g>
		<g>
			<path class="st5" d="M269.3,141.7c-3.5,1.6-7.4,0.8-8.6-1.7c-1.3-2.5,0.6-5.8,4.1-7.4c3.5-1.6,7.4-0.8,8.6,1.7
				C274.7,136.8,272.8,140.1,269.3,141.7z"/>
			<path class="st7" d="M265.6,143.7c-2.6,0-5-1.1-6-3.1c-1.5-3.1,0.6-7.1,4.6-8.9c4.1-1.9,8.7-0.8,10.2,2.2c0.8,1.5,0.7,3.3-0.3,5
				c-0.9,1.6-2.4,3-4.4,3.8l0,0C268.4,143.4,266.9,143.7,265.6,143.7z M268.5,132.9c-1.1,0-2.2,0.2-3.3,0.7c-3,1.3-4.5,4-3.6,6
				c1,2,4.2,2.5,7.2,1.1l0,0c1.5-0.7,2.7-1.7,3.3-2.9c0.6-1.1,0.7-2.2,0.2-3.1C271.8,133.5,270.3,132.9,268.5,132.9z"/>
		</g>
		<g>
			<path class="st5" d="M271.3,159.5c-3.9,0-7.1-2.3-7.1-5c0-2.8,3.2-5,7.1-5c3.9,0,7.1,2.3,7.1,5
				C278.4,157.2,275.2,159.5,271.3,159.5z"/>
			<path class="st7" d="M271.3,160.6c-4.5,0-8.2-2.8-8.2-6.1c0-3.4,3.7-6.1,8.2-6.1c4.5,0,8.2,2.8,8.2,6.1
				C279.5,157.8,275.8,160.6,271.3,160.6z M271.3,150.5c-3.3,0-5.9,1.8-5.9,4c0,2.1,2.7,4,5.9,4c3.2,0,5.9-1.8,5.9-4
				C277.2,152.3,274.6,150.5,271.3,150.5z"/>
		</g>
		<g>
			<path class="st5" d="M272.2,149.7c-3.9,0.7-7.4-1-7.9-3.8c-0.5-2.7,2.2-5.5,6-6.2c3.9-0.7,7.4,1,7.9,3.8S276,149.1,272.2,149.7z"
				/>
			<path class="st7" d="M270.6,150.9c-3.7,0-6.9-1.9-7.4-4.8c-0.7-3.3,2.5-6.7,7-7.4s8.6,1.4,9.2,4.6c0.7,3.3-2.5,6.7-7,7.4l0,0
				C271.8,150.9,271.2,150.9,270.6,150.9z M272.2,149.7L272.2,149.7L272.2,149.7z M272,140.8c-0.5,0-1,0.1-1.5,0.1
				c-3.2,0.6-5.5,2.7-5.1,4.9c0.4,2.1,3.3,3.4,6.6,2.9c3.2-0.6,5.5-2.7,5.1-4.9C276.8,142,274.6,140.8,272,140.8z"/>
		</g>
		<g>
			<path class="st7" d="M252.3,154.9c-0.4,0-0.8-0.2-1-0.6c-0.3-0.5-0.1-1.2,0.4-1.5c1.9-1,3.4-2.9,3.9-4.9c0.5-2,0-4.3-1.3-6
				c-0.4-0.5-0.2-1.2,0.3-1.5c0.5-0.3,1.3-0.2,1.6,0.3c1.7,2.2,2.3,5.1,1.7,7.7c-0.6,2.7-2.5,5-4.9,6.4
				C252.7,154.8,252.6,154.9,252.3,154.9z"/>
		</g>
	</g>
	<g>
		<g>
			<path class="st5" d="M33.2,144c0.7-2.9,3-5.3,5.7-6.7c4.5-2.4,8.5-2.3,13.2-0.9c0.1,0.1,0.2,0.1,0.3,0.1
				c-0.5-1.7-0.5-3.6,0.1-5.6c1.4-5,6.2-8.2,9.4-7.3c3.2,0.8,2.2,5.1,0.8,10.1v0.1c-1,3.5,1.3,6.7,4.8,8.1c16.5,6.6,42.6,4,46.6,3.8
				c3.4-0.2,8.5-1.7,10.5,2.1c0.8,1.5,0.8,3.3,0.1,4.9c-0.7,1.5-1.6,3.1-3.2,3.8c-17.1,7.8-46.8,9.3-54.9,9.2
				c-11.4-0.1-23.5-3.3-30.6-12.4C33.6,150.7,32.4,147.3,33.2,144z"/>
			<path class="st7" d="M66.9,166.8c-0.2,0-0.4,0-0.6,0c-14-0.2-25.2-4.7-31.5-12.8c-2.5-3.2-3.5-7-2.7-10.2l0,0
				c0.7-3,3-5.7,6.3-7.3c3.9-2.1,7.8-2.5,12.6-1.4c-0.2-1.5,0-2.9,0.4-4.4c0.7-2.5,2.3-4.9,4.4-6.4c2.1-1.6,4.4-2.2,6.4-1.7
				c1.4,0.3,3,1.4,3,4.6c0,1.8-0.5,4-1.4,6.9c-0.8,2.8,0.9,5.7,4.1,6.9c9.8,3.9,24.9,5.2,44.6,3.8c0.7-0.1,1.1-0.1,1.5-0.1
				c0.6-0.1,1.3-0.1,2-0.2c3.2-0.3,7.6-0.8,9.6,2.9c1,1.8,1,3.9,0.1,5.9c-0.8,1.6-1.8,3.5-3.8,4.4C104.4,165.3,75,166.8,66.9,166.8z
				 M34.3,144.3L34.3,144.3c-0.7,2.6,0.2,5.7,2.3,8.4c8,10.2,22.1,11.9,29.7,12c7.1,0.1,37-1.2,54.4-9.1c1.3-0.6,2-1.9,2.6-3.3
				c0.6-1.4,0.6-2.8,0-4c-1.2-2.2-3.8-2.1-7.3-1.7c-0.8,0.1-1.5,0.2-2.1,0.2c-0.4,0-0.8,0.1-1.4,0.1c-20.1,1.4-35.5,0.1-45.7-4
				c-4.3-1.7-6.5-5.6-5.4-9.4c0.7-2.2,1.3-4.7,1.3-6.4c0.1-2.1-0.8-2.3-1.3-2.4c-1.2-0.3-2.8,0.2-4.4,1.3c-1.7,1.3-3,3.2-3.6,5.3
				c-0.5,1.6-0.5,3.4-0.1,5c0.1,0.4,0,0.8-0.3,1.1c-0.3,0.3-0.7,0.4-1.1,0.2l-0.2-0.1c-5.1-1.5-8.6-1.2-12.5,0.8
				C36.8,139.8,34.9,141.9,34.3,144.3z"/>
		</g>
		<g>
			<path class="st5" d="M39.7,141.7c3.5,1.6,7.4,0.8,8.6-1.7c1.3-2.5-0.6-5.8-4.1-7.4s-7.4-0.8-8.6,1.7
				C34.3,136.8,36.2,140.1,39.7,141.7z"/>
			<path class="st7" d="M43.4,143.7c-1.4,0-2.8-0.3-4.2-0.9l0,0c-1.9-0.8-3.5-2.2-4.4-3.8c-1-1.7-1.1-3.5-0.3-5
				c1.5-3.1,6.1-4.1,10.2-2.2c1.9,0.8,3.5,2.2,4.4,3.8c1,1.7,1.1,3.5,0.3,5C48.4,142.5,46.1,143.7,43.4,143.7z M40.2,140.8
				c3,1.3,6.1,0.8,7.2-1.1c0.5-0.9,0.4-2-0.2-3.1c-0.7-1.2-1.8-2.2-3.3-2.9c-3-1.3-6.1-0.8-7.2,1.1c-0.5,0.9-0.4,2,0.2,3.1
				C37.5,139.1,38.7,140.1,40.2,140.8L40.2,140.8z"/>
		</g>
		<g>
			<path class="st5" d="M37.7,159.5c3.9,0,7.1-2.3,7.1-5c0-2.8-3.2-5-7.1-5s-7.1,2.3-7.1,5C30.6,157.2,33.8,159.5,37.7,159.5z"/>
			<path class="st7" d="M37.7,160.6c-4.5,0-8.2-2.8-8.2-6.1c0-3.4,3.7-6.1,8.2-6.1s8.2,2.8,8.2,6.1S42.3,160.6,37.7,160.6z
				 M37.7,150.5c-3.3,0-5.9,1.8-5.9,4c0,2.1,2.7,4,5.9,4c3.2,0,5.9-1.8,5.9-4C43.6,152.3,41,150.5,37.7,150.5z"/>
		</g>
		<g>
			<path class="st5" d="M36.8,149.7c3.9,0.7,7.4-1,7.9-3.8c0.5-2.8-2.2-5.5-6-6.2c-3.9-0.7-7.4,1-7.9,3.8
				C30.2,146.3,33,149.1,36.8,149.7z"/>
			<path class="st7" d="M38.4,150.9c-0.6,0-1.3-0.1-1.8-0.2c-4.5-0.7-7.6-4.1-7-7.4c0.7-3.3,4.8-5.4,9.2-4.6c4.5,0.7,7.6,4.1,7,7.4
				c-0.3,1.7-1.5,3.1-3.3,4C41.3,150.7,39.9,150.9,38.4,150.9z M37,140.8c-2.6,0-4.8,1.2-5.1,3c-0.4,2.1,1.9,4.4,5.1,4.9
				c1.6,0.3,3.2,0.1,4.5-0.5c1.1-0.6,1.9-1.4,2.1-2.4c0.4-2.1-1.9-4.3-5.1-4.9C38,140.8,37.5,140.8,37,140.8z"/>
		</g>
		<g>
			<path class="st7" d="M56.7,154.9c-0.2,0-0.4-0.1-0.6-0.2c-2.5-1.4-4.4-3.7-4.9-6.4c-0.6-2.7,0-5.5,1.7-7.7
				c0.4-0.5,1.1-0.6,1.6-0.3c0.5,0.3,0.7,1,0.3,1.5c-1.3,1.7-1.8,4-1.3,6s1.9,3.9,3.9,4.9c0.5,0.3,0.8,1,0.4,1.5
				C57.5,154.7,57,154.9,56.7,154.9z"/>
		</g>
	</g>
	<g>
		<g>
			<path class="st9" d="M152.2,104.9c-0.2,0-0.3,0-0.5,0c-8-0.1-16-3.2-21.7-8.5c-0.5-0.4-0.5-1.1,0-1.5c0.4-0.5,1.2-0.5,1.6,0
				c5.4,4.9,12.7,7.8,20.1,7.9c7.5,0.1,14.9-2.6,20.4-7.3c0.5-0.4,1.2-0.4,1.6,0.1c0.4,0.5,0.4,1.1-0.1,1.5
				C167.9,102,160.1,104.9,152.2,104.9z"/>
		</g>
		<g>
			<path class="st9" d="M151.6,110.3c-1.7,0-3.5-0.2-5.1-0.6c-0.6-0.2-1-0.7-0.8-1.3c0.2-0.6,0.8-1,1.4-0.8
				c3.6,0.8,7.4,0.7,10.8-0.5c0.6-0.2,1.3,0.1,1.5,0.7c0.2,0.6-0.1,1.2-0.7,1.4C156.4,109.9,154,110.3,151.6,110.3z"/>
		</g>
		<g>
			<path class="st9" d="M178.8,101.3c-0.1,0-0.3,0-0.4-0.1c-4.2-1.6-7-6-6.4-10.3c0.1-0.6,0.7-1,1.3-1s1.1,0.6,1,1.2
				c-0.4,3.3,1.8,6.8,5,8c0.6,0.2,0.9,0.8,0.7,1.4C179.7,101,179.2,101.3,178.8,101.3z"/>
		</g>
		<g>
			<path class="st9" d="M125.8,99.2c-0.5,0-0.9-0.3-1.1-0.7c-0.2-0.6,0.1-1.2,0.7-1.4c2.8-1,5.1-3.3,6-6c0.2-0.6,0.8-0.9,1.4-0.7
				c0.6,0.2,1,0.8,0.8,1.4c-1.1,3.4-3.9,6.2-7.5,7.5C126,99.1,125.9,99.2,125.8,99.2z"/>
		</g>
	</g>
</g>
</svg>
