<?xml version="1.0" encoding="utf-8"?>
<!-- Generator: Adobe Illustrator 25.2.1, SVG Export Plug-In . SVG Version: 6.00 Build 0)  -->
<svg version="1.1" id="Layer_1" xmlns="http://www.w3.org/2000/svg" xmlns:xlink="http://www.w3.org/1999/xlink" x="0px" y="0px"
	 viewBox="0 0 309 309" style="enable-background:new 0 0 309 309;" xml:space="preserve">
<style type="text/css">
	.st0{fill:#A36026;}
	.st1{fill:#5C2C0F;}
	.st2{fill:#F8B231;}
	.st3{fill:#F9C973;}
	.st4{fill:#DF7426;}
	.st5{fill:#53B953;}
	.st6{fill:#74C26A;}
	.st7{fill:#248140;}
	.st8{fill:#196734;}
	.st9{fill:#E63472;}
	.st10{fill:#A81D44;}
	.st11{fill:#272937;}
	.st12{fill:#525973;}
	.st13{fill:#0D0D0F;}
	.st14{fill:#010101;}
</style>
<g>
	<g>
		<path class="st0" d="M235.9,183.9c0,37.6-48.3,65-82.3,65c-28.8,0-82.3-27.5-82.3-65c0-14.5,36.8-71,82.3-71
			S235.9,167.2,235.9,183.9z"/>
		<path class="st1" d="M153.5,250c-15.5,0-36.2-7.3-52.9-18.7c-19.8-13.5-30.9-30.4-30.9-47.4c0-14.6,36.6-72,83.8-72
			c46.1,0,83.8,54.4,83.8,72c0,17.4-10.3,34.2-28.8,47.4C192.1,242.8,171.1,250,153.5,250z M153.5,114c-44.6,0-80.9,56.2-80.9,69.9
			c0,37,53.2,64,80.9,64c32.6,0,80.9-26.9,80.9-64c0-7.9-8.9-25.5-23.8-41.2C200.4,132,179.3,114,153.5,114z"/>
	</g>
	<g>
		<path class="st2" d="M218.9,183.5c0,32.2-38.4,55.7-65.4,55.7c-22.8,0-65.4-23.5-65.4-55.7c0-12.4,29.3-60.7,65.4-60.7
			S218.9,169.2,218.9,183.5z"/>
		<path class="st3" d="M218.9,183.5c0,18.2-12.4,33.6-27.9,43.6c11.5-9.7,19.5-22.7,19.5-37.5c0-14.3-29.3-60.7-65.4-60.7
			c-9.5,0-18.5,3.4-26.7,8.5c10.1-8.5,22.2-14.7,35-14.7C189.6,122.8,218.9,169.2,218.9,183.5z"/>
		<g>
			<path class="st4" d="M153.5,240.2c-0.8,0-1.4-0.5-1.4-1V122.8c0-0.6,0.7-1,1.4-1c0.8,0,1.4,0.5,1.4,1v116.4
				C155,239.8,154.3,240.2,153.5,240.2z"/>
		</g>
		<g>
			<path class="st4" d="M153.7,153.6c-18.1,0-36.2-2.5-44.4-7.5c-0.6-0.4-0.7-1-0.2-1.5c0.5-0.4,1.4-0.5,2-0.2
				c15.4,9.3,69.7,9.3,85.5,0c0.6-0.4,1.6-0.3,2,0.2c0.5,0.4,0.4,1.2-0.2,1.5C189.9,151.1,171.7,153.6,153.7,153.6z"/>
		</g>
		<g>
			<path class="st4" d="M153.6,183.6c-25.5,0-50.9-3.5-62.5-10.5c-0.6-0.4-0.7-1-0.2-1.5c0.5-0.4,1.4-0.5,2-0.2
				c21.9,13.3,99.2,13.3,121.7,0c0.6-0.4,1.6-0.3,2,0.2c0.5,0.4,0.4,1.2-0.2,1.5C204.6,180.1,179.1,183.6,153.6,183.6z"/>
		</g>
		<g>
			<path class="st4" d="M153.6,213.9c-24.8,0-49.4-3.4-60.7-10.3c-0.6-0.4-0.7-1-0.2-1.5c0.5-0.4,1.4-0.5,2-0.2
				c21.2,12.9,96.2,12.9,118.1,0c0.6-0.4,1.6-0.3,2,0.2c0.5,0.4,0.4,1.2-0.2,1.5C203.2,210.6,178.3,213.9,153.6,213.9z"/>
		</g>
		<g>
			<path class="st4" d="M153.5,240.2c-12.4,0-29-6.3-42.3-16.1c-15.8-11.6-24.6-26-24.6-40.7c0-12.5,29.2-61.8,66.8-61.8
				c36.8,0,66.8,46.7,66.8,61.8c0,14.9-8.2,29.3-23,40.6C184.3,234.1,167.6,240.2,153.5,240.2z M153.5,123.8c-35.2,0-64,48-64,59.7
				c0,31.6,42,54.6,64,54.6c25.8,0,64-22.9,64-54.6C217.4,169.3,188,123.8,153.5,123.8z"/>
		</g>
	</g>
	<g>
		<g>
			<path class="st5" d="M231.9,90.4c9.7,30.8-32.3,42.9-80.7,42.9s-84.3-11.8-76.3-42.9c6.4-25.1,27.8-57.9,76.3-57.9
				S222.5,60.5,231.9,90.4z"/>
			<path class="st6" d="M217.1,121.5c5.9-6.2,8.1-14.1,4.9-23.9c-9.4-29.8-32.2-57.8-80.7-57.8c-17.7,0-31.7,4.3-42.7,11
				c12.1-10.7,29.2-18.3,52.6-18.3c48.5,0,71.4,28,80.7,57.9C236.3,104.5,229.9,114.6,217.1,121.5z"/>
			<g>
				<path class="st7" d="M151.2,134.3c-33.7,0-57.8-5.7-69.9-16.4c-8.1-7.2-10.7-16.5-7.9-27.9c3.5-13.8,19.5-58.7,77.7-58.7
					c52.6,0,73.8,31.9,82.2,58.7c3.2,10.3,1,19.1-6.6,26.2C214.1,127.9,187.3,134.3,151.2,134.3z M151.2,33.6
					c-55.9,0-71.4,43.6-74.9,57c-2.7,10.6-0.3,19.4,7.2,26.1c11.5,10.2,34.9,15.6,67.6,15.6c34.8,0,61.5-6.3,73.3-17.3
					c7-6.5,9.1-14.7,6.1-24.4l0,0C222.3,64.6,201.9,33.6,151.2,33.6z"/>
			</g>
		</g>
		<g>
			<path class="st7" d="M129.1,67.8c-0.9,1.8-5.7,2.1-10.7,0.7c-5-1.4-8.2-4-7.3-5.8c0.9-1.8,5.7-2.1,10.7-0.7
				C126.7,63.4,130,66,129.1,67.8z"/>
			<path class="st8" d="M124.3,70.4c-2,0-4.3-0.3-6.4-0.9c-5.9-1.7-9.4-4.7-8.2-7.2c1.3-2.4,6.7-3,12.6-1.3c5.9,1.7,9.4,4.7,8.2,7.2
				c-0.7,1.3-2.5,2-5.1,2.2C125,70.4,124.6,70.4,124.3,70.4z M115.7,62.2c-1.9,0-3.1,0.4-3.4,0.9c-0.4,0.9,1.8,3.1,6.5,4.4
				c2.2,0.6,4.4,0.9,6.2,0.8c1.3-0.1,2.4-0.4,2.6-0.8c0.4-0.9-1.8-3.1-6.5-4.4C119.1,62.4,117.2,62.2,115.7,62.2z"/>
		</g>
		<g>
			<path class="st7" d="M173.2,67.8c0.9,1.8,5.7,2.1,10.7,0.7c5-1.4,8.2-4,7.3-5.8c-0.9-1.8-5.7-2.1-10.7-0.7
				C175.6,63.4,172.3,66,173.2,67.8z"/>
			<path class="st8" d="M178,70.4c-0.4,0-0.7,0-1-0.1c-2.6-0.2-4.4-0.9-5.1-2.2c-1.3-2.4,2.2-5.5,8.2-7.2c5.9-1.7,11.3-1.1,12.6,1.3
				c1.3,2.4-2.2,5.5-8.2,7.2C182.2,70.1,179.9,70.4,178,70.4z M186.5,62.2c-1.5,0-3.4,0.2-5.5,0.8c-4.7,1.3-7,3.5-6.5,4.4
				c0.2,0.4,1.2,0.8,2.6,0.8c1.8,0.1,4-0.2,6.2-0.8c4.7-1.3,7-3.5,6.5-4.4C189.6,62.6,188.4,62.2,186.5,62.2z"/>
		</g>
	</g>
	<g>
		<path class="st5" d="M132.4,233.3c3.4-4.1,1-9.6-5.8-12.1c-4.3-1.5-9.1-0.4-12.7,2.1c-16.3,11.5-23.4,38.6-22.3,38.7
			c-16.8-2.6-27.6,7.7-24,13c6.4,9.2,48.3,4.2,50.6,2.1C123.3,272.5,107.8,262.9,132.4,233.3z"/>
		<path class="st7" d="M90,281.4c-2.6,0-5.2-0.1-7.6-0.3c-8.6-0.7-14.1-2.6-16.2-5.7c-1.7-2.5-0.8-5.8,2.3-8.8
			c3.8-3.6,11.4-7,21.6-5.8c0.9-6.1,8.3-28,22.8-38.2c4.3-3.1,9.7-3.9,14.3-2.3c3.8,1.3,6.6,3.7,7.7,6.5c1,2.5,0.5,5-1.2,7.1l0,0
			c-16.7,20.1-14.6,30.6-13.3,37c0.6,3,1,5.2-1,7C117.5,279.4,102.9,281.4,90,281.4z M86.1,262.7c-7.1,0-12.4,2.5-15.3,5.2
			c-2.4,2.3-3.2,4.9-2,6.6c1.3,1.9,4.6,3.3,10,4.1c14.5,2.2,36.5-1,38.3-2.2c1.1-1,0.9-2.4,0.3-5.3c-1.3-6.6-3.5-17.6,13.7-38.3l0,0
			c1.3-1.6,1.6-3.5,0.9-5.4c-0.9-2.2-3.1-4-6.2-5.1c-3.4-1.2-7.6-0.5-11,1.9c-15.2,10.8-21.9,34.9-21.9,37.5
			c0.1,0.2,0.1,0.4,0.1,0.6c-0.1,0.6-1,0.9-1.7,0.8l0,0l0,0C89.4,262.8,87.7,262.7,86.1,262.7z M132.4,233.3L132.4,233.3
			L132.4,233.3z"/>
	</g>
	<g>
		<path class="st5" d="M176.1,233.3c-3.4-4.1-1-9.6,5.8-12.1c4.3-1.5,9.1-0.4,12.7,2.1c16.3,11.5,23.4,38.6,22.3,38.7
			c16.8-2.6,27.6,7.7,24,13c-6.4,9.2-48.3,4.2-50.6,2.1C185.2,272.5,200.6,262.9,176.1,233.3z"/>
		<path class="st7" d="M218.4,281.4c-12.9,0-27.4-2-29.2-3.6c-2-1.8-1.6-4-1-7c1.3-6.3,3.4-16.8-13.3-37l0,0
			c-1.8-2.2-2.2-4.7-1.3-7.1c1.1-2.8,3.9-5.1,7.7-6.5c4.6-1.7,10-0.8,14.3,2.3c14.4,10.2,21.8,32,22.8,38.2
			c10.1-1.2,17.7,2.2,21.6,5.8c3.1,3,4,6.4,2.3,8.8c-2.1,3.1-7.6,5-16.2,5.7C223.6,281.3,221,281.4,218.4,281.4z M177.4,232.7
			c17.2,20.7,15.1,31.8,13.7,38.3c-0.6,2.9-0.8,4.3,0.4,5.4c1.8,1.1,23.8,4.3,38.3,2.2c5.3-0.8,8.6-2.2,10-4.1
			c1.2-1.7,0.4-4.2-2-6.6c-3.5-3.4-10.7-6.4-20.4-4.9l0,0c-0.7,0.1-1.6-0.2-1.7-0.8c-0.1-0.2,0-0.4,0.1-0.6
			c0-2.6-6.7-26.8-21.9-37.5c-3.4-2.4-7.6-3.1-11-1.9c-3.1,1.1-5.3,3-6.2,5.1C175.6,229.2,176,231.1,177.4,232.7L177.4,232.7z"/>
	</g>
	<g>
		<g>
			<path class="st5" d="M241.2,105.9c5.5,1.1,9.1,4.1,8.1,6.8c-1,2.6-6.2,3.8-11.7,2.7c-5.5-1.1-9.1-4.1-8.1-6.8
				C230.5,105.9,235.7,104.7,241.2,105.9z"/>
			<path class="st7" d="M241.6,116.8c-1.4,0-2.9-0.2-4.5-0.4c-6.3-1.3-10.3-4.9-9.1-8.1c1.2-3.3,7.1-4.7,13.5-3.4l0,0
				c6.3,1.3,10.3,4.9,9.1,8.1C249.7,115.4,246,116.8,241.6,116.8z M237.1,106.5c-3.1,0-5.7,0.9-6.2,2.3c-0.7,2,2.5,4.5,7,5.5
				s9.1,0.1,9.9-1.9c0.7-2-2.5-4.5-7-5.5l0,0C239.5,106.6,238.3,106.5,237.1,106.5z"/>
		</g>
		<g>
			<path class="st5" d="M250.1,94c3.6,3.2,4.2,7.2,1.3,8.9c-2.8,1.7-8.1,0.5-11.7-2.7c-3.6-3.2-4.2-7.2-1.3-8.9
				C241.2,89.6,246.5,90.8,250.1,94z"/>
			<path class="st7" d="M248.2,104.8c-3.1,0-6.7-1.4-9.6-3.9c-1.9-1.7-3.1-3.7-3.4-5.6c-0.3-2,0.4-3.8,2.2-4.9
				c3.5-2.2,9.5-0.9,13.7,2.9l0,0c4.2,3.8,4.7,8.3,1.2,10.5C251.2,104.5,249.8,104.8,248.2,104.8z M241.6,91.6
				c-0.9,0-1.6,0.2-2.2,0.6c-1,0.6-1.4,1.7-1.2,3c0.2,1.5,1.2,3.1,2.8,4.5c3,2.7,7.4,3.9,9.6,2.5s1.5-4.7-1.6-7.4l0,0
				C246.8,92.7,243.9,91.6,241.6,91.6z"/>
		</g>
		<g>
			<path class="st5" d="M251.4,93.2c0.1-4.2,3.1-7.5,6.8-7.5c3.7,0.1,6.6,3.4,6.6,7.6c-0.1,4.2-3.1,7.5-6.8,7.5
				C254.4,100.8,251.4,97.4,251.4,93.2z"/>
			<path class="st7" d="M258,101.8L258,101.8c-4.6-0.1-8.2-3.9-8.1-8.7c0-2.2,0.8-4.3,2.2-5.9c1.6-1.7,3.7-2.6,5.9-2.6h0.1
				c2.3,0,4.3,1,5.9,2.8c1.4,1.6,2.1,3.7,2.1,6c0,2.2-0.8,4.3-2.2,5.9C262.4,100.9,260.3,101.8,258,101.8z M258.2,86.8
				c-1.3,0-2.5,0.6-3.5,1.7c-1.1,1.3-1.8,2.9-1.8,4.7c-0.1,3.5,2.3,6.5,5.1,6.5c1.3,0.1,2.5-0.6,3.5-1.7c1.1-1.3,1.8-2.9,1.8-4.7
				l0,0c0-1.8-0.5-3.5-1.6-4.7C260.7,87.4,259.4,86.8,258.2,86.8L258.2,86.8z"/>
		</g>
		<g>
			<path class="st5" d="M272.9,102.7c-4.6,2.5-10,2.7-12.2,0.6c-2.2-2.2-0.3-6,4.3-8.4c4.6-2.5,10-2.7,12.2-0.6
				C279.4,96.4,277.5,100.2,272.9,102.7z"/>
			<path class="st7" d="M265.4,105.8c-2.4,0-4.6-0.7-5.8-1.9c-2.7-2.7-0.7-7.1,4.6-9.9c5.2-2.9,11.5-3,14.2-0.3
				c2.7,2.7,0.7,7.1-4.6,9.9C271.1,105.1,268.1,105.8,265.4,105.8z M272.6,93.8c-2,0-4.5,0.6-6.7,1.8c-3.8,2.1-5.6,5.3-4,7
				c1.6,1.7,6.4,1.3,10.2-0.8c3.8-2.1,5.6-5.3,4-7C275.3,94.2,274.1,93.8,272.6,93.8z"/>
		</g>
		<g>
			<path class="st5" d="M262.8,140.1c9.4-11.7,15.7-28.9,5.5-41.3c-2.2-2.8-5.9-5.1-10.2-5.6c-3.8-0.4-7.9,0.6-10.9,2.4
				c-5,3-6.8,6.5-7.4,11c-0.6,4.6,1.5,7.6,2.5,12c2.3,10.2-1.9,20.2-13.7,25.9c-5.8,2.8-12.1,4.6-18,7.2c-5.9,2.6-12.8,9.5-2.5,11.6
				c2.9,0.6,6.1,0.4,9.1,0C236.3,161,253.2,152,262.8,140.1z"/>
			<path class="st7" d="M207.8,164.4c-4.8-1-6.1-2.9-6.4-4.4c-0.6-3.3,3.9-7.2,8.5-9.2c2.7-1.2,5.5-2.2,8.2-3.2
				c3.3-1.2,6.7-2.5,9.8-4c10.6-5,15.4-14.3,13.1-24.8c-1-4.4-3.1-7.4-2.5-12.3c0.7-5.4,3.1-8.9,7.9-11.7c3.6-2.2,8-3.1,12-2.6
				c4.3,0.5,8.5,2.7,11.2,6.1c10.8,13,3.7,31-5.5,42.4c-6,7.4-14.6,13.6-24.8,18c-6.9,2.9-14.2,4.9-21.8,5.8
				C213.6,165,210.6,165,207.8,164.4z M248.1,96.4c-4.3,2.5-6.2,5.5-6.8,10.3c-0.5,4.4,1.5,7.2,2.5,11.7c2.5,11.4-2.8,21.5-14.4,27
				c-3.2,1.5-6.7,2.8-10,4.1c-2.6,1-5.4,2-8,3.1c-3.7,1.7-7.5,4.9-7,7.1c0.2,1.2,1.6,2,4.3,2.6c2.8,0.6,5.8,0.3,8.4,0
				c7.2-0.9,14.2-2.8,20.8-5.6c9.8-4.2,18-10.2,23.7-17.2c8.8-10.9,15.6-28,5.5-40.2c-2.3-2.8-5.7-4.7-9.2-5.1
				C254.4,93.8,250.8,94.8,248.1,96.4z"/>
		</g>
	</g>
	<g>
		<g>
			<g>
				<path class="st9" d="M166,89.9c-0.4,0-0.9-0.1-1.3-0.3c-5.7-2.3-13.1-2.4-18.9-0.2c-1.3,0.5-3,0.1-3.7-0.9
					c-0.7-1-0.1-2.2,1.2-2.7c7.5-2.8,16.7-2.6,24,0.3c1.3,0.6,1.8,1.8,1.1,2.8C167.9,89.5,167,89.9,166,89.9z"/>
				<path class="st10" d="M166,91c-0.7,0-1.4-0.1-2-0.4c-5.2-2.2-12.1-2.2-17.5-0.2c-2.1,0.8-4.6,0.2-5.7-1.4
					c-1-1.5-0.2-3.4,1.9-4.1c7.9-2.9,17.6-2.8,25.4,0.3c1,0.4,1.7,1,2,1.9c0.3,0.8,0.2,1.7-0.4,2.4C168.9,90.4,167.5,91,166,91z
					 M154.8,86.8c3.7,0,7.3,0.7,10.5,1.9c0.6,0.3,1.4,0.1,1.8-0.4c0.1-0.2,0.2-0.5,0.1-0.7c-0.1-0.2-0.3-0.4-0.6-0.6
					c-6.9-2.8-15.6-2.9-22.6-0.3c-0.7,0.2-0.9,0.8-0.6,1.3c0.3,0.5,1.1,0.7,1.7,0.4C148.1,87.4,151.5,86.8,154.8,86.8z"/>
			</g>
		</g>
		<g>
			<g>
				<path class="st9" d="M146,92.4c-8.8,14.8-37.1,20-63.2,11.5c-26.1-8.4-40.1-27.3-31.3-42.1C60.3,47,154.8,77.6,146,92.4z"/>
				<path class="st10" d="M82.2,104.9c-12.9-4.2-23.4-11-29.4-19.1c-6.1-8.2-7-16.9-2.6-24.4c2.3-3.9,9.7-5.4,21.3-4.2
					c9.7,1,22,3.8,34.5,7.8c24.2,7.8,46.4,19.4,41.4,27.8c-4.4,7.4-13.7,12.9-26.1,15.1C106.4,110.6,92.1,108.1,82.2,104.9z
					 M64.2,59c-6,0-10.1,1-11.4,3.3c-4,6.8-3.2,14.8,2.5,22.5c5.8,7.7,15.7,14.2,28.1,18.2c12.4,4,25.5,5,37.1,2.9
					c11.5-2.1,20.1-7,24.1-13.9l0,0c3.4-5.8-13.7-16.5-39.9-25C88.6,61.7,73.9,59,64.2,59z"/>
			</g>
			<path class="st11" d="M138.5,91.5c-5.1,8.6-19.2,12.8-34.3,11.1c-12.2-1.3-24.7-6.5-31.8-14.2C66.7,82.3,65,75.2,68.7,69
				C75.3,58,145,80.6,138.5,91.5z"/>
			<g>
				<path class="st12" d="M109,72.2L88.2,98.8c-6.7-2.6-12.1-6.3-15.8-10.3l16.6-21.2C95.4,68.2,102.3,70,109,72.2z"/>
				<path class="st13" d="M88.2,99.8c-0.2,0-0.4-0.1-0.7-0.1C80.8,97,75.2,93.3,71.2,89c-0.3-0.3-0.3-0.8-0.1-1.1l16.7-21.3
					c0.3-0.4,1-0.6,1.6-0.5c6.2,1,13.2,2.8,20.1,5.1c0.4,0.1,0.7,0.3,0.8,0.7c0.1,0.3,0.1,0.6-0.1,0.9L89.5,99.3
					C89.2,99.6,88.7,99.8,88.2,99.8z M74.2,88.3c3.4,3.5,8,6.6,13.6,8.9L107,72.7c-5.9-1.9-11.8-3.4-17.2-4.3L74.2,88.3z"/>
			</g>
			<g>
				<path class="st12" d="M123.7,77.8l-19.4,24.8c-2.9-0.3-5.9-0.8-8.8-1.6l20.7-26.4C118.7,75.7,121.3,76.8,123.7,77.8z"/>
				<path class="st13" d="M104.3,103.7c-0.1,0-0.1,0-0.2,0c-3.1-0.3-6.1-0.9-9.1-1.7c-0.4-0.1-0.7-0.3-0.9-0.7
					c-0.1-0.3-0.1-0.6,0.1-0.9l20.7-26.4c0.4-0.5,1.3-0.7,1.9-0.4c2.8,1.1,5.5,2.2,7.7,3.2c0.7,0.3,0.9,0.9,0.5,1.4l-19.4,24.8
					C105.2,103.5,104.8,103.7,104.3,103.7z M97.5,100.5c1.9,0.4,4,0.8,6,1l18.2-23.2c-1.6-0.7-3.3-1.4-5.1-2.2L97.5,100.5z"/>
			</g>
			<g>
				<path class="st10" d="M104,103.7c-7-0.8-12.6-2.5-16.5-4C80.8,97,75.1,93.3,71.2,89c-6.1-6.7-7.6-14.2-3.8-20.5
					c2.2-3.7,9.8-4.5,22-2.4c6.2,1,13.2,2.8,20.1,5.1c2.3,0.8,8.5,2.8,14.8,5.7c12.3,5.6,17.8,11,15.4,14.9l0,0
					C135,100,121.4,105.6,104,103.7z M70.1,69.4c-3.4,5.6-2,12.3,3.5,18.4c3.7,4,8.9,7.4,15.3,10c7.3,2.8,13,3.5,15.6,3.8
					c14.9,1.6,28-2.6,32.7-10.5c1.6-2.8-3.8-7.5-14.3-12.3c-6.2-2.9-12.2-4.9-14.5-5.6c-6.8-2.3-13.6-4-19.6-5
					C78.3,66.4,71.5,66.9,70.1,69.4z"/>
			</g>
		</g>
		<g>
			<g>
				<path class="st9" d="M164.8,92.4c8.8,14.8,37.1,20,63.2,11.5c26.1-8.4,40.1-27.3,31.3-42.1C250.5,47,155.9,77.6,164.8,92.4z"/>
				<path class="st10" d="M163.4,92.8c-4.9-8.3,17.2-20,41.4-27.8s50.9-12,55.8-3.6c4.4,7.4,3.5,16.1-2.6,24.4
					c-6.1,8.2-16.6,14.9-29.4,19.1C201.8,113.5,172.6,108.1,163.4,92.8z M166.1,91.9c8.5,14.2,36,19.2,61.3,11
					c12.4-4,22.3-10.4,28.1-18.2c5.7-7.7,6.6-15.6,2.5-22.5c-3.4-5.8-25.8-3.8-52,4.7S162.7,86.2,166.1,91.9z"/>
			</g>
			<path class="st11" d="M219.2,100c-18.6,6-39.8,2.8-46.7-8.5c-6.5-10.9,62.9-33.3,69.7-22.6c0,0,0,0.1,0.1,0.1
				C248.7,79.9,238.4,93.8,219.2,100z"/>
			<g>
				<path class="st12" d="M224.8,66.7l-28.4,36.2c-7.6-0.6-14.4-2.6-19.1-6.1l17.2-21.8C204.3,71.1,215.6,68,224.8,66.7z"/>
				<path class="st13" d="M226,66.1c0.3,0.3,0.4,0.8,0.1,1.2l-28.4,36.2c-0.2,0.3-0.7,0.6-1.3,0.6c-0.1,0-0.1,0-0.1,0
					c-8-0.6-15.1-2.9-19.9-6.5c-0.4-0.3-0.5-0.9-0.2-1.3l17.2-21.8L226,66.1z M179.2,96.5c4.2,2.8,10,4.6,16.5,5.2l26.2-33.5
					c-8.1,1.4-17.7,4.1-26.4,7.4L179.2,96.5z"/>
			</g>
			<g>
				<path class="st12" d="M242.1,68.9l-24.8,31.7c-4,1.2-7.9,1.9-11.8,2.2L234.3,66C238.2,66.2,241,67.1,242.1,68.9z"/>
				<path class="st13" d="M243.4,69.4l-24.8,31.7c-0.1,0.2-0.4,0.4-0.7,0.4c-4,1.2-8.1,1.9-12.2,2.3c-0.1,0-0.1,0-0.1,0
					c-0.4,0-1-0.2-1.2-0.5c-0.3-0.3-0.3-0.8-0.1-1.1L233,65.5C238.6,65.3,240.8,66.2,243.4,69.4z M235,67.2l-26.8,34.2
					c2.8-0.4,5.5-0.9,8.1-1.7l24.1-30.8C239.5,68,237.7,67.4,235,67.2z"/>
			</g>
			<g>
				<path class="st10" d="M196.2,103.9c-8-0.6-15.1-2.9-19.9-6.5c-2.2-1.6-4-3.5-5.2-5.6c-4.2-7,16.3-15.6,22.7-18
					c10.1-3.9,21.6-7,30.7-8.3c3.7-0.6,7-0.8,9.8-0.6c7.5,0.3,9.5,2.6,10.7,7.1c3,10.8-7.5,23.1-25.4,28.9l0,0
					C214.3,102.7,205.7,104.6,196.2,103.9z M225.1,67.8c-8.8,1.2-20,4.2-29.9,8.1c-14.8,5.7-23.4,11.8-21.3,15.3
					c1.1,1.8,2.6,3.5,4.6,4.9c4.4,3.3,10.9,5.3,18.2,5.8c10.3,0.8,18.9-1.8,21.9-2.8l0,0c16.8-5.4,26.5-16.8,23.7-26.6
					c-1-3.3-1.9-5-8-5.2C230.5,67,226.4,67.5,225.1,67.8z"/>
			</g>
		</g>
	</g>
	<g>
		<path class="st14" d="M140,108.9c-0.6-0.4-0.6-1.1,0-1.5c0.6-0.4,1.5-0.4,2,0c3.8,2.8,9.5,4.2,14.8,3.6c5.3-0.6,10.3-3,12.8-6.5
			c0.4-0.5,1.3-0.7,1.9-0.4c0.7,0.3,1,0.9,0.6,1.4c-3.1,4-8.8,7-15,7.6C148.9,114,142.6,110.8,140,108.9z"/>
	</g>
	<g>
		<path class="st14" d="M152.3,117.7c-0.7-0.2-1.1-0.8-0.8-1.4c0.3-0.6,1.1-0.8,1.9-0.6c3.1,0.9,7,0.4,9.7-1.2
			c0.6-0.4,1.5-0.3,2,0.2c0.5,0.4,0.4,1.1-0.2,1.5C163,117.3,158.1,119.3,152.3,117.7z"/>
	</g>
	<g>
		<g>
			<path class="st5" d="M70.5,198.2c-4.4-2.6-6.1-6.4-3.9-8.6c2.3-2.2,7.7-1.8,12.2,0.8c4.4,2.6,6.1,6.4,3.9,8.6
				C80.4,201.1,75,200.8,70.5,198.2z"/>
			<path class="st7" d="M78.2,201.5c-2.7,0-5.8-0.8-8.6-2.5l0,0c-2.4-1.4-4.1-3.1-4.9-5c-0.9-2-0.6-3.8,0.8-5.1
				c1.4-1.3,3.7-1.9,6.6-1.8c2.5,0.2,5.3,1,7.6,2.4c5.2,3,7,7.4,4.1,10C82.6,200.9,80.5,201.5,78.2,201.5z M71.4,197.3
				c3.7,2.2,8.4,2.6,10.1,1c1.7-1.7,0.1-4.9-3.7-7.1c-1.9-1.1-4.1-1.8-6.1-2c-1.8-0.1-3.2,0.2-4,0.9c-0.8,0.7-0.9,1.8-0.4,3.1
				C68.1,194.8,69.5,196.2,71.4,197.3L71.4,197.3z"/>
		</g>
		<g>
			<path class="st5" d="M56,206.5c-1.6-4-0.1-7.9,3.4-8.7c3.5-0.8,7.7,1.8,9.4,5.8c1.6,4,0.1,7.9-3.4,8.7
				C61.9,213.1,57.7,210.5,56,206.5z"/>
			<path class="st7" d="M64.1,213.5c-1.7,0-3.4-0.5-5-1.5c-1.9-1.2-3.5-3.1-4.4-5.2c-1.9-4.6,0.1-9,4.4-10c4.3-0.9,9.3,1.9,11.2,6.6
				c0.9,2.2,1,4.3,0.2,6.1c-0.8,2-2.5,3.4-4.6,3.9C65.2,213.5,64.7,213.5,64.1,213.5z M60.8,198.8c-0.3,0-0.6,0.1-0.9,0.1
				c-2.7,0.6-3.8,4-2.5,7.3l0,0c0.7,1.7,1.9,3.2,3.5,4.2c1.3,0.9,2.8,1.2,4,0.9c1.2-0.3,2.2-1.1,2.7-2.4c0.6-1.4,0.5-3.2-0.2-4.9
				C66.2,201,63.4,198.8,60.8,198.8z"/>
		</g>
		<g>
			<path class="st5" d="M42.1,203c2.2-3.8,6.8-6.1,10.2-5c3.4,1.1,4.3,5.1,2,8.9c-2.2,3.8-6.8,6.1-10.2,5
				C40.8,210.8,39.9,206.8,42.1,203z"/>
			<path class="st7" d="M46,213.2c-0.8,0-1.6-0.1-2.4-0.4c-4.2-1.3-5.4-5.8-2.8-10.3c2.6-4.4,7.9-6.8,12.1-5.5s5.4,5.8,2.8,10.3
				C53.6,210.9,49.7,213.2,46,213.2z M50.5,198.8c-2.5,0-5.4,1.9-7,4.6l0,0c-1.9,3.2-1.3,6.6,1.3,7.4c2.6,0.8,6.4-1.2,8.3-4.4
				c1.9-3.2,1.3-6.6-1.3-7.5C51.4,198.9,50.9,198.8,50.5,198.8z M42.1,203L42.1,203L42.1,203z"/>
		</g>
		<g>
			<path class="st5" d="M39.6,192c5.5-1,10.6,0.3,11.5,3c0.9,2.6-2.8,5.6-8.4,6.6c-5.5,1-10.6-0.3-11.5-3
				C30.3,195.9,34.1,193,39.6,192z"/>
			<path class="st7" d="M39.1,202.9c-1.6,0-3.1-0.2-4.4-0.5c-2.6-0.7-4.4-2-4.9-3.6c-1-3.3,3.1-6.7,9.4-7.8l0,0
				c6.4-1.2,12.2,0.5,13.3,3.8c1,3.3-3.1,6.7-9.4,7.8C41.7,202.8,40.5,202.9,39.1,202.9z M39.9,193c-4.6,0.8-8,3.3-7.3,5.3
				c0.3,0.9,1.4,1.7,3.1,2.1c1.9,0.5,4.3,0.6,6.7,0.1c4.6-0.8,8-3.3,7.3-5.3C49.1,193.2,44.6,192.1,39.9,193L39.9,193z"/>
		</g>
		<g>
			<path class="st5" d="M81.7,154.9c-8.9,3.5-17.2,8.1-24.3,13.5c-10,7.6-17.8,17.7-15.6,28.6c0.7,3.2,2.8,6.4,6.5,8.1
				c3.3,1.5,7.6,1.7,11.3,0.9c11.2-2.4,13.6-9.7,18.1-17.5c5.8-10.2,14.8-19.4,25.9-26.6c3-2,8.4-4.1,7.6-7.6
				c-0.4-1.8-2.2-3.3-4.6-4C99,147.7,88.8,152,81.7,154.9z"/>
			<path class="st7" d="M47.5,205.9c-3.7-1.7-6.4-4.9-7.2-8.8c-1.9-9.8,3.7-20.2,16-29.5c7.2-5.4,15.5-10,24.6-13.6
				c4.6-1.8,12.1-5,18.9-5.5c2.7-0.2,5.2,0,7.4,0.7c2.8,0.9,4.9,2.7,5.4,4.8c0.8,3.5-3.1,5.7-6.1,7.4c-6.1,3.5-12.1,8.9-12.2,9
				c-6.3,5.6-11.4,11.7-15.2,18.4c-1.8,3.1-3.4,6.5-5.6,9.5C70,203,66,205.6,60,206.8C52.5,208.5,47.6,205.9,47.5,205.9z
				 M100.1,150.6L100.1,150.6c-5.8,0.4-12.1,3-17.7,5.3c-8.9,3.5-16.9,8-23.9,13.2c-6.7,5.1-17.7,15.4-15.2,27.7
				c0.7,3.3,2.8,6,5.8,7.3c2.8,1.3,6.4,1.5,10.1,0.8c5.2-1.1,8.6-3.3,11.8-7.5c2.2-3,3.7-6.2,5.5-9.4c3.9-6.8,9.1-13.2,15.7-18.9
				c0.1-0.1,6.3-5.6,12.7-9.4c2.8-1.6,5.5-3.2,5-5.4c-0.3-1.4-1.7-2.6-3.7-3.2C103.6,150.3,101,150.4,100.1,150.6z"/>
		</g>
	</g>
</g>
</svg>
