<svg width="50" height="32" viewBox="0 0 50 32" fill="none" xmlns="http://www.w3.org/2000/svg">
<path d="M24.7042 16.1965L23.4986 17.4021C22.9754 17.9253 22.7024 18.6078 22.7024 19.3357C22.7024 20.0636 22.9981 20.7688 23.4986 21.2693L24.7042 22.4749C24.7901 22.5625 24.8928 22.6319 25.0062 22.6788C25.1195 22.7257 25.2412 22.7492 25.3639 22.7479H26.3421C26.8425 22.7479 27.252 23.1573 27.252 23.6578V28.6396C27.252 29.14 27.6614 29.5495 28.1619 29.5495H29.14C29.2627 29.5508 29.3844 29.5273 29.4978 29.4804C29.6111 29.4335 29.7139 29.3641 29.7997 29.2765L30.7324 28.3439C31.4148 27.6614 31.8015 26.7288 31.8015 25.7506V22.9299C31.8015 22.7934 31.8243 22.6569 31.8925 22.5204L33.9626 18.3575C34.0308 18.221 34.0536 18.0846 34.0536 17.9481V16.8107C34.0536 16.3102 34.463 15.9008 34.9635 15.9008H35.3957C35.8962 15.9008 36.3056 16.3102 36.3056 16.8107V17.2429C36.3056 17.7433 36.7151 18.1528 37.2155 18.1528H37.6477C38.1482 18.1528 38.5577 17.7433 38.5577 17.2429V16.8107C38.5577 16.3102 38.9671 15.9008 39.4676 15.9008H39.8998C40.4002 15.9008 40.8097 16.3102 40.8097 16.8107V17.2429C40.8097 17.7433 41.2192 18.1528 41.7196 18.1528H44.2674C44.6313 18.1528 44.9726 17.9253 45.109 17.5841L47.1109 12.6023C47.1667 12.4643 47.1878 12.3148 47.1724 12.1667C47.1569 12.0187 47.1054 11.8767 47.0223 11.7532C46.9392 11.6297 46.8271 11.5285 46.6958 11.4584C46.5645 11.3883 46.418 11.3515 46.2692 11.3512C45.7687 11.3512 45.3593 10.9417 45.3593 10.4413V7.73428C45.3593 7.23383 45.7687 6.82436 46.2692 6.82436H46.7014C47.2019 6.82436 47.6113 7.23383 47.6113 7.73428V7.96176C47.6113 8.5987 48.1118 9.09915 48.7487 9.09915C49.3857 9.09915 49.8861 8.5987 49.8861 7.96176V3.54867C49.8861 1.59235 48.2938 0.0227484 46.3602 0.0227484H46.2692C45.7687 0.0227484 45.3593 0.432209 45.3593 0.932662V1.36487C45.3593 1.86533 44.9498 2.27479 44.4494 2.27479H41.7424C41.2419 2.27479 40.8325 1.86533 40.8325 1.36487C40.8325 0.614193 40.2183 0 39.4676 0H38.5577C37.3065 0 36.2829 1.02365 36.2829 2.27479V2.34303C36.2829 2.59326 36.1691 2.84348 35.9871 3.02547L32.0063 6.59688C31.847 6.75612 31.6196 6.82436 31.3921 6.82436H28.1164C27.6159 6.82436 27.2065 7.23383 27.2065 7.73428V8.16649C27.2065 8.66694 26.797 9.0764 26.2966 9.0764H25.8643C25.3639 9.0764 24.9544 9.48586 24.9544 9.98632V12.6933C24.9544 13.1938 25.3639 13.6032 25.8643 13.6032H26.2966C26.797 13.6032 27.2065 14.0127 27.2065 14.5131V14.9454C27.2065 15.4458 26.797 15.8553 26.2966 15.8553H25.3184L25.2547 15.8826C25.0682 15.9667 24.868 16.0532 24.7042 16.1965ZM14.7406 31.847C15.3776 31.847 15.878 31.3466 15.878 30.7096V29.686C15.878 28.2074 16.697 26.888 18.0163 26.2283L19.4039 25.5231C20.0181 25.2046 20.4276 24.5677 20.4276 23.8853C20.4276 23.1801 20.0409 22.5431 19.4039 22.2474L16.7424 20.928C16.1737 20.6323 15.5368 20.4958 14.8999 20.4958H13.899C13.8062 20.4963 13.7142 20.4785 13.6283 20.4433C13.5425 20.4082 13.4644 20.3565 13.3985 20.2911L9.2584 16.151C9.19302 16.0851 9.14129 16.007 9.10616 15.9212C9.07103 15.8353 9.05319 15.7433 9.05366 15.6505V14.3767C9.05366 13.9899 9.37213 13.6715 9.75885 13.6715H10.6233C11.01 13.6715 11.3285 13.9899 11.3285 14.3767V14.8089C11.3285 15.4458 11.8289 15.9463 12.4658 15.9463C13.1028 15.9463 13.6032 15.4458 13.6032 14.8089V14.3767C13.6032 13.9899 13.9217 13.6715 14.3084 13.6715C15.3093 13.6715 16.2875 13.262 16.9927 12.5568L17.6524 11.8971C17.9253 11.6242 17.9253 11.1692 17.6524 10.8962L16.0828 9.32663C16.0174 9.26078 15.9657 9.18268 15.9305 9.0968C15.8954 9.01093 15.8776 8.91896 15.878 8.82618V7.9845C15.878 7.34756 15.3776 6.84711 14.7406 6.84711C14.1037 6.84711 13.6032 7.34756 13.6032 7.9845C13.6032 8.62144 13.1028 9.1219 12.4658 9.1219C11.8289 9.1219 11.3285 8.62144 11.3285 7.9845V7.5523C11.3285 7.16558 11.6469 6.84711 12.0336 6.84711C12.4431 6.84711 12.7616 6.50589 12.7388 6.11918L12.6933 5.323C12.6706 4.91354 12.989 4.59507 13.3985 4.59507H15.1728C15.5596 4.59507 15.878 4.2766 15.878 3.88989V3.45768C15.878 2.82074 16.3785 2.32028 17.0154 2.32028C17.6524 2.32028 18.1528 2.82074 18.1528 3.45768V8.00725C18.1528 8.64419 18.6533 9.14465 19.2902 9.14465C19.9271 9.14465 20.4276 8.64419 20.4276 8.00725V7.16558C20.4276 6.9836 20.4958 6.80162 20.6323 6.66513L21.565 5.73247C22.2929 5.00453 22.7024 4.02638 22.7024 3.00272C22.7024 1.36487 21.383 0.0454968 19.7452 0.0454968H16.1055C14.5132 0.0454968 12.989 0.705186 11.8971 1.86533L10.4868 3.38943C9.7816 4.16286 8.78069 4.59507 7.73429 4.59507H7.50681C7.12009 4.59507 6.80162 4.2766 6.80162 3.88989C6.80162 3.02547 6.09644 2.32028 5.23202 2.32028H3.82165C2.95723 2.32028 2.25205 3.02547 2.25205 3.88989V4.73156C2.25205 6.09643 1.7061 7.41581 0.75069 8.37122L0.20474 8.91717C0.139369 8.98301 0.0876347 9.06111 0.052503 9.14699C0.0173712 9.23287 -0.000467368 9.32484 9.30671e-06 9.41762V9.71334C9.30671e-06 10.3503 0.750689 10.646 1.20565 10.2138L4.07188 7.34756C4.3676 7.05184 4.77706 6.86986 5.20927 6.86986C5.65968 6.86986 5.48225 7.05639 5.20017 7.35894C4.92492 7.65011 4.54958 8.0482 4.54958 8.48496V13.8535C4.54958 14.7838 5.85759 15.6801 6.99271 16.4604C7.52728 16.8243 8.02091 17.1655 8.32573 17.4704L11.1692 20.3139C11.3057 20.4503 11.3739 20.6323 11.3739 20.8143V23.3621C11.3739 24.454 11.8062 25.5231 12.5796 26.2965L13.444 27.161C13.5805 27.2975 13.6487 27.4794 13.6487 27.6614V30.7779C13.6032 31.3466 14.1264 31.847 14.7406 31.847Z" fill="#D9D9D9"/>
</svg>
