<svg width="35" height="27" viewBox="0 0 35 27" fill="none" xmlns="http://www.w3.org/2000/svg">
<path d="M29.6144 2.24387C27.3977 1.19789 24.9976 0.438713 22.4976 7.76016e-05C22.4756 -0.00063198 22.4538 0.00353182 22.4337 0.0122763C22.4135 0.0210208 22.3955 0.0341336 22.3809 0.0506897C22.0809 0.607419 21.7309 1.33285 21.4975 1.88958C18.8458 1.48469 16.149 1.48469 13.4973 1.88958C13.264 1.31598 12.914 0.607419 12.5973 0.0506897C12.5806 0.0169485 12.5306 7.76016e-05 12.4806 7.76016e-05C9.98055 0.438713 7.59715 1.19789 5.36375 2.24387C5.34709 2.24387 5.33042 2.26074 5.31375 2.27761C0.780295 9.14393 -0.469739 15.8247 0.146944 22.438C0.146944 22.4717 0.163611 22.5054 0.196946 22.5223C3.19703 24.7492 6.08044 26.0989 8.93052 26.993C8.98052 27.0099 9.03052 26.993 9.04719 26.9593C9.71387 26.0314 10.3139 25.0529 10.8306 24.0238C10.8639 23.9563 10.8306 23.8888 10.7639 23.872C9.81388 23.5008 8.91385 23.0622 8.03049 22.556C7.96383 22.5223 7.96383 22.4211 8.01383 22.3705C8.19717 22.2355 8.3805 22.0837 8.56384 21.9487C8.59718 21.915 8.64718 21.915 8.68051 21.9318C14.414 24.5805 20.5975 24.5805 26.2643 21.9318C26.2977 21.915 26.3477 21.915 26.381 21.9487C26.5643 22.1005 26.7477 22.2355 26.931 22.3873C26.9977 22.438 26.9977 22.5392 26.9143 22.5729C26.0477 23.0959 25.131 23.5177 24.1809 23.8888C24.1143 23.9057 24.0976 23.99 24.1143 24.0407C24.6476 25.0698 25.2476 26.0483 25.8977 26.9761C25.9477 26.993 25.9977 27.0099 26.0477 26.993C28.9144 26.0989 31.7978 24.7492 34.7979 22.5223C34.8312 22.5054 34.8479 22.4717 34.8479 22.438C35.5812 14.7956 33.6312 8.16544 29.6811 2.27761C29.6644 2.26074 29.6478 2.24387 29.6144 2.24387ZM11.6973 18.4059C9.98055 18.4059 8.54718 16.8032 8.54718 14.8293C8.54718 12.8555 9.94721 11.2528 11.6973 11.2528C13.464 11.2528 14.864 12.8723 14.8473 14.8293C14.8473 16.8032 13.4473 18.4059 11.6973 18.4059ZM23.3142 18.4059C21.5975 18.4059 20.1642 16.8032 20.1642 14.8293C20.1642 12.8555 21.5642 11.2528 23.3142 11.2528C25.081 11.2528 26.481 12.8723 26.4643 14.8293C26.4643 16.8032 25.081 18.4059 23.3142 18.4059Z" fill="white"/>
</svg>
