<svg
    xmlns="http://www.w3.org/2000/svg" xmlns:xlink="http://www.w3.org/1999/xlink" version="1.1"
    x="0px" y="0px" viewBox="0 0 32 40" style="enable-background:new 0 0 32 32;"
    xml:space="preserve" fill="#ffffff">
    <g>
        <path d="M26.11,14.06c-0.497,0-0.9,0.403-0.9,0.9v8.22c0,1.119-0.91,2.03-2.03,2.03H8.82c-1.12,0-2.03-0.911-2.03-2.03V8.82   c0-1.119,0.91-2.03,2.03-2.03h8.319c0.497,0,0.9-0.403,0.9-0.9s-0.403-0.9-0.9-0.9H8.82c-2.112,0-3.831,1.718-3.831,3.83v14.36   c0,2.112,1.719,3.83,3.831,3.83H23.18c2.112,0,3.831-1.718,3.831-3.83v-8.22C27.011,14.463,26.607,14.06,26.11,14.06z"/>
        <path d="M20.893,5.895l-8.007,8.007c-0.608,0.607-0.903,1.469-0.798,2.321l-0.021,2.804c-0.001,0.241,0.094,0.473,0.264,0.643   c0.169,0.169,0.398,0.264,0.637,0.264c0.002,0,0.005,0,0.007,0l2.804-0.021c0.848,0.105,1.713-0.189,2.32-0.797l8.008-8.007   c0.499-0.499,0.778-1.16,0.786-1.861c0.009-0.708-0.261-1.373-0.758-1.869l-1.512-1.511C23.601,4.846,21.928,4.86,20.893,5.895z    M25.092,9.226c-0.002,0.228-0.095,0.444-0.26,0.609l-8.008,8.007c-0.223,0.222-0.536,0.33-0.853,0.28   c-0.046-0.007-0.091-0.01-0.137-0.01c-0.002,0-0.005,0-0.007,0l-1.954,0.015l0.015-1.955c0-0.048-0.004-0.095-0.011-0.143   c-0.048-0.312,0.057-0.632,0.28-0.854l8.007-8.007C22.5,6.835,23.03,6.821,23.35,7.139l1.512,1.511   C25.013,8.802,25.095,9.006,25.092,9.226z"/>
    </g>
</svg>