<svg width="16" height="8" viewBox="0 0 16 8" fill="none" xmlns="http://www.w3.org/2000/svg">
<path d="M15.0314 5.80504C14.9672 5.84164 14.8963 5.86524 14.8229 5.87444C14.7496 5.88374 14.6751 5.87834 14.6038 5.85874C14.5324 5.83914 14.4657 5.80574 14.4073 5.76024C14.349 5.71484 14.3001 5.65834 14.2636 5.59404L12.9277 3.25964C12.151 3.78484 11.2942 4.18044 10.3908 4.43114L10.8035 6.90754C10.8157 6.98044 10.8134 7.05504 10.7967 7.12704C10.7801 7.19904 10.7494 7.26704 10.7064 7.32714C10.6634 7.38734 10.609 7.43844 10.5463 7.47754C10.4836 7.51664 10.4138 7.54294 10.3409 7.55504C10.3109 7.55994 10.2806 7.56254 10.2502 7.56284C10.1171 7.56264 9.98844 7.51524 9.88704 7.42914C9.78554 7.34304 9.71794 7.22374 9.69614 7.09244L9.29044 4.66104C8.43487 4.78004 7.56694 4.78004 6.71138 4.66104L6.30567 7.09244C6.28384 7.22394 6.21601 7.34344 6.11428 7.42954C6.01254 7.51574 5.88352 7.56294 5.7502 7.56284C5.71911 7.56264 5.68808 7.56014 5.65739 7.55504C5.58448 7.54294 5.51466 7.51664 5.45194 7.47754C5.38922 7.43844 5.33482 7.38734 5.29186 7.32714C5.24889 7.26704 5.2182 7.19904 5.20153 7.12704C5.18487 7.05504 5.18256 6.98044 5.19474 6.90754L5.60958 4.43114C4.70651 4.17964 3.85022 3.78334 3.07411 3.25754L1.74239 5.59404C1.70546 5.65844 1.65621 5.71484 1.59746 5.76024C1.53871 5.80554 1.4716 5.83884 1.39998 5.85824C1.32835 5.87764 1.25361 5.88274 1.18002 5.87324C1.10642 5.86374 1.03542 5.83984 0.971064 5.80294C0.906714 5.76594 0.850254 5.71674 0.804934 5.65794C0.759604 5.59924 0.726294 5.53214 0.706904 5.46044C0.687514 5.38884 0.682424 5.31414 0.691914 5.24054C0.701404 5.16694 0.725304 5.09594 0.762244 5.03154L2.16849 2.57063C1.67454 2.14389 1.22033 1.67321 0.811454 1.16438C0.760464 1.10744 0.721614 1.04072 0.697264 0.968272C0.672924 0.895822 0.663594 0.819172 0.669864 0.742992C0.676124 0.666822 0.697844 0.592732 0.733694 0.525232C0.769554 0.457732 0.818784 0.398242 0.878394 0.350412C0.937994 0.302572 1.00672 0.267382 1.08038 0.246992C1.15404 0.226592 1.23108 0.221433 1.30681 0.231803C1.38253 0.242173 1.45534 0.267872 1.52081 0.307322C1.58627 0.346772 1.643 0.399142 1.68755 0.461252C2.85474 1.90547 4.89661 3.62534 8.0002 3.62534C11.1038 3.62534 13.1456 1.90336 14.3128 0.461252C14.3569 0.397872 14.4135 0.344242 14.4791 0.303672C14.5448 0.263112 14.6181 0.236503 14.6945 0.225483C14.7709 0.214473 14.8487 0.219292 14.9231 0.239642C14.9976 0.260002 15.067 0.295463 15.1272 0.343813C15.1873 0.392163 15.2369 0.452382 15.2728 0.520702C15.3086 0.589032 15.3301 0.664012 15.3357 0.740982C15.3414 0.817942 15.3312 0.895253 15.3057 0.968093C15.2802 1.04093 15.2399 1.10775 15.1875 1.16438C14.7786 1.67321 14.3244 2.14389 13.8305 2.57063L15.2367 5.03154C15.2745 5.09574 15.2991 5.16674 15.3092 5.24044C15.3193 5.31424 15.3147 5.38924 15.2956 5.46114C15.2765 5.53314 15.2433 5.60054 15.198 5.65954C15.1526 5.71854 15.096 5.76804 15.0314 5.80504Z" fill="#003459"/>
</svg>
