<svg width="35" height="35" viewBox="0 0 35 35" fill="none" xmlns="http://www.w3.org/2000/svg">
<path d="M17.5 13.16C16.6416 13.16 15.8025 13.4145 15.0888 13.8914C14.3751 14.3683 13.8188 15.0461 13.4904 15.8392C13.1619 16.6322 13.0759 17.5048 13.2434 18.3467C13.4109 19.1886 13.8242 19.9619 14.4312 20.5688C15.0381 21.1758 15.8114 21.5891 16.6533 21.7566C17.4952 21.9241 18.3678 21.8381 19.1608 21.5096C19.9539 21.1812 20.6317 20.6249 21.1086 19.9112C21.5855 19.1975 21.84 18.3584 21.84 17.5C21.84 16.9301 21.7277 16.3657 21.5096 15.8392C21.2915 15.3126 20.9718 14.8342 20.5688 14.4312C20.1658 14.0282 19.6874 13.7085 19.1608 13.4904C18.6343 13.2723 18.0699 13.16 17.5 13.16ZM34.8775 8.8725C34.8683 7.52108 34.6194 6.182 34.1425 4.9175C33.7912 3.9922 33.2478 3.15191 32.5479 2.45207C31.8481 1.75223 31.0078 1.20876 30.0825 0.8575C28.818 0.380562 27.4789 0.131707 26.1275 0.1225C23.87 -1.17347e-07 23.205 0 17.5 0C11.795 0 11.13 -1.17347e-07 8.8725 0.1225C7.52108 0.131707 6.182 0.380562 4.9175 0.8575C3.9922 1.20876 3.15191 1.75223 2.45207 2.45207C1.75223 3.15191 1.20876 3.9922 0.8575 4.9175C0.380562 6.182 0.131707 7.52108 0.1225 8.8725C-1.17347e-07 11.13 0 11.795 0 17.5C0 23.205 -1.17347e-07 23.87 0.1225 26.1275C0.141337 27.4837 0.389855 28.8269 0.8575 30.1C1.2072 31.0211 1.75023 31.8565 2.45 32.55C3.14684 33.254 3.98893 33.7975 4.9175 34.1425C6.182 34.6194 7.52108 34.8683 8.8725 34.8775C11.13 35 11.795 35 17.5 35C23.205 35 23.87 35 26.1275 34.8775C27.4789 34.8683 28.818 34.6194 30.0825 34.1425C31.0111 33.7975 31.8532 33.254 32.55 32.55C33.2498 31.8565 33.7928 31.0211 34.1425 30.1C34.619 28.8293 34.8678 27.4846 34.8775 26.1275C35 23.87 35 23.205 35 17.5C35 11.795 35 11.13 34.8775 8.8725ZM30.4325 22.8725C30.3763 23.9524 30.1459 25.0162 29.75 26.0225C29.4103 26.8619 28.9052 27.6245 28.2649 28.2649C27.6245 28.9052 26.8619 29.4103 26.0225 29.75C25.0066 30.1238 23.937 30.3306 22.855 30.3625H12.145C11.063 30.3306 9.99335 30.1238 8.9775 29.75C8.10968 29.4275 7.32598 28.913 6.685 28.245C6.05092 27.6172 5.56123 26.8588 5.25 26.0225C4.87472 25.0077 4.67356 23.9368 4.655 22.855V12.145C4.67356 11.0632 4.87472 9.9923 5.25 8.9775C5.57249 8.10968 6.08698 7.32598 6.755 6.685C7.38558 6.05434 8.14321 5.56516 8.9775 5.25C9.99335 4.87621 11.063 4.66937 12.145 4.6375H22.855C23.937 4.66937 25.0066 4.87621 26.0225 5.25C26.8903 5.57249 27.674 6.08698 28.315 6.755C28.9491 7.38281 29.4388 8.14123 29.75 8.9775C30.1238 9.99335 30.3306 11.063 30.3625 12.145V17.5C30.3625 21.105 30.485 21.4725 30.4325 22.855V22.8725ZM27.6325 9.8525C27.4241 9.28722 27.0956 8.77387 26.6696 8.34787C26.2436 7.92187 25.7303 7.59336 25.165 7.385C24.3888 7.11596 23.5714 6.98563 22.75 7H12.25C11.4245 7.00807 10.6069 7.16211 9.835 7.455C9.27838 7.6539 8.77046 7.969 8.34502 8.37935C7.91958 8.78971 7.58636 9.28592 7.3675 9.835C7.11336 10.6144 6.9892 11.4303 7 12.25V22.75C7.01735 23.5746 7.1711 24.3906 7.455 25.165C7.66336 25.7303 7.99187 26.2436 8.41787 26.6696C8.84387 27.0956 9.35722 27.4241 9.9225 27.6325C10.6692 27.9071 11.4549 28.0607 12.25 28.0875H22.75C23.5755 28.0794 24.3931 27.9254 25.165 27.6325C25.7303 27.4241 26.2436 27.0956 26.6696 26.6696C27.0956 26.2436 27.4241 25.7303 27.6325 25.165C27.9254 24.3931 28.0794 23.5755 28.0875 22.75V12.25C28.088 11.4236 27.9337 10.6045 27.6325 9.835V9.8525ZM17.5 24.185C16.6229 24.185 15.7545 24.012 14.9444 23.6758C14.1343 23.3396 13.3985 22.8469 12.7792 22.226C12.1598 21.605 11.669 20.8679 11.335 20.0569C11.001 19.246 10.8302 18.3771 10.8325 17.5C10.8325 16.1771 11.225 14.8839 11.9604 13.7842C12.6957 12.6845 13.7408 11.8277 14.9633 11.3222C16.1859 10.8168 17.5309 10.6854 18.8281 10.9448C20.1254 11.2041 21.3165 11.8425 22.2507 12.7792C23.1849 13.7159 23.8202 14.9087 24.0762 16.2066C24.3321 17.5045 24.1973 18.8492 23.6886 20.0704C23.1799 21.2916 22.3204 22.3344 21.2187 23.0669C20.1171 23.7993 18.8229 24.1885 17.5 24.185ZM24.5 12.1275C24.1131 12.0866 23.7551 11.9039 23.4949 11.6147C23.2348 11.3255 23.0908 10.9503 23.0908 10.5612C23.0908 10.1722 23.2348 9.79699 23.4949 9.5078C23.7551 9.21861 24.1131 9.03595 24.5 8.995C24.8869 9.03595 25.2449 9.21861 25.5051 9.5078C25.7652 9.79699 25.9092 10.1722 25.9092 10.5612C25.9092 10.9503 25.7652 11.3255 25.5051 11.6147C25.2449 11.9039 24.8869 12.0866 24.5 12.1275Z" fill="white"/>
</svg>
