<svg xmlns:dc="http://purl.org/dc/elements/1.1/" xmlns:cc="http://creativecommons.org/ns#"
    xmlns:rdf="http://www.w3.org/1999/02/22-rdf-syntax-ns#" xmlns:svg="http://www.w3.org/2000/svg"
    xmlns="http://www.w3.org/2000/svg"
    xmlns:sodipodi="http://sodipodi.sourceforge.net/DTD/sodipodi-0.dtd"
    xmlns:inkscape="http://www.inkscape.org/namespaces/inkscape" version="1.1" x="0px" y="0px"
    viewBox="0 0 100 125">
    <g transform="translate(0,-952.36218)">
        <path
            style="font-size:medium;font-style:normal;font-variant:normal;font-weight:normal;font-stretch:normal;text-indent:0;text-align:start;text-decoration:none;line-height:normal;letter-spacing:normal;word-spacing:normal;text-transform:none;direction:ltr;block-progression:tb;writing-mode:lr-tb;text-anchor:start;baseline-shift:baseline;opacity:1;color:#ef4444;fill:#ef4444;fill-opacity:1;stroke:none;stroke-width:6;marker:none;visibility:visible;display:inline;overflow:visible;enable-background:accumulate;font-family:Sans;-inkscape-font-specification:Sans"
            d="M 17.6875 5 A 3.0003 3.0003 0 0 0 15 8 L 15 92 A 3.0003 3.0003 0 0 0 18 95 L 42 95 A 3.0003 3.0003 0 1 0 42 89 L 21 89 L 21 11 L 42 11 A 3.0003 3.0003 0 1 0 42 5 L 18 5 A 3.0003 3.0003 0 0 0 17.6875 5 z M 67.65625 29.96875 A 3.0003 3.0003 0 0 0 65.6875 34.90625 L 75.65625 47 L 28 47 C 27.895928 46.995 27.791572 46.995 27.6875 47 C 26.116516 47.0815 24.761929 48.58525 24.84375 50.15625 C 24.92557 51.72715 26.429044 53.0821 28 53 L 75.65625 53 L 65.6875 65.09375 A 3.0003 3.0003 0 1 0 70.3125 68.90625 L 84.3125 51.90625 A 3.0003 3.0003 0 0 0 84.3125 48.09375 L 70.3125 31.09375 A 3.0003 3.0003 0 0 0 67.65625 29.96875 z "
            transform="translate(0,952.36218)" />
    </g>
</svg>