<svg width="35" height="35" viewBox="0 0 35 35" fill="none" xmlns="http://www.w3.org/2000/svg">
<path d="M17.5 0C7.84 0 0 7.84 0 17.5C0 27.16 7.84 35 17.5 35C27.16 35 35 27.16 35 17.5C35 7.84 27.16 0 17.5 0ZM25.62 11.9C25.3575 14.665 24.22 21.385 23.6425 24.4825C23.3975 25.795 22.9075 26.2325 22.4525 26.285C21.4375 26.3725 20.6675 25.62 19.6875 24.9725C18.1475 23.9575 17.2725 23.3275 15.785 22.3475C14.0525 21.21 15.1725 20.58 16.17 19.565C16.4325 19.3025 20.9125 15.225 21 14.8575C21.0122 14.8018 21.0105 14.7441 20.9953 14.6892C20.98 14.6343 20.9516 14.5839 20.9125 14.5425C20.8075 14.455 20.6675 14.49 20.545 14.5075C20.3875 14.5425 17.9375 16.17 13.16 19.39C12.46 19.8625 11.83 20.1075 11.27 20.09C10.64 20.0725 9.45 19.74 8.5575 19.4425C7.455 19.0925 6.5975 18.9 6.6675 18.2875C6.7025 17.9725 7.14 17.6575 7.9625 17.325C13.0725 15.1025 16.4675 13.6325 18.165 12.9325C23.03 10.9025 24.0275 10.5525 24.6925 10.5525C24.8325 10.5525 25.165 10.5875 25.375 10.7625C25.55 10.9025 25.6025 11.095 25.62 11.235C25.6025 11.34 25.6375 11.655 25.62 11.9Z" fill="white"/>
</svg>
